<svg width="24" height="24" viewBox="0 0 24 24" fill="none" xmlns="http://www.w3.org/2000/svg">
<path d="M12.0032 21C7.28724 21 4.93024 21 3.46524 19.535C2.00024 18.072 2.00024 15.715 2.00024 11V7.944C2.00024 6.128 2.00024 5.22 2.38024 4.538C2.65138 4.05208 3.05232 3.65114 3.53824 3.38C4.22024 3 5.12824 3 6.94624 3C8.11024 3 8.69224 3 9.20024 3.191C10.3632 3.627 10.8432 4.684 11.3682 5.733L12.0032 7M8.00224 7H16.7542C18.8612 7 19.9142 7 20.6722 7.506C20.9999 7.72464 21.2812 8.00565 21.5002 8.333C21.8942 8.923 21.9802 9.693 22.0002 11M22.0002 18V16.743C22.0002 16.13 22.0002 15.823 21.8862 15.547C21.7722 15.271 21.5552 15.055 21.1212 14.621L20.3792 13.879C19.9452 13.445 19.7292 13.229 19.4532 13.114C19.1772 12.999 18.8702 13 18.2572 13C16.8432 13 15.8792 13 15.4392 13.44C15.0002 13.878 15.0002 14.585 15.0002 16V18C15.0002 19.414 15.0002 20.121 15.4402 20.56C15.8792 21 16.5862 21 18.0002 21H19.0002C20.4142 21 21.1212 21 21.5602 20.56C22.0002 20.121 22.0002 19.414 22.0002 18Z" stroke="black" stroke-width="1.5" stroke-linecap="round" stroke-linejoin="round"/>
</svg>
