<svg width="288" height="285" viewBox="0 0 288 285" fill="none" xmlns="http://www.w3.org/2000/svg">
<path opacity="0.3" d="M155.174 64.3604C155.47 64.1599 155.548 63.7575 155.347 63.4615C155.147 63.1654 154.744 63.0878 154.448 63.2883L152.289 64.7504L152.009 64.3383L154.169 62.8762C154.465 62.6757 154.543 62.2733 154.342 61.9773C154.142 61.6812 153.739 61.6036 153.443 61.8041L151.283 63.2662L149.271 60.2938L139.293 57.2722L127.116 268.828L136.37 270.257L242.691 198.268L237.525 190.638L239.684 189.176C239.98 188.975 240.058 188.573 239.857 188.277C239.657 187.981 239.254 187.903 238.958 188.103L236.799 189.565L236.52 189.153L238.68 187.691C238.976 187.491 239.053 187.088 238.853 186.792C238.652 186.496 238.25 186.418 237.954 186.619L235.794 188.081L233.078 184.069L235.238 182.607C235.534 182.406 235.611 182.004 235.411 181.708C235.21 181.412 234.808 181.334 234.512 181.535L232.352 182.997L232.073 182.584L234.233 181.122C234.529 180.922 234.606 180.519 234.406 180.223C234.205 179.927 233.803 179.85 233.507 180.05L231.347 181.512L228.63 177.5L230.79 176.038C231.086 175.838 231.164 175.435 230.963 175.139C230.763 174.843 230.36 174.766 230.064 174.966L227.904 176.428L227.625 176.016L229.785 174.554C230.081 174.354 230.158 173.951 229.958 173.655C229.757 173.359 229.355 173.281 229.059 173.482L226.899 174.944L224.182 170.932L226.342 169.47C226.638 169.269 226.716 168.867 226.515 168.571C226.315 168.275 225.912 168.197 225.616 168.398L223.457 169.86L223.177 169.448L225.337 167.986C225.633 167.785 225.711 167.383 225.51 167.087C225.31 166.791 224.907 166.713 224.611 166.914L222.451 168.376L219.735 164.364L221.894 162.902C222.19 162.701 222.268 162.299 222.067 162.003C221.867 161.707 221.464 161.629 221.168 161.829L219.009 163.291L218.73 162.879L220.89 161.417C221.186 161.217 221.263 160.814 221.063 160.518C220.862 160.222 220.46 160.144 220.164 160.345L218.004 161.807L215.287 157.795L217.448 156.333C217.744 156.132 217.821 155.73 217.621 155.434C217.42 155.138 217.018 155.06 216.722 155.261L214.562 156.723L214.283 156.31L216.443 154.848C216.739 154.648 216.817 154.245 216.616 153.949C216.416 153.653 216.013 153.576 215.717 153.776L213.558 155.238L210.841 151.226L213.001 149.764C213.297 149.563 213.375 149.161 213.174 148.865C212.974 148.569 212.571 148.491 212.275 148.692L210.116 150.154L209.836 149.742L211.996 148.28C212.292 148.079 212.37 147.677 212.169 147.381C211.969 147.084 211.566 147.007 211.27 147.207L209.111 148.669L206.394 144.657L208.553 143.195C208.849 142.995 208.927 142.592 208.726 142.296C208.526 142 208.123 141.923 207.827 142.123L205.668 143.585L205.389 143.173L207.548 141.711C207.844 141.511 207.922 141.108 207.721 140.812C207.521 140.516 207.118 140.439 206.822 140.639L204.663 142.101L201.946 138.089L204.106 136.627C204.402 136.426 204.479 136.024 204.279 135.728C204.078 135.432 203.676 135.354 203.38 135.555L201.22 137.017L200.941 136.605L203.101 135.143C203.397 134.942 203.475 134.54 203.274 134.244C203.074 133.947 202.671 133.87 202.375 134.07L200.215 135.532L197.499 131.52L199.658 130.058C199.954 129.858 200.032 129.455 199.831 129.159C199.631 128.863 199.228 128.786 198.932 128.986L196.773 130.448L196.494 130.036L198.654 128.574C198.95 128.373 199.027 127.971 198.827 127.675C198.626 127.379 198.224 127.301 197.928 127.502L195.768 128.964L193.052 124.952L195.212 123.489C195.508 123.289 195.585 122.886 195.385 122.59C195.184 122.294 194.782 122.217 194.486 122.417L192.326 123.879L192.047 123.467L194.207 122.005C194.503 121.805 194.58 121.402 194.38 121.106C194.179 120.81 193.777 120.733 193.481 120.933L191.321 122.395L188.604 118.383L190.764 116.921C191.06 116.721 191.138 116.318 190.937 116.022C190.737 115.726 190.334 115.648 190.038 115.849L187.878 117.311L187.599 116.899L189.759 115.437C190.055 115.236 190.132 114.834 189.932 114.538C189.731 114.242 189.329 114.164 189.033 114.365L186.873 115.827L184.156 111.815L186.316 110.353C186.612 110.152 186.69 109.75 186.489 109.454C186.289 109.158 185.886 109.08 185.59 109.281L183.431 110.743L183.151 110.331L185.311 108.869C185.607 108.668 185.685 108.266 185.484 107.97C185.284 107.674 184.881 107.596 184.585 107.796L182.425 109.258L179.709 105.246L181.868 103.784C182.164 103.584 182.242 103.181 182.041 102.885C181.841 102.589 181.438 102.512 181.142 102.712L178.983 104.174L178.704 103.762L180.864 102.3C181.16 102.099 181.237 101.697 181.037 101.401C180.836 101.105 180.434 101.027 180.138 101.228L177.978 102.69L175.261 98.6777L177.421 97.2157C177.717 97.0152 177.795 96.6128 177.594 96.3168C177.394 96.0207 176.991 95.9431 176.695 96.1437L174.536 97.6057L174.256 97.1936L176.417 95.7313C176.713 95.5307 176.79 95.1283 176.59 94.8323C176.389 94.5362 175.987 94.4587 175.691 94.6592L173.531 96.1212L170.814 92.1091L172.974 90.6471C173.27 90.4466 173.348 90.0442 173.147 89.7481C172.946 89.4521 172.544 89.3745 172.248 89.575L170.088 91.037L169.809 90.6249L171.969 89.1629C172.265 88.9624 172.342 88.56 172.142 88.2639C171.941 87.9679 171.539 87.8903 171.243 88.0908L169.083 89.5528L166.366 85.5408L168.526 84.0788C168.822 83.8782 168.9 83.4758 168.699 83.1798C168.499 82.8837 168.096 82.8062 167.8 83.0067L165.641 84.4687L165.361 84.0566L167.521 82.5946C167.817 82.394 167.895 81.9916 167.694 81.6956C167.494 81.3995 167.091 81.322 166.795 81.5225L164.635 82.9845L161.919 78.9724L164.078 77.5104C164.374 77.3099 164.452 76.9075 164.251 76.6114C164.051 76.3154 163.648 76.2378 163.352 76.4383L161.193 77.9003L160.914 77.4882L163.073 76.0262C163.369 75.8257 163.447 75.4233 163.246 75.1272C163.046 74.8312 162.643 74.7536 162.347 74.9541L160.188 76.4161L157.471 72.4041L159.63 70.9421C159.926 70.7415 160.004 70.3391 159.804 70.0431C159.603 69.747 159.201 69.6695 158.905 69.87L156.745 71.332L156.466 70.9199L158.625 69.4579C158.921 69.2574 158.999 68.8549 158.798 68.5589C158.598 68.2628 158.195 68.1853 157.899 68.3858L155.74 69.8478L153.023 65.8357L155.174 64.3604Z" fill="black"/>
<path d="M131.588 268.702L230.172 201.952L134.436 60.5589L35.8526 127.308C33.3374 129.012 32.6791 132.431 34.3818 134.947L123.949 267.23C125.653 269.747 129.073 270.405 131.588 268.702Z" fill="#263238" stroke="#263238" stroke-width="0.679397" stroke-miterlimit="10" stroke-linecap="round"/>
<path d="M125.441 266.222L131.057 262.419L120.428 246.721L114.812 250.524C113.988 251.081 113.773 252.201 114.33 253.024L122.94 265.741C123.498 266.564 124.617 266.779 125.441 266.222Z" fill="white" stroke="#263238" stroke-width="0.679397" stroke-miterlimit="10" stroke-linecap="round"/>
<path d="M114.267 249.72L119.884 245.917L109.255 230.22L103.638 234.022C102.815 234.58 102.599 235.699 103.157 236.523L111.767 249.239C112.324 250.062 113.444 250.278 114.267 249.72Z" fill="#C6FF00" stroke="#263238" stroke-width="0.679397" stroke-miterlimit="10" stroke-linecap="round"/>
<path d="M103.094 233.218L108.711 229.415L98.0818 213.717L92.4652 217.52C91.6419 218.077 91.4264 219.197 91.9838 220.02L100.594 232.736C101.151 233.559 102.27 233.775 103.094 233.218Z" fill="white" stroke="#263238" stroke-width="0.679397" stroke-miterlimit="10" stroke-linecap="round"/>
<path d="M91.9206 216.716L97.5372 212.913L86.9082 197.215L81.2916 201.018C80.4683 201.575 80.2528 202.695 80.8102 203.518L89.4203 216.234C89.9777 217.058 91.0973 217.273 91.9206 216.716Z" fill="#C6FF00" stroke="#263238" stroke-width="0.679397" stroke-miterlimit="10" stroke-linecap="round"/>
<path d="M70.1185 184.515L73.4844 182.236L36.1552 127.104L139.294 57.2712L235.029 198.664L131.891 268.497L84.1134 197.934L80.7474 200.213C79.9242 200.77 78.8046 200.555 78.2472 199.732L69.6371 187.015C69.079 186.192 69.2946 185.073 70.1185 184.515Z" fill="white" stroke="#263238" stroke-width="0.679397" stroke-miterlimit="10" stroke-linecap="round"/>
<path d="M69.0221 151.345L73.32 159.511L111.666 133.137L107.285 126.668L69.0221 151.345Z" fill="#C6FF00"/>
<path d="M137.517 69.5408C138.262 70.6407 139.757 70.9286 140.857 70.1836C141.957 69.4386 142.245 67.9439 141.5 66.844C140.755 65.7441 139.26 65.4562 138.16 66.2012C137.061 66.9459 136.773 68.4413 137.517 69.5408Z" fill="#263238" stroke="#263238" stroke-width="0.679397" stroke-miterlimit="10" stroke-linecap="round"/>
<path d="M139.574 67.745L145.595 63.6682C145.891 63.4677 145.968 63.0653 145.768 62.7692C145.567 62.4732 145.165 62.3956 144.869 62.5961L138.848 66.6729C138.552 66.8734 138.474 67.2759 138.675 67.5719C138.875 67.8679 139.278 67.9455 139.574 67.745Z" fill="white" stroke="#263238" stroke-width="0.679397" stroke-miterlimit="10" stroke-linecap="round"/>
<path d="M140.579 69.2299L146.6 65.1531C146.896 64.9526 146.973 64.5502 146.773 64.2541C146.572 63.9581 146.17 63.8805 145.874 64.081L139.853 68.1578C139.557 68.3583 139.48 68.7607 139.68 69.0568C139.881 69.3528 140.283 69.4304 140.579 69.2299Z" fill="white" stroke="#263238" stroke-width="0.679397" stroke-miterlimit="10" stroke-linecap="round"/>
<path d="M141.966 76.1102C142.711 77.21 144.205 77.498 145.305 76.753C146.405 76.008 146.693 74.5132 145.948 73.4134C145.203 72.3135 143.708 72.0256 142.608 72.7705C141.508 73.5149 141.221 75.0103 141.966 76.1102Z" fill="#263238" stroke="#263238" stroke-width="0.679397" stroke-miterlimit="10" stroke-linecap="round"/>
<path d="M144.022 74.3145L150.043 70.2377C150.339 70.0372 150.417 69.6348 150.216 69.3388C150.016 69.0427 149.613 68.9651 149.317 69.1657L143.296 73.2424C143 73.4429 142.923 73.8454 143.123 74.1414C143.323 74.4371 143.726 74.5144 144.022 74.3145Z" fill="white" stroke="#263238" stroke-width="0.679397" stroke-miterlimit="10" stroke-linecap="round"/>
<path d="M145.027 75.7988L151.048 71.722C151.344 71.5215 151.422 71.1191 151.221 70.823C151.021 70.527 150.618 70.4494 150.322 70.6499L144.301 74.7267C144.005 74.9272 143.928 75.3296 144.128 75.6257C144.328 75.922 144.731 75.9996 145.027 75.7988Z" fill="white" stroke="#263238" stroke-width="0.679397" stroke-miterlimit="10" stroke-linecap="round"/>
<path d="M146.413 82.6797C147.158 83.7796 148.653 84.0675 149.753 83.3225C150.853 82.5775 151.141 81.0828 150.396 79.9829C149.651 78.883 148.156 78.5951 147.056 79.3401C145.957 80.0842 145.669 81.5795 146.413 82.6797Z" fill="#263238" stroke="#263238" stroke-width="0.679397" stroke-miterlimit="10" stroke-linecap="round"/>
<path d="M148.47 80.8839L154.49 76.8071C154.786 76.6066 154.864 76.2042 154.664 75.9081C154.463 75.6121 154.061 75.5345 153.765 75.735L147.744 79.8118C147.448 80.0123 147.37 80.4147 147.571 80.7108C147.771 81.0068 148.174 81.0844 148.47 80.8839Z" fill="white" stroke="#263238" stroke-width="0.679397" stroke-miterlimit="10" stroke-linecap="round"/>
<path d="M149.475 82.368L155.496 78.2913C155.792 78.0908 155.869 77.6883 155.669 77.3923C155.468 77.0962 155.066 77.0187 154.77 77.2192L148.749 81.296C148.453 81.4965 148.376 81.8989 148.576 82.1949C148.777 82.491 149.179 82.5685 149.475 82.368Z" fill="white" stroke="#263238" stroke-width="0.679397" stroke-miterlimit="10" stroke-linecap="round"/>
<path d="M150.862 89.2485C151.607 90.3483 153.101 90.6363 154.201 89.8913C155.301 89.1463 155.589 87.6516 154.844 86.5517C154.099 85.4518 152.604 85.1639 151.504 85.9089C150.405 86.6535 150.117 88.1486 150.862 89.2485Z" fill="#263238" stroke="#263238" stroke-width="0.679397" stroke-miterlimit="10" stroke-linecap="round"/>
<path d="M152.918 87.4528L158.938 83.376C159.234 83.1755 159.312 82.7731 159.112 82.4771C158.911 82.181 158.509 82.1034 158.213 82.3039L152.192 86.3807C151.896 86.5812 151.818 86.9837 152.019 87.2797C152.219 87.5757 152.622 87.6533 152.918 87.4528Z" fill="white" stroke="#263238" stroke-width="0.679397" stroke-miterlimit="10" stroke-linecap="round"/>
<path d="M153.923 88.9371L159.944 84.8603C160.24 84.6598 160.317 84.2574 160.117 83.9613C159.916 83.6653 159.514 83.5877 159.218 83.7882L153.197 87.865C152.901 88.0655 152.823 88.4679 153.024 88.764C153.224 89.0603 153.627 89.1376 153.923 88.9371Z" fill="white" stroke="#263238" stroke-width="0.679397" stroke-miterlimit="10" stroke-linecap="round"/>
<path d="M155.309 95.8177C156.054 96.9176 157.549 97.2056 158.649 96.4606C159.749 95.7156 160.037 94.2208 159.292 93.1209C158.547 92.0211 157.052 91.7331 155.952 92.4781C154.852 93.2231 154.564 94.7179 155.309 95.8177Z" fill="#263238" stroke="#263238" stroke-width="0.679397" stroke-miterlimit="10" stroke-linecap="round"/>
<path d="M157.366 94.022L163.387 89.9452C163.683 89.7447 163.76 89.3423 163.56 89.0462C163.359 88.7502 162.957 88.6726 162.661 88.8731L156.64 92.9499C156.344 93.1504 156.266 93.5529 156.467 93.8489C156.667 94.1452 157.069 94.2228 157.366 94.022Z" fill="white" stroke="#263238" stroke-width="0.679397" stroke-miterlimit="10" stroke-linecap="round"/>
<path d="M158.371 95.5072L164.391 91.4304C164.687 91.2299 164.765 90.8275 164.564 90.5314C164.364 90.2354 163.961 90.1578 163.665 90.3583L157.645 94.4351C157.349 94.6356 157.271 95.038 157.472 95.3341C157.672 95.6301 158.075 95.7077 158.371 95.5072Z" fill="white" stroke="#263238" stroke-width="0.679397" stroke-miterlimit="10" stroke-linecap="round"/>
<path d="M159.757 102.387C160.502 103.487 161.997 103.775 163.097 103.03C164.196 102.285 164.484 100.79 163.739 99.6902C162.994 98.5904 161.5 98.3024 160.4 99.0474C159.301 99.7921 159.013 101.287 159.757 102.387Z" fill="#263238" stroke="#263238" stroke-width="0.679397" stroke-miterlimit="10" stroke-linecap="round"/>
<path d="M161.813 100.591L167.834 96.5145C168.13 96.314 168.208 95.9116 168.007 95.6156C167.807 95.3195 167.404 95.2419 167.108 95.4424L161.087 99.5192C160.791 99.7197 160.714 100.122 160.914 100.418C161.115 100.714 161.517 100.792 161.813 100.591Z" fill="white" stroke="#263238" stroke-width="0.679397" stroke-miterlimit="10" stroke-linecap="round"/>
<path d="M162.819 102.076L168.839 97.9994C169.135 97.7989 169.213 97.3965 169.012 97.1005C168.812 96.8044 168.409 96.7268 168.113 96.9273L162.093 101.004C161.797 101.205 161.719 101.607 161.92 101.903C162.12 102.199 162.523 102.277 162.819 102.076Z" fill="white" stroke="#263238" stroke-width="0.679397" stroke-miterlimit="10" stroke-linecap="round"/>
<path d="M164.205 108.956C164.95 110.056 166.445 110.343 167.545 109.598C168.644 108.853 168.932 107.359 168.187 106.259C167.442 105.159 165.948 104.871 164.848 105.616C163.748 106.361 163.46 107.856 164.205 108.956Z" fill="#263238" stroke="#263238" stroke-width="0.679397" stroke-miterlimit="10" stroke-linecap="round"/>
<path d="M166.261 107.16L172.282 103.083C172.578 102.883 172.656 102.48 172.455 102.184C172.255 101.888 171.852 101.811 171.556 102.011L165.535 106.088C165.239 106.289 165.162 106.691 165.362 106.987C165.562 107.283 165.965 107.361 166.261 107.16Z" fill="white" stroke="#263238" stroke-width="0.679397" stroke-miterlimit="10" stroke-linecap="round"/>
<path d="M167.267 108.645L173.287 104.568C173.583 104.368 173.661 103.965 173.46 103.669C173.26 103.373 172.857 103.296 172.561 103.496L166.541 107.573C166.245 107.773 166.167 108.176 166.368 108.472C166.567 108.768 166.97 108.846 167.267 108.645Z" fill="white" stroke="#263238" stroke-width="0.679397" stroke-miterlimit="10" stroke-linecap="round"/>
<path d="M168.653 115.526C169.398 116.626 170.893 116.914 171.992 116.169C173.092 115.424 173.38 113.929 172.635 112.829C171.89 111.729 170.395 111.441 169.296 112.186C168.196 112.93 167.908 114.426 168.653 115.526Z" fill="#263238" stroke="#263238" stroke-width="0.679397" stroke-miterlimit="10" stroke-linecap="round"/>
<path d="M170.709 113.73L176.73 109.653C177.026 109.453 177.103 109.05 176.903 108.754C176.702 108.458 176.3 108.381 176.004 108.581L169.983 112.658C169.687 112.859 169.609 113.261 169.81 113.557C170.01 113.852 170.413 113.93 170.709 113.73Z" fill="white" stroke="#263238" stroke-width="0.679397" stroke-miterlimit="10" stroke-linecap="round"/>
<path d="M171.715 115.214L177.735 111.137C178.031 110.937 178.109 110.535 177.908 110.239C177.708 109.942 177.305 109.865 177.009 110.065L170.989 114.142C170.693 114.343 170.615 114.745 170.816 115.041C171.016 115.337 171.419 115.415 171.715 115.214Z" fill="white" stroke="#263238" stroke-width="0.679397" stroke-miterlimit="10" stroke-linecap="round"/>
<path d="M173.101 122.095C173.846 123.195 175.341 123.482 176.441 122.737C177.54 121.992 177.828 120.498 177.083 119.398C176.338 118.298 174.844 118.01 173.744 118.755C172.644 119.5 172.356 120.995 173.101 122.095Z" fill="#263238" stroke="#263238" stroke-width="0.679397" stroke-miterlimit="10" stroke-linecap="round"/>
<path d="M175.157 120.299L181.178 116.222C181.474 116.022 181.552 115.619 181.351 115.323C181.151 115.027 180.748 114.95 180.452 115.15L174.431 119.227C174.135 119.427 174.058 119.83 174.258 120.126C174.459 120.422 174.861 120.5 175.157 120.299Z" fill="white" stroke="#263238" stroke-width="0.679397" stroke-miterlimit="10" stroke-linecap="round"/>
<path d="M176.162 121.783L182.183 117.706C182.479 117.506 182.557 117.103 182.356 116.807C182.156 116.511 181.753 116.434 181.457 116.634L175.436 120.711C175.14 120.911 175.063 121.314 175.263 121.61C175.463 121.906 175.866 121.984 176.162 121.783Z" fill="white" stroke="#263238" stroke-width="0.679397" stroke-miterlimit="10" stroke-linecap="round"/>
<path d="M177.549 128.664C178.294 129.764 179.789 130.051 180.889 129.306C181.988 128.561 182.276 127.067 181.531 125.967C180.786 124.867 179.292 124.579 178.192 125.324C177.092 126.069 176.804 127.564 177.549 128.664Z" fill="#263238" stroke="#263238" stroke-width="0.679397" stroke-miterlimit="10" stroke-linecap="round"/>
<path d="M179.605 126.868L185.626 122.791C185.922 122.591 186 122.188 185.799 121.892C185.599 121.596 185.196 121.519 184.9 121.719L178.88 125.796C178.584 125.996 178.506 126.399 178.706 126.695C178.906 126.991 179.309 127.069 179.605 126.868Z" fill="white" stroke="#263238" stroke-width="0.679397" stroke-miterlimit="10" stroke-linecap="round"/>
<path d="M180.61 128.352L186.631 124.276C186.927 124.075 187.004 123.673 186.804 123.377C186.603 123.081 186.201 123.003 185.905 123.203L179.884 127.28C179.588 127.481 179.511 127.883 179.711 128.179C179.912 128.476 180.314 128.553 180.61 128.352Z" fill="white" stroke="#263238" stroke-width="0.679397" stroke-miterlimit="10" stroke-linecap="round"/>
<path d="M181.997 135.233C182.741 136.333 184.236 136.621 185.336 135.876C186.436 135.131 186.724 133.636 185.979 132.536C185.234 131.436 183.739 131.148 182.639 131.893C181.54 132.638 181.252 134.133 181.997 135.233Z" fill="#263238" stroke="#263238" stroke-width="0.679397" stroke-miterlimit="10" stroke-linecap="round"/>
<path d="M184.053 133.437L190.073 129.36C190.369 129.16 190.447 128.757 190.247 128.461C190.046 128.165 189.644 128.088 189.348 128.288L183.327 132.365C183.031 132.566 182.953 132.968 183.154 133.264C183.354 133.56 183.757 133.638 184.053 133.437Z" fill="white" stroke="#263238" stroke-width="0.679397" stroke-miterlimit="10" stroke-linecap="round"/>
<path d="M185.059 134.922L191.079 130.845C191.375 130.645 191.453 130.242 191.252 129.946C191.052 129.65 190.649 129.572 190.353 129.773L184.333 133.85C184.037 134.05 183.959 134.453 184.16 134.749C184.36 135.045 184.763 135.122 185.059 134.922Z" fill="white" stroke="#263238" stroke-width="0.679397" stroke-miterlimit="10" stroke-linecap="round"/>
<path d="M186.445 141.802C187.19 142.901 188.684 143.189 189.784 142.444C190.884 141.699 191.172 140.205 190.427 139.105C189.682 138.005 188.187 137.717 187.087 138.462C185.988 139.207 185.7 140.702 186.445 141.802Z" fill="#263238" stroke="#263238" stroke-width="0.679397" stroke-miterlimit="10" stroke-linecap="round"/>
<path d="M188.501 140.006L194.522 135.929C194.818 135.729 194.896 135.326 194.695 135.03C194.495 134.734 194.092 134.657 193.796 134.857L187.775 138.934C187.479 139.134 187.402 139.537 187.602 139.833C187.802 140.129 188.205 140.206 188.501 140.006Z" fill="white" stroke="#263238" stroke-width="0.679397" stroke-miterlimit="10" stroke-linecap="round"/>
<path d="M189.506 141.491L195.527 137.414C195.823 137.214 195.901 136.811 195.7 136.515C195.5 136.219 195.097 136.142 194.801 136.342L188.78 140.419C188.484 140.619 188.407 141.022 188.607 141.318C188.807 141.614 189.21 141.692 189.506 141.491Z" fill="white" stroke="#263238" stroke-width="0.679397" stroke-miterlimit="10" stroke-linecap="round"/>
<path d="M190.892 148.371C191.637 149.471 193.132 149.759 194.232 149.014C195.332 148.269 195.62 146.774 194.875 145.675C194.13 144.575 192.635 144.287 191.535 145.032C190.436 145.776 190.148 147.271 190.892 148.371Z" fill="#263238" stroke="#263238" stroke-width="0.679397" stroke-miterlimit="10" stroke-linecap="round"/>
<path d="M192.949 146.575L198.969 142.498C199.265 142.298 199.343 141.895 199.143 141.599C198.942 141.303 198.54 141.226 198.244 141.426L192.223 145.503C191.927 145.704 191.849 146.106 192.05 146.402C192.25 146.698 192.653 146.776 192.949 146.575Z" fill="white" stroke="#263238" stroke-width="0.679397" stroke-miterlimit="10" stroke-linecap="round"/>
<path d="M193.954 148.06L199.975 143.983C200.271 143.783 200.348 143.38 200.148 143.084C199.947 142.788 199.545 142.711 199.249 142.911L193.228 146.988C192.932 147.188 192.855 147.591 193.055 147.887C193.256 148.183 193.658 148.261 193.954 148.06Z" fill="white" stroke="#263238" stroke-width="0.679397" stroke-miterlimit="10" stroke-linecap="round"/>
<path d="M195.341 154.94C196.086 156.04 197.58 156.328 198.68 155.583C199.78 154.838 200.068 153.343 199.323 152.243C198.578 151.144 197.083 150.856 195.983 151.601C194.884 152.345 194.596 153.84 195.341 154.94Z" fill="#263238" stroke="#263238" stroke-width="0.679397" stroke-miterlimit="10" stroke-linecap="round"/>
<path d="M197.397 153.145L203.418 149.068C203.714 148.867 203.791 148.465 203.591 148.169C203.39 147.873 202.988 147.795 202.692 147.996L196.671 152.072C196.375 152.273 196.297 152.675 196.498 152.971C196.698 153.267 197.101 153.345 197.397 153.145Z" fill="white" stroke="#263238" stroke-width="0.679397" stroke-miterlimit="10" stroke-linecap="round"/>
<path d="M198.402 154.629L204.423 150.552C204.719 150.352 204.796 149.949 204.596 149.653C204.395 149.357 203.993 149.279 203.697 149.48L197.676 153.557C197.38 153.757 197.302 154.16 197.503 154.456C197.703 154.752 198.106 154.829 198.402 154.629Z" fill="white" stroke="#263238" stroke-width="0.679397" stroke-miterlimit="10" stroke-linecap="round"/>
<path d="M199.788 161.51C200.533 162.61 202.028 162.897 203.128 162.152C204.228 161.407 204.516 159.913 203.771 158.813C203.026 157.713 201.531 157.425 200.431 158.17C199.331 158.915 199.043 160.41 199.788 161.51Z" fill="#263238" stroke="#263238" stroke-width="0.679397" stroke-miterlimit="10" stroke-linecap="round"/>
<path d="M201.845 159.714L207.866 155.637C208.162 155.437 208.239 155.034 208.039 154.738C207.838 154.442 207.436 154.364 207.14 154.565L201.119 158.642C200.823 158.842 200.745 159.245 200.946 159.541C201.146 159.837 201.549 159.914 201.845 159.714Z" fill="white" stroke="#263238" stroke-width="0.679397" stroke-miterlimit="10" stroke-linecap="round"/>
<path d="M202.85 161.198L208.87 157.122C209.166 156.921 209.244 156.519 209.043 156.223C208.843 155.927 208.44 155.849 208.144 156.049L202.124 160.126C201.828 160.327 201.75 160.729 201.951 161.025C202.151 161.321 202.554 161.399 202.85 161.198Z" fill="white" stroke="#263238" stroke-width="0.679397" stroke-miterlimit="10" stroke-linecap="round"/>
<path d="M204.236 168.079C204.981 169.179 206.476 169.467 207.576 168.722C208.676 167.977 208.964 166.482 208.219 165.382C207.474 164.282 205.979 163.994 204.879 164.739C203.78 165.484 203.491 166.979 204.236 168.079Z" fill="#263238" stroke="#263238" stroke-width="0.679397" stroke-miterlimit="10" stroke-linecap="round"/>
<path d="M206.293 166.283L212.313 162.206C212.609 162.006 212.687 161.604 212.487 161.308C212.286 161.011 211.884 160.934 211.588 161.134L205.567 165.211C205.271 165.412 205.193 165.814 205.394 166.11C205.594 166.406 205.997 166.484 206.293 166.283Z" fill="white" stroke="#263238" stroke-width="0.679397" stroke-miterlimit="10" stroke-linecap="round"/>
<path d="M207.298 167.768L213.319 163.691C213.615 163.491 213.692 163.088 213.492 162.792C213.291 162.496 212.889 162.419 212.593 162.619L206.572 166.696C206.276 166.897 206.198 167.299 206.399 167.595C206.599 167.891 207.002 167.969 207.298 167.768Z" fill="white" stroke="#263238" stroke-width="0.679397" stroke-miterlimit="10" stroke-linecap="round"/>
<path d="M208.684 174.648C209.429 175.748 210.924 176.036 212.024 175.291C213.124 174.546 213.412 173.051 212.667 171.951C211.922 170.851 210.427 170.563 209.327 171.308C208.227 172.053 207.94 173.549 208.684 174.648Z" fill="#263238" stroke="#263238" stroke-width="0.679397" stroke-miterlimit="10" stroke-linecap="round"/>
<path d="M210.74 172.852L216.761 168.776C217.057 168.575 217.135 168.173 216.934 167.877C216.734 167.581 216.331 167.503 216.035 167.704L210.015 171.78C209.719 171.981 209.641 172.383 209.841 172.679C210.041 172.976 210.444 173.053 210.74 172.852Z" fill="white" stroke="#263238" stroke-width="0.679397" stroke-miterlimit="10" stroke-linecap="round"/>
<path d="M211.746 174.337L217.767 170.26C218.063 170.06 218.14 169.657 217.94 169.361C217.739 169.065 217.337 168.988 217.041 169.188L211.02 173.265C210.724 173.466 210.647 173.868 210.847 174.164C211.047 174.46 211.449 174.538 211.746 174.337Z" fill="white" stroke="#263238" stroke-width="0.679397" stroke-miterlimit="10" stroke-linecap="round"/>
<path d="M213.132 181.217C213.877 182.317 215.371 182.605 216.471 181.86C217.571 181.115 217.859 179.62 217.114 178.52C216.369 177.421 214.874 177.133 213.775 177.878C212.675 178.622 212.388 180.118 213.132 181.217Z" fill="#263238" stroke="#263238" stroke-width="0.679397" stroke-miterlimit="10" stroke-linecap="round"/>
<path d="M215.188 179.422L221.208 175.345C221.504 175.144 221.582 174.742 221.382 174.446C221.181 174.15 220.779 174.072 220.483 174.273L214.462 178.35C214.166 178.55 214.088 178.953 214.289 179.249C214.489 179.545 214.892 179.622 215.188 179.422Z" fill="white" stroke="#263238" stroke-width="0.679397" stroke-miterlimit="10" stroke-linecap="round"/>
<path d="M216.193 180.907L222.214 176.83C222.51 176.629 222.588 176.227 222.387 175.931C222.187 175.635 221.784 175.557 221.488 175.758L215.467 179.834C215.171 180.035 215.094 180.437 215.294 180.733C215.495 181.029 215.897 181.107 216.193 180.907Z" fill="white" stroke="#263238" stroke-width="0.679397" stroke-miterlimit="10" stroke-linecap="round"/>
<path d="M217.58 187.787C218.325 188.887 219.82 189.175 220.92 188.43C222.02 187.685 222.308 186.19 221.563 185.09C220.818 183.99 219.323 183.702 218.223 184.447C217.123 185.191 216.835 186.687 217.58 187.787Z" fill="#263238" stroke="#263238" stroke-width="0.679397" stroke-miterlimit="10" stroke-linecap="round"/>
<path d="M219.636 185.991L225.657 181.915C225.953 181.714 226.03 181.312 225.83 181.016C225.629 180.72 225.227 180.642 224.931 180.842L218.91 184.919C218.614 185.12 218.536 185.522 218.737 185.818C218.937 186.114 219.34 186.192 219.636 185.991Z" fill="white" stroke="#263238" stroke-width="0.679397" stroke-miterlimit="10" stroke-linecap="round"/>
<path d="M220.642 187.475L226.662 183.399C226.958 183.198 227.036 182.796 226.835 182.5C226.635 182.204 226.232 182.126 225.936 182.327L219.916 186.403C219.62 186.604 219.542 187.006 219.743 187.302C219.942 187.599 220.346 187.676 220.642 187.475Z" fill="white" stroke="#263238" stroke-width="0.679397" stroke-miterlimit="10" stroke-linecap="round"/>
<path d="M222.028 194.356C222.773 195.455 224.268 195.743 225.368 194.998C226.468 194.253 226.756 192.759 226.011 191.659C225.266 190.559 223.771 190.271 222.671 191.016C221.571 191.761 221.283 193.256 222.028 194.356Z" fill="#263238" stroke="#263238" stroke-width="0.679397" stroke-miterlimit="10" stroke-linecap="round"/>
<path d="M224.085 192.56L230.105 188.483C230.401 188.283 230.479 187.88 230.279 187.584C230.078 187.288 229.676 187.211 229.38 187.411L223.359 191.488C223.063 191.688 222.985 192.091 223.186 192.387C223.386 192.683 223.789 192.76 224.085 192.56Z" fill="white" stroke="#263238" stroke-width="0.679397" stroke-miterlimit="10" stroke-linecap="round"/>
<path d="M225.09 194.044L231.11 189.968C231.406 189.767 231.484 189.365 231.283 189.069C231.083 188.773 230.68 188.695 230.384 188.895L224.364 192.972C224.068 193.173 223.99 193.575 224.191 193.871C224.391 194.167 224.794 194.245 225.09 194.044Z" fill="white" stroke="#263238" stroke-width="0.679397" stroke-miterlimit="10" stroke-linecap="round"/>
<g opacity="0.3">
<path d="M72.3937 117.932L73.8893 116.919" stroke="black" stroke-width="0.679397" stroke-miterlimit="10" stroke-linecap="round"/>
<path d="M75.3851 115.906L76.881 114.894" stroke="black" stroke-width="0.679397" stroke-miterlimit="10" stroke-linecap="round"/>
<path d="M58.8319 130.119L60.3275 129.106" stroke="black" stroke-width="0.679397" stroke-miterlimit="10" stroke-linecap="round"/>
<path d="M61.8231 128.093L63.3188 127.081" stroke="black" stroke-width="0.679397" stroke-miterlimit="10" stroke-linecap="round"/>
<path d="M64.8146 126.068L66.3102 125.056" stroke="black" stroke-width="0.679397" stroke-miterlimit="10" stroke-linecap="round"/>
<path d="M67.8058 124.043L69.3014 123.03" stroke="black" stroke-width="0.679397" stroke-miterlimit="10" stroke-linecap="round"/>
<path d="M70.797 122.017L72.2929 121.005" stroke="black" stroke-width="0.679397" stroke-miterlimit="10" stroke-linecap="round"/>
<path d="M73.7887 119.992L75.2843 118.979" stroke="black" stroke-width="0.679397" stroke-miterlimit="10" stroke-linecap="round"/>
<path d="M76.7804 117.966L78.276 116.953" stroke="black" stroke-width="0.679397" stroke-miterlimit="10" stroke-linecap="round"/>
<path d="M60.2272 132.18L61.7228 131.167" stroke="black" stroke-width="0.679397" stroke-miterlimit="10" stroke-linecap="round"/>
<path d="M63.2184 130.154L64.714 129.141" stroke="black" stroke-width="0.679397" stroke-miterlimit="10" stroke-linecap="round"/>
<path d="M66.2103 128.128L67.7062 127.116" stroke="black" stroke-width="0.679397" stroke-miterlimit="10" stroke-linecap="round"/>
<path d="M69.2011 126.103L70.6973 125.09" stroke="black" stroke-width="0.679397" stroke-miterlimit="10" stroke-linecap="round"/>
<path d="M72.1933 124.077L73.6889 123.065" stroke="black" stroke-width="0.679397" stroke-miterlimit="10" stroke-linecap="round"/>
<path d="M75.1842 122.052L76.6798 121.039" stroke="black" stroke-width="0.679397" stroke-miterlimit="10" stroke-linecap="round"/>
<path d="M78.1757 120.027L79.6713 119.014" stroke="black" stroke-width="0.679397" stroke-miterlimit="10" stroke-linecap="round"/>
<path d="M61.6217 134.24L63.1173 133.227" stroke="black" stroke-width="0.679397" stroke-miterlimit="10" stroke-linecap="round"/>
<path d="M64.6132 132.215L66.1094 131.202" stroke="black" stroke-width="0.679397" stroke-miterlimit="10" stroke-linecap="round"/>
<path d="M67.6049 130.189L69.1005 129.176" stroke="black" stroke-width="0.679397" stroke-miterlimit="10" stroke-linecap="round"/>
<path d="M70.5961 128.163L72.0917 127.151" stroke="black" stroke-width="0.679397" stroke-miterlimit="10" stroke-linecap="round"/>
<path d="M73.588 126.138L75.0837 125.125" stroke="black" stroke-width="0.679397" stroke-miterlimit="10" stroke-linecap="round"/>
<path d="M76.5788 124.113L78.0744 123.1" stroke="black" stroke-width="0.679397" stroke-miterlimit="10" stroke-linecap="round"/>
<path d="M79.5702 122.087L81.0661 121.075" stroke="black" stroke-width="0.679397" stroke-miterlimit="10" stroke-linecap="round"/>
<path d="M63.0175 136.3L64.5131 135.287" stroke="black" stroke-width="0.679397" stroke-miterlimit="10" stroke-linecap="round"/>
<path d="M66.0089 134.274L67.5046 133.261" stroke="black" stroke-width="0.679397" stroke-miterlimit="10" stroke-linecap="round"/>
<path d="M69.0001 132.249L70.4958 131.236" stroke="black" stroke-width="0.679397" stroke-miterlimit="10" stroke-linecap="round"/>
<path d="M71.9914 130.224L73.487 129.211" stroke="black" stroke-width="0.679397" stroke-miterlimit="10" stroke-linecap="round"/>
<path d="M74.9828 128.198L76.4787 127.186" stroke="black" stroke-width="0.679397" stroke-miterlimit="10" stroke-linecap="round"/>
<path d="M77.9743 126.173L79.4699 125.16" stroke="black" stroke-width="0.679397" stroke-miterlimit="10" stroke-linecap="round"/>
<path d="M80.9655 124.147L82.4611 123.135" stroke="black" stroke-width="0.679397" stroke-miterlimit="10" stroke-linecap="round"/>
<path d="M55.6061 125.355L57.1017 124.342" stroke="black" stroke-width="0.679397" stroke-miterlimit="10" stroke-linecap="round"/>
<path d="M58.5973 123.329L60.0929 122.317" stroke="black" stroke-width="0.679397" stroke-miterlimit="10" stroke-linecap="round"/>
<path d="M61.5887 121.304L63.0846 120.291" stroke="black" stroke-width="0.679397" stroke-miterlimit="10" stroke-linecap="round"/>
<path d="M64.5802 119.279L66.0758 118.266" stroke="black" stroke-width="0.679397" stroke-miterlimit="10" stroke-linecap="round"/>
<path d="M67.5712 117.253L69.0668 116.24" stroke="black" stroke-width="0.679397" stroke-miterlimit="10" stroke-linecap="round"/>
<path d="M70.5626 115.228L72.0585 114.215" stroke="black" stroke-width="0.679397" stroke-miterlimit="10" stroke-linecap="round"/>
<path d="M73.5541 113.203L75.0497 112.19" stroke="black" stroke-width="0.679397" stroke-miterlimit="10" stroke-linecap="round"/>
<path d="M75.9633 113.261L56.2616 126.601" stroke="black" stroke-width="0.679397" stroke-miterlimit="10" stroke-linecap="round"/>
<path d="M59.7856 118.768L67.3831 113.625" stroke="black" stroke-width="0.679397" stroke-miterlimit="10" stroke-linecap="round"/>
<path d="M60.413 146.507L144.236 89.7518" stroke="black" stroke-width="0.679397" stroke-miterlimit="10" stroke-linecap="round"/>
<path d="M64.9836 153.258L148.807 96.5026" stroke="black" stroke-width="0.679397" stroke-miterlimit="10" stroke-linecap="round"/>
<path d="M69.5546 160.01L153.378 103.254" stroke="black" stroke-width="0.679397" stroke-miterlimit="10" stroke-linecap="round"/>
<path d="M74.1259 166.76L157.949 110.005" stroke="black" stroke-width="0.679397" stroke-miterlimit="10" stroke-linecap="round"/>
<path d="M78.6965 173.511L162.52 116.755" stroke="black" stroke-width="0.679397" stroke-miterlimit="10" stroke-linecap="round"/>
<path d="M83.2673 180.262L167.091 123.506" stroke="black" stroke-width="0.679397" stroke-miterlimit="10" stroke-linecap="round"/>
<path d="M87.8383 187.013L171.662 130.257" stroke="black" stroke-width="0.679397" stroke-miterlimit="10" stroke-linecap="round"/>
<path d="M92.4094 193.763L176.233 137.008" stroke="black" stroke-width="0.679397" stroke-miterlimit="10" stroke-linecap="round"/>
<path d="M96.9804 200.514L180.804 143.759" stroke="black" stroke-width="0.679397" stroke-miterlimit="10" stroke-linecap="round"/>
<path d="M101.551 207.266L185.375 150.51" stroke="black" stroke-width="0.679397" stroke-miterlimit="10" stroke-linecap="round"/>
<path d="M106.122 214.016L189.945 157.261" stroke="black" stroke-width="0.679397" stroke-miterlimit="10" stroke-linecap="round"/>
<path d="M110.693 220.767L194.516 164.012" stroke="black" stroke-width="0.679397" stroke-miterlimit="10" stroke-linecap="round"/>
<path d="M115.264 227.518L199.087 170.762" stroke="black" stroke-width="0.679397" stroke-miterlimit="10" stroke-linecap="round"/>
<path d="M126.12 243.551L209.943 186.795" stroke="black" stroke-width="0.679397" stroke-miterlimit="10" stroke-linecap="round"/>
<path d="M129.738 248.895L213.562 192.14" stroke="black" stroke-width="0.679397" stroke-miterlimit="10" stroke-linecap="round"/>
<path d="M133.357 254.24L217.18 197.484" stroke="black" stroke-width="0.679397" stroke-miterlimit="10" stroke-linecap="round"/>
</g>
<path d="M76.6254 147.427C76.6254 147.427 72.8487 159.42 76.6871 156.001C80.5256 152.582 82.5149 140.979 82.9226 145.215C83.3296 149.452 84.5725 151.893 85.4896 148.4C86.4064 144.907 87.3411 143.865 87.5407 145.371C87.7397 146.877 89.0469 145.172 89.0469 145.172C89.0469 145.172 92.123 140.627 92.3226 142.133C92.5216 143.639 92.2404 143.83 93.3659 143.067C94.4908 142.305 97.0229 140.592 97.0229 140.592C97.0229 140.592 96.9322 141.063 100.307 138.778C103.683 136.492 104.708 134.978 106.396 133.834" stroke="#263238" stroke-width="0.679397" stroke-miterlimit="10" stroke-linecap="round"/>
<path d="M78.5098 160.51C78.5098 160.51 82.7026 153.979 83.8366 154.442C84.9706 154.904 84.6071 156.792 86.9485 154.796C89.2899 152.801 90.6787 149.399 91.4401 150.524C92.2022 151.649 93.5088 149.944 93.5088 149.944L94.9152 148.992C94.9152 148.992 97.6369 147.559 98.2907 146.706C98.9438 145.854 97.8745 141.245 99.8964 147.26C101.918 153.275 97.2738 149.446 101.666 144.421C106.059 139.396 108.335 141.546 108.335 141.546C108.335 141.546 108.898 141.165 109.832 140.123C110.767 139.079 111.131 137.193 112.736 137.746C114.342 138.3 114.688 133.964 114.688 133.964C114.688 133.964 115.722 133.673 117.228 133.474C118.734 133.275 119.578 132.704 119.578 132.704C119.578 132.704 121.175 132.033 122.3 131.271C123.424 130.509 123.788 128.622 125.013 128.613C126.238 128.605 125.731 123.615 127.372 129.068C129.013 134.52 125.183 139.165 125.719 135.109C126.255 131.054 127.645 127.652 129.133 125.003C130.622 122.355 131.375 122.255 132.418 123.189C133.461 124.124 134.024 123.743 134.958 122.7C135.893 121.657 134.668 121.666 135.893 121.657C137.118 121.648 137.399 121.458 138.243 120.886C139.086 120.315 136.01 124.859 139.086 120.315C142.162 115.77 138.881 104.865 139.306 111.551C139.731 118.238 141.246 119.263 143.868 117.077" stroke="#263238" stroke-width="0.679397" stroke-miterlimit="10" stroke-linecap="round"/>
<path d="M83.9503 170.364C83.9503 170.364 87.9266 159.877 87.0738 159.224C86.2211 158.571 84.352 160.656 84.0969 164.522C83.8423 168.386 85.8284 169.503 89.1867 164.768C92.544 160.033 87.4077 166.382 92.1988 164.369C96.9892 162.356 96.9631 158.682 97.5347 159.525C98.1062 160.369 96.509 161.041 100.075 159.036C103.64 157.032 101.092 156.297 105.038 154.855C108.985 153.413 110.102 151.427 110.102 151.427L112.352 149.903C112.352 149.903 107.66 152.669 113.567 148.67C119.474 144.67 118.561 135.444 117.471 141.105C116.381 146.765 118.458 147.41 120.791 144.19C123.123 140.97 123.123 140.97 123.123 140.97C123.123 140.97 125.057 134.737 125.954 141.515C126.85 148.292 122.587 145.025 128.195 138.766C133.803 132.507 134.955 135.42 136.824 133.333C138.694 131.247 137.17 128.997 139.628 130.204C142.087 131.411 141.706 130.849 143.956 129.325C146.206 127.802 145.454 127.901 147.423 126.568C149.392 125.235 149.673 125.044 151.642 123.711" stroke="#263238" stroke-width="0.679397" stroke-miterlimit="10" stroke-linecap="round"/>
<path d="M95.5034 191.668C95.5034 191.668 99.0431 185.99 97.5925 180.818C96.1419 175.646 95.0697 183.757 98.6969 190.326C102.324 196.896 95.5765 188.747 101.565 183.051C107.554 177.355 101.864 185.31 103.188 186.054C104.513 186.798 108.134 179.423 108.805 181.02C109.476 182.616 110.982 182.417 113.116 177.691C115.249 172.965 109.714 176.302 110.484 178.652C111.255 181.002 112.562 179.297 116.21 175.596C119.858 171.895 116.591 176.158 119.122 174.444C121.653 172.73 125.176 164.602 125.102 167.524C125.029 170.445 126.826 171.28 127.47 169.203C128.115 167.125 129.113 161.936 130.066 163.343C131.018 164.749 130.734 166.172 130.734 166.172" stroke="#263238" stroke-width="0.679397" stroke-miterlimit="10" stroke-linecap="round"/>
<path opacity="0.3" d="M33.8891 143.005C33.7276 142.936 33.5394 142.874 33.3218 142.821C32.8863 142.715 32.3327 142.652 31.6275 142.668C31.5309 142.671 31.4179 142.682 31.2976 142.697C31.2725 142.7 31.2461 142.704 31.2198 142.708C28.3309 143.121 19.5302 146.815 16.5833 148.075C15.0642 148.725 14.1649 150.334 14.465 151.959C14.4701 151.985 14.4746 152.011 14.48 152.037C15.0022 154.664 33.5971 216.752 33.5971 216.752C33.5971 216.752 34.1505 218.086 34.995 220.105C35.3706 221.002 35.8036 222.034 36.2718 223.145C36.3887 223.422 36.5079 223.705 36.629 223.991C36.8711 224.564 37.1201 225.153 37.3737 225.751C38.2615 227.843 39.2025 230.044 40.0743 232.048C40.697 233.479 41.2847 234.809 41.792 235.928C42.1977 236.822 42.5527 237.582 42.833 238.147C43.6744 239.846 44.3287 241.14 44.9485 242.06C45.9812 243.592 46.9151 244.082 48.4514 243.665C48.835 243.561 49.3831 243.394 50.0415 243.179C50.173 243.135 50.3092 243.091 50.4499 243.044C51.0105 242.857 51.6351 242.64 52.2975 242.402C52.4629 242.342 52.6311 242.281 52.8007 242.219C53.31 242.033 53.8363 241.835 54.3685 241.629C54.7231 241.491 55.0803 241.351 55.4366 241.207C55.7929 241.063 56.149 240.917 56.5 240.769C57.2031 240.472 57.8888 240.169 58.5309 239.866C59.6141 239.355 60.5693 238.845 61.2738 238.371C61.2751 238.371 61.2761 238.369 61.2774 238.369C61.3021 238.352 61.3307 238.334 61.3548 238.317C61.4317 238.265 61.5019 238.213 61.5721 238.161C61.5815 238.154 61.5921 238.147 61.6014 238.14C61.6842 238.078 61.761 238.017 61.8342 237.957C61.8481 237.945 61.8645 237.933 61.8784 237.921C61.9611 237.851 62.0367 237.782 62.1041 237.714C62.2315 237.586 62.3521 237.462 62.4667 237.341C62.5809 237.22 62.6896 237.102 62.7926 236.987C63.3064 236.412 63.6766 235.908 63.9463 235.428C64.0545 235.236 64.1465 235.048 64.2255 234.86C64.3048 234.673 64.3702 234.487 64.4261 234.298C64.4536 234.204 64.4795 234.11 64.5023 234.014C64.5943 233.631 64.6512 233.234 64.6947 232.799C64.6954 232.796 64.6946 232.789 64.695 232.785C64.6994 232.733 64.7009 232.668 64.6974 232.586C64.6962 232.553 64.6909 232.509 64.6886 232.472C64.684 232.41 64.6809 232.35 64.6731 232.274C64.668 232.223 64.6596 232.161 64.6526 232.104C64.6433 232.028 64.6358 231.956 64.6238 231.869C64.6151 231.806 64.6032 231.731 64.5934 231.662C64.58 231.569 64.5666 231.479 64.5502 231.376C64.5383 231.301 64.5241 231.216 64.5107 231.137C64.493 231.028 64.4755 230.921 64.455 230.803C64.4391 230.711 64.4208 230.611 64.4034 230.514C64.3826 230.397 64.3624 230.283 64.3393 230.159C64.3198 230.055 64.2983 229.943 64.2783 229.834C64.2535 229.702 64.2289 229.572 64.202 229.434C64.1805 229.323 64.1572 229.206 64.1354 229.092C64.1073 228.949 64.0801 228.809 64.0503 228.661C64.0247 228.534 63.998 228.401 63.9715 228.27C63.9407 228.12 63.9112 227.971 63.8793 227.816C63.8519 227.683 63.8234 227.546 63.7952 227.41C63.7618 227.25 63.7287 227.09 63.6938 226.925C63.6639 226.782 63.6324 226.635 63.6016 226.489C63.5667 226.324 63.5315 226.159 63.4955 225.99C63.4626 225.836 63.4285 225.679 63.3941 225.521C63.3572 225.35 63.3202 225.179 63.2827 225.005C63.2719 224.954 63.2613 224.905 63.2495 224.853C63.2283 224.755 63.2053 224.653 63.1838 224.555C63.1419 224.363 63.1001 224.172 63.057 223.977C63.024 223.828 62.9904 223.677 62.9569 223.526C62.9138 223.33 62.8702 223.135 62.8259 222.937C62.7912 222.78 62.7555 222.623 62.7202 222.465C62.6762 222.271 62.6331 222.077 62.5885 221.881C62.5497 221.709 62.5109 221.537 62.4715 221.364C62.4292 221.178 62.3872 220.993 62.3443 220.806C62.3037 220.627 62.2622 220.448 62.2214 220.268C62.1784 220.083 62.1365 219.898 62.0932 219.711C62.0736 219.627 62.054 219.542 62.0348 219.456C62.0123 219.357 61.9889 219.258 61.9656 219.159C61.9232 218.976 61.8814 218.795 61.8391 218.612C61.7967 218.431 61.7549 218.249 61.7125 218.068C61.6681 217.879 61.6245 217.691 61.5804 217.503C61.5377 217.321 61.495 217.139 61.4526 216.958C61.4104 216.779 61.3683 216.602 61.3267 216.424C61.2808 216.231 61.2352 216.038 61.1896 215.845C61.1488 215.674 61.1087 215.504 61.0686 215.335C61.0258 215.156 60.983 214.977 60.9409 214.8C60.8963 214.615 60.8524 214.43 60.8079 214.246C60.7651 214.069 60.7225 213.893 60.6806 213.718C60.6419 213.556 60.6028 213.397 60.5643 213.237C60.5354 213.118 60.5062 212.996 60.4772 212.878C60.4604 212.81 60.4442 212.744 60.4274 212.675C60.3895 212.518 60.3515 212.365 60.3139 212.21C60.2708 212.034 60.2279 211.859 60.1856 211.686C60.1477 211.533 60.1109 211.382 60.0735 211.231C60.0295 211.052 59.9848 210.872 59.9413 210.697C59.9103 210.573 59.8807 210.453 59.8499 210.331C59.816 210.196 59.7818 210.057 59.7491 209.925C59.736 209.872 59.7235 209.824 59.711 209.773C59.6809 209.652 59.6519 209.536 59.6219 209.418C59.5787 209.247 59.5354 209.075 59.4942 208.91C59.4637 208.791 59.4347 208.676 59.4047 208.559C59.3643 208.401 59.3237 208.242 59.2847 208.089C59.2583 207.985 59.2323 207.887 59.2065 207.786C59.1658 207.628 59.1254 207.47 59.086 207.32C59.0642 207.237 59.0444 207.16 59.0231 207.08C58.9832 206.928 58.943 206.775 58.9055 206.632C58.8845 206.553 58.8655 206.481 58.8445 206.405C58.8083 206.27 58.7724 206.134 58.7389 206.01C58.7365 206.002 58.7339 205.991 58.7316 205.983C58.6857 205.814 58.6413 205.651 58.6001 205.502C58.4079 204.811 57.8927 203.329 57.1379 201.264C56.8548 200.49 56.5387 199.634 56.1929 198.707C54.9253 195.308 53.2649 190.956 51.4294 186.193C51.2626 185.759 51.0943 185.323 50.9245 184.883C43.971 166.867 34.8589 143.823 34.8589 143.823C34.8589 143.823 34.6976 143.346 33.8891 143.005Z" fill="black"/>
<path d="M30.3072 217.519C30.3072 217.519 37.2994 234.384 39.5431 238.914C41.7867 243.445 42.7029 245.098 45.1615 244.432C47.6198 243.765 56.7797 240.526 58.8139 238.481C60.8487 236.435 61.2295 235.306 61.4054 233.566C61.5807 231.825 56.8486 211.798 55.3098 206.27C53.7717 200.741 31.5683 144.592 31.5683 144.592C31.5683 144.592 31.1571 143.368 28.3373 143.436C25.9831 143.493 16.394 147.516 13.2931 148.843C11.7739 149.493 10.874 151.102 11.1747 152.727C11.1798 152.753 11.1843 152.779 11.1897 152.805C11.7129 155.431 30.3072 217.519 30.3072 217.519Z" fill="#C6FF00"/>
<mask id="mask0_374_226" style="mask-type:luminance" maskUnits="userSpaceOnUse" x="11" y="143" width="51" height="102">
<path d="M30.3072 217.519C30.3072 217.519 37.2994 234.384 39.5431 238.914C41.7867 243.445 42.7029 245.098 45.1615 244.432C47.6198 243.765 56.7797 240.526 58.8139 238.481C60.8487 236.435 61.2295 235.306 61.4054 233.566C61.5807 231.825 56.8486 211.798 55.3098 206.27C53.7717 200.741 31.5683 144.592 31.5683 144.592C31.5683 144.592 31.1571 143.368 28.3373 143.436C25.9831 143.493 16.394 147.516 13.2931 148.843C11.7739 149.493 10.874 151.102 11.1747 152.727C11.1798 152.753 11.1843 152.779 11.1897 152.805C11.7129 155.431 30.3072 217.519 30.3072 217.519Z" fill="white"/>
</mask>
<g mask="url(#mask0_374_226)">
<path opacity="0.5" d="M57.628 239.366C58.1294 239.056 58.5387 238.757 58.8135 238.48C60.8483 236.435 61.2291 235.306 61.4043 233.565C61.5796 231.825 56.8475 211.797 55.3094 206.269C53.7712 200.741 31.5679 144.591 31.5679 144.591C31.5679 144.591 31.157 143.368 28.3368 143.436C28.1249 143.441 27.8517 143.479 27.5324 143.543C32.9927 156.424 38.3617 172.245 43.7743 191.491C48.8983 209.708 55.3358 231.601 57.628 239.366Z" fill="black"/>
</g>
<path d="M30.3072 217.519C30.3072 217.519 37.2994 234.384 39.5431 238.914C41.7867 243.445 42.7029 245.098 45.1615 244.432C47.6198 243.765 56.7797 240.526 58.8139 238.481C60.8487 236.435 61.2295 235.306 61.4054 233.566C61.5807 231.825 56.8486 211.798 55.3098 206.27C53.7717 200.741 31.5683 144.592 31.5683 144.592C31.5683 144.592 31.1571 143.368 28.3373 143.436C25.9831 143.493 16.394 147.516 13.2931 148.843C11.7739 149.493 10.874 151.102 11.1747 152.727C11.1798 152.753 11.1843 152.779 11.1897 152.805C11.7129 155.431 30.3072 217.519 30.3072 217.519Z" stroke="#263238" stroke-width="0.707811" stroke-miterlimit="10" stroke-linecap="round" stroke-linejoin="round"/>
<path d="M49.0942 211.001C46.3734 212.316 34.0004 216.596 31.998 217.07C31.332 217.228 30.7503 217.325 30.2677 217.387C30.2915 217.467 30.3071 217.519 30.3071 217.519C30.3071 217.519 37.2993 234.384 39.5429 238.914C41.7865 243.445 42.7027 245.098 45.1613 244.432C47.6197 243.765 56.7796 240.526 58.8138 238.481C60.8486 236.435 61.2294 235.306 61.4046 233.566C61.5754 231.873 57.1004 212.868 55.4409 206.75C53.6969 209.034 51.335 209.918 49.0942 211.001Z" fill="#263238"/>
<mask id="mask1_374_226" style="mask-type:luminance" maskUnits="userSpaceOnUse" x="30" y="206" width="32" height="39">
<path d="M49.0942 211.001C46.3734 212.316 34.0004 216.596 31.998 217.07C31.332 217.228 30.7503 217.325 30.2677 217.387C30.2915 217.467 30.3071 217.519 30.3071 217.519C30.3071 217.519 37.2993 234.384 39.5429 238.914C41.7865 243.445 42.7027 245.098 45.1613 244.432C47.6197 243.765 56.7796 240.526 58.8138 238.481C60.8486 236.435 61.2294 235.306 61.4046 233.566C61.5754 231.873 57.1004 212.868 55.4409 206.75C53.6969 209.034 51.335 209.918 49.0942 211.001Z" fill="white"/>
</mask>
<g mask="url(#mask1_374_226)">
<path opacity="0.5" d="M57.628 239.366C58.1294 239.056 58.5387 238.757 58.8135 238.48C60.8483 236.435 61.2291 235.306 61.4043 233.565C61.5796 231.825 56.8475 211.797 55.3094 206.269C53.7712 200.741 31.5679 144.591 31.5679 144.591C31.5679 144.591 31.157 143.368 28.3368 143.435C28.1249 143.441 27.8517 143.479 27.5324 143.543C32.9927 156.423 38.3617 172.245 43.7743 191.491C48.8983 209.708 55.3358 231.601 57.628 239.366Z" fill="black"/>
</g>
<mask id="mask2_374_226" style="mask-type:luminance" maskUnits="userSpaceOnUse" x="30" y="206" width="32" height="39">
<path d="M49.0942 211.001C46.3734 212.316 34.0004 216.596 31.998 217.07C31.332 217.228 30.7503 217.325 30.2677 217.387C30.2915 217.467 30.3071 217.519 30.3071 217.519C30.3071 217.519 37.2993 234.384 39.5429 238.914C41.7865 243.445 42.7027 245.098 45.1613 244.432C47.6197 243.765 56.7796 240.526 58.8138 238.481C60.8486 236.435 61.2294 235.306 61.4046 233.566C61.5754 231.873 57.1004 212.868 55.4409 206.75C53.6969 209.034 51.335 209.918 49.0942 211.001Z" fill="white"/>
</mask>
<g mask="url(#mask2_374_226)">
<path opacity="0.26" d="M49.842 212.511C52.3568 211.214 53.8853 209.881 54.7713 209.182" stroke="white" stroke-width="0.707811" stroke-miterlimit="10" stroke-linecap="round" stroke-linejoin="round"/>
</g>
<mask id="mask3_374_226" style="mask-type:luminance" maskUnits="userSpaceOnUse" x="30" y="206" width="32" height="39">
<path d="M49.0942 211.001C46.3734 212.316 34.0004 216.596 31.998 217.07C31.332 217.228 30.7503 217.325 30.2677 217.387C30.2915 217.467 30.3071 217.519 30.3071 217.519C30.3071 217.519 37.2993 234.384 39.5429 238.914C41.7865 243.445 42.7027 245.098 45.1613 244.432C47.6197 243.765 56.7796 240.526 58.8138 238.481C60.8486 236.435 61.2294 235.306 61.4046 233.566C61.5754 231.873 57.1004 212.868 55.4409 206.75C53.6969 209.034 51.335 209.918 49.0942 211.001Z" fill="white"/>
</mask>
<g mask="url(#mask3_374_226)">
<path d="M31.9692 218.633C31.9692 218.633 47.3538 213.794 49.8417 212.511" stroke="white" stroke-width="0.707811" stroke-miterlimit="10" stroke-linecap="round" stroke-linejoin="round"/>
</g>
<path d="M49.0942 211.001C46.3734 212.316 34.0004 216.596 31.998 217.07C31.332 217.228 30.7503 217.325 30.2677 217.387C30.2915 217.467 30.3071 217.519 30.3071 217.519C30.3071 217.519 37.2993 234.384 39.5429 238.914C41.7865 243.445 42.7027 245.098 45.1613 244.432C47.6197 243.765 56.7796 240.526 58.8138 238.481C60.8486 236.435 61.2294 235.306 61.4046 233.566C61.5754 231.873 57.1004 212.868 55.4409 206.75C53.6969 209.034 51.335 209.918 49.0942 211.001Z" stroke="#263238" stroke-width="0.707811" stroke-miterlimit="10" stroke-linecap="round" stroke-linejoin="round"/>
<path d="M194.459 61.7668C201.509 52.4895 199.704 39.2532 190.427 32.2028C181.15 25.1524 167.913 26.9576 160.863 36.2349C153.812 45.5122 155.618 58.7485 164.895 65.7989C174.172 72.8493 187.409 71.0441 194.459 61.7668Z" fill="#263238" stroke="#263238" stroke-width="0.491681" stroke-miterlimit="10" stroke-linecap="round" stroke-linejoin="round"/>
<path d="M195.408 41.2119C191.776 30.1402 179.856 24.1091 168.784 27.741C157.713 31.3729 151.682 43.2925 155.313 54.3642C158.945 65.4358 170.865 71.467 181.937 67.835C193.008 64.2031 199.039 52.2835 195.408 41.2119Z" fill="white" stroke="#263238" stroke-width="0.491681" stroke-miterlimit="10" stroke-linecap="round" stroke-linejoin="round"/>
<path d="M193.618 42.5587C190.738 32.4668 180.223 26.6204 170.131 29.5003C160.039 32.3802 154.192 42.896 157.072 52.9879C159.952 63.0798 170.468 68.9262 180.56 66.0463C190.652 63.1663 196.498 52.6506 193.618 42.5587Z" fill="#263238" stroke="#263238" stroke-width="0.491681" stroke-miterlimit="10" stroke-linecap="round" stroke-linejoin="round"/>
<path d="M167.243 35.8101C167.243 35.8101 163.11 31.9641 158.226 30.2108C153.342 28.4578 138.824 32.6986 138.824 32.6986C138.824 32.6986 142.899 33.9643 147.993 36.7774C153.088 39.5903 167.866 44.5007 167.866 44.5007C167.866 44.5007 160.875 42.5823 156.148 44.2329C151.42 45.8835 141.16 53.6218 140.449 53.9575C139.738 54.2929 145.61 53.8407 149.949 53.8229C154.287 53.8046 168.706 48.7413 168.706 48.7413C168.706 48.7413 163.563 53.196 160.204 56.5198C156.845 59.8429 157.973 72.0621 157.973 72.0621C157.973 72.0621 160.951 64.8613 164.897 61.5513C168.841 58.2407 174.235 53.0877 174.235 53.0877C174.235 53.0877 172.33 59.4925 172.835 63.0214C173.341 66.5503 177.407 73.3262 177.407 73.3262C177.407 73.3262 176.409 65.6824 177.786 61.8452C179.164 58.0075 179.883 52.162 179.883 52.162C179.883 52.162 182.773 53.9867 186.57 57.1219C190.367 60.2571 194.349 65.6241 194.349 65.6241C194.349 65.6241 194.299 57.533 192.497 54.3261C190.694 51.1193 184.343 46.8709 184.343 46.8709C184.343 46.8709 185.931 44.0934 190.157 43.8381C194.384 43.5828 203.343 46.6015 203.343 46.6015C203.343 46.6015 198.23 39.45 194.406 37.4867C190.582 35.5234 179.942 39.3837 179.942 39.3837C179.942 39.3837 184.066 33.3811 187.285 30.9929C190.506 28.6044 196.029 28.027 196.029 28.027C196.029 28.027 186.999 23.0136 182.508 24.5526C178.018 26.0914 174.749 35.7481 174.749 35.7481C174.749 35.7481 172.816 27.9659 172.172 25.3716C171.527 22.7779 167.784 17.2988 167.784 17.2988C167.784 17.2988 165.847 19.9511 164.891 25.9088C163.933 31.8655 167.243 35.8101 167.243 35.8101Z" fill="#C6FF00"/>
<path opacity="0.5" d="M167.243 35.8101C167.243 35.8101 163.11 31.9641 158.226 30.2108C153.342 28.4578 138.824 32.6986 138.824 32.6986C138.824 32.6986 142.899 33.9643 147.993 36.7774C153.088 39.5903 167.866 44.5007 167.866 44.5007C167.866 44.5007 160.875 42.5823 156.148 44.2329C151.42 45.8835 141.16 53.6218 140.449 53.9575C139.738 54.2929 145.61 53.8407 149.949 53.8229C154.287 53.8046 168.706 48.7413 168.706 48.7413C168.706 48.7413 163.563 53.196 160.204 56.5198C156.845 59.8429 157.973 72.0621 157.973 72.0621C157.973 72.0621 160.951 64.8613 164.897 61.5513C168.841 58.2407 174.235 53.0877 174.235 53.0877C174.235 53.0877 172.33 59.4925 172.835 63.0214C173.341 66.5503 177.407 73.3262 177.407 73.3262C177.407 73.3262 176.409 65.6824 177.786 61.8452C179.164 58.0075 179.883 52.162 179.883 52.162C179.883 52.162 182.773 53.9867 186.57 57.1219C190.367 60.2571 194.349 65.6241 194.349 65.6241C194.349 65.6241 194.299 57.533 192.497 54.3261C190.694 51.1193 184.343 46.8709 184.343 46.8709C184.343 46.8709 185.931 44.0934 190.157 43.8381C194.384 43.5828 203.343 46.6015 203.343 46.6015C203.343 46.6015 198.23 39.45 194.406 37.4867C190.582 35.5234 179.942 39.3837 179.942 39.3837C179.942 39.3837 184.066 33.3811 187.285 30.9929C190.506 28.6044 196.029 28.027 196.029 28.027C196.029 28.027 186.999 23.0136 182.508 24.5526C178.018 26.0914 174.749 35.7481 174.749 35.7481C174.749 35.7481 172.816 27.9659 172.172 25.3716C171.527 22.7779 167.784 17.2988 167.784 17.2988C167.784 17.2988 165.847 19.9511 164.891 25.9088C163.933 31.8655 167.243 35.8101 167.243 35.8101Z" fill="black"/>
<path d="M168.509 26.3921C168.353 25.6331 168.214 24.8695 168.097 24.1054" stroke="#263238" stroke-width="0.24584" stroke-miterlimit="10" stroke-linecap="round" stroke-linejoin="round"/>
<path d="M152.675 33.8597C155.66 34.432 159.487 35.3522 161.831 36.6247C166.116 38.9502 174.909 44.0755 174.909 44.0755C174.909 44.0755 171.013 36.7226 168.944 28.3122" stroke="#263238" stroke-width="0.24584" stroke-miterlimit="10" stroke-linecap="round" stroke-linejoin="round"/>
<path d="M148.31 33.1503C148.31 33.1503 149.21 33.2622 150.58 33.487" stroke="#263238" stroke-width="0.24584" stroke-miterlimit="10" stroke-linecap="round" stroke-linejoin="round"/>
<path d="M174.91 44.0755C174.91 44.0755 179.668 30.8187 183.125 28.318C186.582 25.8177 191.243 27.0967 191.243 27.0967" stroke="#263238" stroke-width="0.24584" stroke-miterlimit="10" stroke-linecap="round" stroke-linejoin="round"/>
<path d="M162.362 59.204C160.83 61.6352 161.005 62.5165 161.005 62.5165" stroke="#263238" stroke-width="0.24584" stroke-miterlimit="10" stroke-linecap="round" stroke-linejoin="round"/>
<path d="M198.498 43.0903C198.498 43.0903 195.398 40.2055 189.637 40.8949C183.877 41.5841 175.943 45.0374 175.943 45.0374C175.943 45.0374 166.667 53.8019 163.541 57.5683" stroke="#263238" stroke-width="0.24584" stroke-miterlimit="10" stroke-linecap="round" stroke-linejoin="round"/>
<path d="M170.517 45.9421C173.529 45.4628 175.943 45.0374 175.943 45.0374" stroke="#263238" stroke-width="0.24584" stroke-miterlimit="10" stroke-linecap="round" stroke-linejoin="round"/>
<path d="M151.831 49.6085C154.482 48.5484 157.962 47.3362 160.182 47.2561C161.99 47.1914 165.396 46.7293 168.581 46.2434" stroke="#263238" stroke-width="0.24584" stroke-miterlimit="10" stroke-linecap="round" stroke-linejoin="round"/>
<path d="M148.132 51.2017C148.132 51.2017 148.998 50.7932 150.302 50.2393" stroke="#263238" stroke-width="0.24584" stroke-miterlimit="10" stroke-linecap="round" stroke-linejoin="round"/>
<path d="M176.14 46.683C176.14 46.683 174.199 59.7702 174.843 62.364C175.488 64.9582 176.382 66.8543 176.382 66.8543" stroke="#263238" stroke-width="0.24584" stroke-miterlimit="10" stroke-linecap="round" stroke-linejoin="round"/>
<path d="M180.568 48.4231C182.624 49.4697 185.195 50.9474 186.677 52.4342C189.428 55.1938 191.468 58.2888 191.468 58.2888" stroke="#263238" stroke-width="0.24584" stroke-miterlimit="10" stroke-linecap="round" stroke-linejoin="round"/>
<path d="M177.423 46.9469C177.423 46.9469 178.225 47.2833 179.385 47.8397" stroke="#263238" stroke-width="0.24584" stroke-miterlimit="10" stroke-linecap="round" stroke-linejoin="round"/>
<path d="M165.195 39.2739C165.195 39.2739 161.631 34.895 160.207 29.9049C158.782 24.915 163.977 10.711 163.977 10.711C163.977 10.711 164.969 14.8607 167.438 20.1307C169.907 25.4006 173.824 40.4719 173.824 40.4719C173.824 40.4719 172.374 33.3693 174.335 28.7614C176.296 24.1538 184.698 14.4305 185.08 13.7431C185.462 13.0557 184.621 18.8857 184.315 23.2129C184.009 27.5408 177.999 41.592 177.999 41.592C177.999 41.592 182.785 36.756 186.325 33.625C189.864 30.494 201.981 32.4307 201.981 32.4307C201.981 32.4307 194.598 34.9241 191.033 38.6407C187.469 42.3572 181.969 47.3964 181.969 47.3964C181.969 47.3964 188.486 45.9209 191.974 46.66C195.461 47.3986 201.952 51.9056 201.952 51.9056C201.952 51.9056 194.392 50.4024 190.471 51.5222C186.551 52.6417 180.67 52.9716 180.67 52.9716C180.67 52.9716 182.299 55.9756 185.175 59.9731C188.051 63.9701 193.142 68.2988 193.142 68.2988C193.142 68.2988 185.072 67.7121 181.992 65.7005C178.912 63.6888 175.095 57.0697 175.095 57.0697C175.095 57.0697 172.218 58.4692 171.682 62.6698C171.147 66.8702 173.565 76.0097 173.565 76.0097C173.565 76.0097 166.769 70.4337 165.063 66.4872C163.358 62.5411 167.917 52.1806 167.917 52.1806C167.917 52.1806 161.653 55.8964 159.056 58.951C156.459 62.0056 155.516 67.4785 155.516 67.4785C155.516 67.4785 151.114 58.1351 152.948 53.7569C154.781 49.3783 164.634 46.7576 164.634 46.7576C164.634 46.7576 156.997 44.3126 154.451 43.4978C151.906 42.6828 146.688 38.5833 146.688 38.5833C146.688 38.5833 149.463 36.8273 155.471 36.2681C161.479 35.709 165.195 39.2739 165.195 39.2739Z" fill="#C6FF00"/>
<path d="M155.713 39.9115C154.966 39.7051 154.213 39.5154 153.459 39.3484" stroke="#263238" stroke-width="0.24584" stroke-miterlimit="10" stroke-linecap="round" stroke-linejoin="round"/>
<path d="M164.215 24.6088C164.589 27.6251 165.253 31.5045 166.366 33.9277C168.402 38.3575 172.932 47.4719 172.932 47.4719C172.932 47.4719 165.854 43.0965 157.6 40.4728" stroke="#263238" stroke-width="0.24584" stroke-miterlimit="10" stroke-linecap="round" stroke-linejoin="round"/>
<path d="M163.797 20.2063C163.797 20.2063 163.849 21.1125 163.983 22.4933" stroke="#263238" stroke-width="0.24584" stroke-miterlimit="10" stroke-linecap="round" stroke-linejoin="round"/>
<path d="M172.932 47.4719C172.932 47.4719 159.388 51.3393 156.664 54.6229C153.94 57.9066 154.907 62.6419 154.907 62.6419" stroke="#263238" stroke-width="0.24584" stroke-miterlimit="10" stroke-linecap="round" stroke-linejoin="round"/>
<path d="M188.861 35.9579C191.389 34.5898 192.257 34.823 192.257 34.823" stroke="#263238" stroke-width="0.24584" stroke-miterlimit="10" stroke-linecap="round" stroke-linejoin="round"/>
<path d="M170.383 70.9432C170.383 70.9432 167.711 67.6591 168.781 61.9565C169.851 56.2542 173.823 48.5667 173.823 48.5667C173.823 48.5667 183.184 39.8938 187.15 37.0247" stroke="#263238" stroke-width="0.24584" stroke-miterlimit="10" stroke-linecap="round" stroke-linejoin="round"/>
<path d="M175.086 43.2136C174.408 46.1869 173.823 48.567 173.823 48.567" stroke="#263238" stroke-width="0.24584" stroke-miterlimit="10" stroke-linecap="round" stroke-linejoin="round"/>
<path d="M179.985 24.8125C178.752 27.3869 177.311 30.7785 177.084 32.9877C176.899 34.7875 176.212 38.156 175.516 41.3016" stroke="#263238" stroke-width="0.24584" stroke-miterlimit="10" stroke-linecap="round" stroke-linejoin="round"/>
<path d="M181.821 21.2273C181.821 21.2273 181.356 22.0641 180.716 23.3287" stroke="#263238" stroke-width="0.24584" stroke-miterlimit="10" stroke-linecap="round" stroke-linejoin="round"/>
<path d="M175.452 48.8725C175.452 48.8725 188.639 47.8052 191.185 48.6202C193.73 49.4352 195.563 50.4536 195.563 50.4536" stroke="#263238" stroke-width="0.24584" stroke-miterlimit="10" stroke-linecap="round" stroke-linejoin="round"/>
<path d="M176.895 53.4066C177.803 55.528 179.106 58.1919 180.491 59.7691C183.062 62.6972 186.015 64.9375 186.015 64.9375" stroke="#263238" stroke-width="0.24584" stroke-miterlimit="10" stroke-linecap="round" stroke-linejoin="round"/>
<path d="M175.63 50.1709C175.63 50.1709 175.913 50.9938 176.391 52.188" stroke="#263238" stroke-width="0.24584" stroke-miterlimit="10" stroke-linecap="round" stroke-linejoin="round"/>
<path opacity="0.3" d="M249.404 177.62C246.703 174.9 238.416 157.858 232.927 145.552L240.398 143.819C241.754 143.505 242.869 142.718 243.619 141.677C243.808 141.414 243.97 141.132 244.11 140.84C244.245 140.56 244.354 140.268 244.441 139.967C244.722 138.988 244.741 137.92 244.422 136.867C244.368 136.685 244.304 136.508 244.233 136.336C244.019 135.821 243.732 135.353 243.389 134.941C243.047 134.529 242.648 134.172 242.208 133.88C241.915 133.684 241.603 133.518 241.278 133.381C240.141 132.905 238.837 132.806 237.565 133.19L228.8 135.837C228.372 134.735 228.066 133.872 227.914 133.323C227.652 132.378 227.335 131.559 226.961 130.848C226.898 130.397 226.805 129.736 226.667 128.752C226.239 125.715 223.774 122.113 220.475 120.96C217.177 119.808 207.341 119.678 204.017 118.743C200.693 117.81 177.272 113.578 174.471 115.803C171.671 118.028 170.072 124.264 168.067 128.24C166.062 132.216 159.067 146.91 159.067 146.91C158.916 146.496 154.138 151.67 153.793 154.661C153.69 155.07 153.698 155.402 153.865 155.611C154.577 156.507 155.841 157.337 157.85 157.263L152.371 158.917C151.72 159.114 151.27 159.669 151.178 160.31C149.233 160.892 145.352 162.23 143.029 164.22C143.029 164.22 148.39 164.294 151.98 163.469C152.384 163.884 152.985 164.088 153.592 163.947L161.077 162.211C161.134 162.633 161.224 163.074 161.367 163.553C161.484 163.943 161.727 164.28 162.039 164.579C162.177 164.797 162.33 165.015 162.504 165.233C165.406 168.885 172.974 171.412 178.337 172.912C183.699 174.411 190 178.342 195.349 183.824C200.698 189.307 204.954 194.664 213.1 198.917C214.556 199.677 215.993 200.289 217.385 200.786L278.177 208.258C278.177 208.26 253.374 181.616 249.404 177.62ZM164.021 154.947C163.997 155.106 163.977 155.263 163.969 155.417L162.585 155.835C163.056 155.593 163.537 155.293 164.021 154.947Z" fill="black"/>
<path d="M258.337 237.323L204.05 199.739C204.05 199.739 189.625 177.833 178.036 171.747C166.448 165.661 153.196 163.48 156.717 155.915C160.24 148.349 170.615 132.161 173.921 131.322C177.227 130.483 202.385 131.151 208.921 130.128C215.457 129.105 218.609 130.573 220.097 135.945C221.584 141.317 237.618 176.245 241.588 180.242C245.557 184.238 280.554 209.541 280.554 209.541" fill="white"/>
<mask id="mask4_374_226" style="mask-type:luminance" maskUnits="userSpaceOnUse" x="156" y="129" width="125" height="109">
<path d="M258.337 237.323L204.05 199.739C204.05 199.739 189.625 177.833 178.036 171.747C166.448 165.661 153.196 163.48 156.717 155.915C160.24 148.349 170.615 132.161 173.921 131.322C177.227 130.483 202.385 131.151 208.921 130.128C215.457 129.105 218.609 130.573 220.097 135.945C221.584 141.317 237.618 176.245 241.588 180.242C245.557 184.238 280.554 209.541 280.554 209.541" fill="white"/>
</mask>
<g mask="url(#mask4_374_226)">
<path d="M241.588 180.242C237.618 176.246 221.585 141.318 220.097 135.946C219.186 132.654 217.644 130.833 215.086 130.149C216.506 132.805 217.295 136.071 217.579 138.859C218.122 144.19 218.837 147.796 218.837 147.796C218.837 147.796 226.304 164.321 231.31 172.147C236.317 179.973 248.668 192.221 257.58 197.876C264.175 202.06 272.106 204.891 275.787 206.081C266.074 199.013 244.643 183.318 241.588 180.242Z" fill="#C6FF00"/>
</g>
<mask id="mask5_374_226" style="mask-type:luminance" maskUnits="userSpaceOnUse" x="156" y="129" width="125" height="109">
<path d="M258.337 237.323L204.05 199.739C204.05 199.739 189.625 177.833 178.036 171.747C166.448 165.661 153.196 163.48 156.717 155.915C160.24 148.349 170.615 132.161 173.921 131.322C177.227 130.483 202.385 131.151 208.921 130.128C215.457 129.105 218.609 130.573 220.097 135.945C221.584 141.317 237.618 176.245 241.588 180.242C245.557 184.238 280.554 209.541 280.554 209.541" fill="white"/>
</mask>
<g mask="url(#mask5_374_226)">
<path opacity="0.5" d="M241.588 180.242C237.618 176.246 221.585 141.318 220.097 135.946C219.186 132.654 217.644 130.833 215.086 130.149C216.506 132.805 217.295 136.071 217.579 138.859C218.122 144.19 218.837 147.796 218.837 147.796C218.837 147.796 226.304 164.321 231.31 172.147C236.317 179.973 248.668 192.221 257.58 197.876C264.175 202.06 272.106 204.891 275.787 206.081C266.074 199.013 244.643 183.318 241.588 180.242Z" fill="white"/>
</g>
<path d="M258.337 237.323L204.05 199.739C204.05 199.739 189.625 177.833 178.036 171.747C166.448 165.661 153.196 163.48 156.717 155.915C160.24 148.349 170.615 132.161 173.921 131.322C177.227 130.483 202.385 131.151 208.921 130.128C215.457 129.105 218.609 130.573 220.097 135.945C221.584 141.317 237.618 176.245 241.588 180.242C245.557 184.238 280.554 209.541 280.554 209.541" stroke="#263238" stroke-width="0.667688" stroke-miterlimit="10" stroke-linecap="round"/>
<path d="M149.275 160.566C149.275 160.566 155.726 157.522 160.418 150.051C165.109 142.58 162.578 142.788 162.578 142.788C162.578 142.788 165.565 140.063 167.336 138.243C169.105 136.422 171.048 132.876 171.048 132.876C171.048 132.876 182.313 134.463 187.106 134.174C191.899 133.885 194.002 133.404 194.002 133.404L203.104 138.129C203.104 138.129 199.421 142.167 198.479 148.527C197.535 154.888 196.547 163.241 195.046 164.935C193.545 166.63 194.731 167.055 184.877 167.761C175.021 168.467 151.019 165.658 149.275 160.566Z" fill="#C6FF00"/>
<path opacity="0.5" d="M149.275 160.566C149.275 160.566 155.726 157.522 160.418 150.051C165.109 142.58 162.578 142.788 162.578 142.788C162.578 142.788 165.565 140.063 167.336 138.243C169.105 136.422 171.048 132.876 171.048 132.876C171.048 132.876 182.313 134.463 187.106 134.174C191.899 133.885 194.002 133.404 194.002 133.404L203.104 138.129C203.104 138.129 199.421 142.167 198.479 148.527C197.535 154.888 196.547 163.241 195.046 164.935C193.545 166.63 194.731 167.055 184.877 167.761C175.021 168.467 151.019 165.658 149.275 160.566Z" fill="white"/>
<path d="M165.339 156.017C165.339 156.017 171.423 152.176 172.065 141.735C172.065 141.735 178.497 141.477 183.392 137.389" stroke="#263238" stroke-width="0.667688" stroke-miterlimit="10" stroke-linecap="round"/>
<path d="M180.031 141.762C180.031 141.762 180.8 151.479 192.521 159.291" stroke="#263238" stroke-width="0.667688" stroke-miterlimit="10" stroke-linecap="round"/>
<path d="M173.485 145.771C173.485 145.771 178.625 148.242 180.8 151.478" stroke="#263238" stroke-width="0.667688" stroke-miterlimit="10" stroke-linecap="round"/>
<path d="M190.08 165.158C190.08 165.158 193.864 159.172 195.095 154.222C196.326 149.272 195.831 144.898 199.68 141.244" stroke="#263238" stroke-width="0.667688" stroke-miterlimit="10" stroke-linecap="round"/>
<path d="M172.066 141.735L170.003 140.795" stroke="#263238" stroke-width="0.667688" stroke-miterlimit="10" stroke-linecap="round"/>
<path d="M144.552 162.601C144.552 162.601 138.403 164.111 135.212 166.844C135.212 166.844 141.842 166.94 145.294 165.785L144.552 162.601Z" fill="#263238" stroke="#263238" stroke-width="0.667688" stroke-miterlimit="10" stroke-linecap="round"/>
<path d="M229.748 135.813L144.556 161.542C143.715 161.796 143.202 162.646 143.372 163.509L143.711 165.236C143.898 166.185 144.834 166.79 145.776 166.572L232.582 146.442C235.681 145.723 237.527 142.534 236.606 139.49C235.727 136.58 232.657 134.934 229.748 135.813Z" fill="#C6FF00" stroke="#263238" stroke-width="0.667688" stroke-miterlimit="10" stroke-linecap="round"/>
<path d="M229.748 135.813L216.872 139.701C215.294 142.005 215.361 145.222 217.249 147.597C217.894 148.408 218.684 149.031 219.546 149.464L232.582 146.44C235.68 145.722 237.526 142.533 236.606 139.489C235.728 136.58 232.657 134.934 229.748 135.813Z" fill="#263238" stroke="#263238" stroke-width="0.667688" stroke-miterlimit="10" stroke-linecap="round"/>
<path d="M201.031 158.443C201.031 158.443 194.943 163.28 191.541 163.997C188.138 164.714 177.739 158.876 172.084 158.007C166.428 157.138 163.488 157.686 158.674 159.127C153.861 160.568 151.784 164.204 154.687 167.857C157.589 171.509 165.157 174.036 170.52 175.535C175.882 177.035 182.183 180.966 187.532 186.448C192.881 191.931 197.137 197.288 205.283 201.541C213.428 205.794 220.982 205.552 223.267 204.928" fill="white"/>
<mask id="mask6_374_226" style="mask-type:luminance" maskUnits="userSpaceOnUse" x="153" y="157" width="71" height="49">
<path d="M201.031 158.443C201.031 158.443 194.943 163.28 191.541 163.997C188.138 164.714 177.739 158.876 172.084 158.007C166.428 157.138 163.488 157.686 158.674 159.127C153.861 160.568 151.784 164.204 154.687 167.857C157.589 171.509 165.157 174.036 170.52 175.535C175.882 177.035 182.183 180.966 187.532 186.448C192.881 191.931 197.137 197.288 205.283 201.541C213.428 205.794 220.982 205.552 223.267 204.928" fill="white"/>
</mask>
<g mask="url(#mask6_374_226)">
<path d="M198.092 161.017C198.092 161.017 197.877 161.011 197.493 160.997C195.559 162.282 193.222 163.643 191.541 163.997C188.138 164.714 177.739 158.875 172.084 158.006C166.428 157.138 163.488 157.686 158.674 159.127C157.851 159.374 157.114 159.689 156.462 160.053C157.973 159.744 162.873 158.918 168.196 159.913C174.604 161.111 182.191 168.245 188.253 167.333C194.316 166.42 198.092 161.017 198.092 161.017Z" fill="#C6FF00"/>
</g>
<mask id="mask7_374_226" style="mask-type:luminance" maskUnits="userSpaceOnUse" x="153" y="157" width="71" height="49">
<path d="M201.031 158.443C201.031 158.443 194.943 163.28 191.541 163.997C188.138 164.714 177.739 158.876 172.084 158.007C166.428 157.138 163.488 157.686 158.674 159.127C153.861 160.568 151.784 164.204 154.687 167.857C157.589 171.509 165.157 174.036 170.52 175.535C175.882 177.035 182.183 180.966 187.532 186.448C192.881 191.931 197.137 197.288 205.283 201.541C213.428 205.794 220.982 205.552 223.267 204.928" fill="white"/>
</mask>
<g mask="url(#mask7_374_226)">
<path opacity="0.5" d="M198.092 161.017C198.092 161.017 197.877 161.011 197.493 160.997C195.559 162.282 193.222 163.643 191.541 163.997C188.138 164.714 177.739 158.875 172.084 158.006C166.428 157.138 163.488 157.686 158.674 159.127C157.851 159.374 157.114 159.689 156.462 160.053C157.973 159.744 162.873 158.918 168.196 159.913C174.604 161.111 182.191 168.245 188.253 167.333C194.316 166.42 198.092 161.017 198.092 161.017Z" fill="white"/>
</g>
<path d="M201.031 158.443C201.031 158.443 194.943 163.28 191.541 163.997C188.138 164.714 177.739 158.876 172.084 158.007C166.428 157.138 163.488 157.686 158.674 159.127C153.861 160.568 151.784 164.204 154.687 167.857C157.589 171.509 165.157 174.036 170.52 175.535C175.882 177.035 182.183 180.966 187.532 186.448C192.881 191.931 197.137 197.288 205.283 201.541C213.428 205.794 220.982 205.552 223.267 204.928" stroke="#263238" stroke-width="0.667688" stroke-miterlimit="10" stroke-linecap="round"/>
<path d="M159.515 169.184C159.515 169.184 158.167 165.488 161.465 159.889C161.465 159.889 157.217 159.292 155.173 160.718C153.128 162.144 152.831 163.77 153.551 166.176C154.271 168.584 159.515 169.184 159.515 169.184Z" fill="white" stroke="#263238" stroke-width="0.667688" stroke-miterlimit="10" stroke-linecap="round"/>
<path d="M164.479 171.444C164.916 171.608 165.475 171.748 166.184 171.83" stroke="#263238" stroke-width="0.667688" stroke-miterlimit="10" stroke-linecap="round"/>
<path d="M164.058 161.404C164.058 161.404 160.155 166.491 162.935 170.24" stroke="#263238" stroke-width="0.667688" stroke-miterlimit="10" stroke-linecap="round"/>
<path d="M219.277 134.412C219.277 134.412 219.277 134.412 218.85 131.375C218.423 128.338 215.958 124.736 212.659 123.583C209.36 122.431 199.525 122.301 196.201 121.367C192.877 120.433 169.455 116.202 166.655 118.427C163.855 120.651 162.255 126.887 160.25 130.864C158.246 134.84 151.25 149.534 151.25 149.534C151.25 149.534 144.888 156.773 146.048 158.235C147.209 159.696 149.828 160.991 154.766 158.458C159.704 155.925 165.708 146.983 166.636 145.651C167.564 144.318 173.009 135.423 173.009 135.423C173.009 135.423 177.788 137.188 182.329 137.155C186.871 137.121 187.43 137.075 187.43 137.075C187.43 137.075 190.067 140.143 193.659 140.666" fill="white"/>
<mask id="mask8_374_226" style="mask-type:luminance" maskUnits="userSpaceOnUse" x="145" y="117" width="75" height="43">
<path d="M219.277 134.412C219.277 134.412 219.277 134.412 218.85 131.375C218.423 128.338 215.958 124.736 212.659 123.583C209.36 122.431 199.525 122.301 196.201 121.367C192.877 120.433 169.455 116.202 166.655 118.427C163.855 120.651 162.255 126.887 160.25 130.864C158.246 134.84 151.25 149.534 151.25 149.534C151.25 149.534 144.888 156.773 146.048 158.235C147.209 159.696 149.828 160.991 154.766 158.458C159.704 155.925 165.708 146.983 166.636 145.651C167.564 144.318 173.009 135.423 173.009 135.423C173.009 135.423 177.788 137.188 182.329 137.155C186.871 137.121 187.43 137.075 187.43 137.075C187.43 137.075 190.067 140.143 193.659 140.666" fill="white"/>
</mask>
<g mask="url(#mask8_374_226)">
<path d="M209.514 125.246C213.485 126.156 215.795 130.575 216.898 134.994L219.277 134.413C219.277 134.413 219.277 134.413 218.85 131.376C218.422 128.339 215.957 124.736 212.658 123.584C209.359 122.432 199.524 122.302 196.2 121.367C195.333 121.124 193.09 120.655 190.21 120.136L189.813 120.409C189.813 120.409 204.355 124.065 209.514 125.246Z" fill="#C6FF00"/>
</g>
<mask id="mask9_374_226" style="mask-type:luminance" maskUnits="userSpaceOnUse" x="145" y="117" width="75" height="43">
<path d="M219.277 134.412C219.277 134.412 219.277 134.412 218.85 131.375C218.423 128.338 215.958 124.736 212.659 123.583C209.36 122.431 199.525 122.301 196.201 121.367C192.877 120.433 169.455 116.202 166.655 118.427C163.855 120.651 162.255 126.887 160.25 130.864C158.246 134.84 151.25 149.534 151.25 149.534C151.25 149.534 144.888 156.773 146.048 158.235C147.209 159.696 149.828 160.991 154.766 158.458C159.704 155.925 165.708 146.983 166.636 145.651C167.564 144.318 173.009 135.423 173.009 135.423C173.009 135.423 177.788 137.188 182.329 137.155C186.871 137.121 187.43 137.075 187.43 137.075C187.43 137.075 190.067 140.143 193.659 140.666" fill="white"/>
</mask>
<g mask="url(#mask9_374_226)">
<path opacity="0.5" d="M209.514 125.246C213.485 126.156 215.795 130.575 216.898 134.994L219.277 134.413C219.277 134.413 219.277 134.413 218.85 131.376C218.422 128.339 215.957 124.736 212.658 123.584C209.359 122.432 199.524 122.302 196.2 121.367C195.333 121.124 193.09 120.655 190.21 120.136L189.813 120.409C189.813 120.409 204.355 124.065 209.514 125.246Z" fill="white"/>
</g>
<mask id="mask10_374_226" style="mask-type:luminance" maskUnits="userSpaceOnUse" x="145" y="117" width="75" height="43">
<path d="M219.277 134.412C219.277 134.412 219.277 134.412 218.85 131.375C218.423 128.338 215.958 124.736 212.659 123.583C209.36 122.431 199.525 122.301 196.201 121.367C192.877 120.433 169.455 116.202 166.655 118.427C163.855 120.651 162.255 126.887 160.25 130.864C158.246 134.84 151.25 149.534 151.25 149.534C151.25 149.534 144.888 156.773 146.048 158.235C147.209 159.696 149.828 160.991 154.766 158.458C159.704 155.925 165.708 146.983 166.636 145.651C167.564 144.318 173.009 135.423 173.009 135.423C173.009 135.423 177.788 137.188 182.329 137.155C186.871 137.121 187.43 137.075 187.43 137.075C187.43 137.075 190.067 140.143 193.659 140.666" fill="white"/>
</mask>
<g mask="url(#mask10_374_226)">
<path d="M149.275 160.566C149.275 160.566 155.726 157.522 160.418 150.051C165.109 142.58 162.578 142.788 162.578 142.788C162.578 142.788 165.565 140.064 167.336 138.243C169.105 136.422 171.048 132.876 171.048 132.876C171.048 132.876 182.313 134.463 187.106 134.174C191.899 133.885 194.002 133.404 194.002 133.404L203.104 138.129C203.104 138.129 199.421 142.167 198.479 148.527C197.535 154.888 196.547 163.241 195.046 164.935C193.545 166.63 194.731 167.056 184.877 167.761C175.021 168.467 151.019 165.658 149.275 160.566Z" fill="#C6FF00"/>
</g>
<mask id="mask11_374_226" style="mask-type:luminance" maskUnits="userSpaceOnUse" x="145" y="117" width="75" height="43">
<path d="M219.277 134.412C219.277 134.412 219.277 134.412 218.85 131.375C218.423 128.338 215.958 124.736 212.659 123.583C209.36 122.431 199.525 122.301 196.201 121.367C192.877 120.433 169.455 116.202 166.655 118.427C163.855 120.651 162.255 126.887 160.25 130.864C158.246 134.84 151.25 149.534 151.25 149.534C151.25 149.534 144.888 156.773 146.048 158.235C147.209 159.696 149.828 160.991 154.766 158.458C159.704 155.925 165.708 146.983 166.636 145.651C167.564 144.318 173.009 135.423 173.009 135.423C173.009 135.423 177.788 137.188 182.329 137.155C186.871 137.121 187.43 137.075 187.43 137.075C187.43 137.075 190.067 140.143 193.659 140.666" fill="white"/>
</mask>
<g mask="url(#mask11_374_226)">
<path opacity="0.5" d="M149.275 160.566C149.275 160.566 155.726 157.522 160.418 150.051C165.109 142.58 162.578 142.788 162.578 142.788C162.578 142.788 165.565 140.064 167.336 138.243C169.105 136.422 171.048 132.876 171.048 132.876C171.048 132.876 182.313 134.463 187.106 134.174C191.899 133.885 194.002 133.404 194.002 133.404L203.104 138.129C203.104 138.129 199.421 142.167 198.479 148.527C197.535 154.888 196.547 163.241 195.046 164.935C193.545 166.63 194.731 167.056 184.877 167.761C175.021 168.467 151.019 165.658 149.275 160.566Z" fill="white"/>
</g>
<path d="M219.277 134.412C219.277 134.412 219.277 134.412 218.85 131.375C218.423 128.338 215.958 124.736 212.659 123.583C209.36 122.431 199.525 122.301 196.201 121.367C192.877 120.433 169.455 116.202 166.655 118.427C163.855 120.651 162.255 126.887 160.25 130.864C158.246 134.84 151.25 149.534 151.25 149.534C151.25 149.534 144.888 156.773 146.048 158.235C147.209 159.696 149.828 160.991 154.766 158.458C159.704 155.925 165.708 146.983 166.636 145.651C167.564 144.318 173.009 135.423 173.009 135.423C173.009 135.423 177.788 137.188 182.329 137.155C186.871 137.121 187.43 137.075 187.43 137.075C187.43 137.075 190.067 140.143 193.659 140.666" stroke="#263238" stroke-width="0.667688" stroke-miterlimit="10" stroke-linecap="round"/>
<path d="M146.049 158.235C146.049 158.235 147.045 158.239 148.434 156.737C149.823 155.236 151.419 149.996 151.251 149.534C151.082 149.072 145.134 155.585 146.049 158.235Z" fill="white" stroke="#263238" stroke-width="0.667688" stroke-miterlimit="10" stroke-linecap="round"/>
<path d="M169.924 129.717C169.832 129.331 169.757 128.93 169.705 128.516" stroke="#263238" stroke-width="0.667688" stroke-miterlimit="10" stroke-linecap="round"/>
<path d="M173.009 135.424C173.009 135.424 171.372 133.804 170.374 131.174" stroke="#263238" stroke-width="0.667688" stroke-miterlimit="10" stroke-linecap="round"/>
<g clip-path="url(#clip0_374_226)">
<path d="M191.905 247.828C191.789 247.811 191.677 247.808 191.556 247.8C191.435 247.792 191.538 247.698 191.492 247.654C191.115 246.908 190.603 246.238 189.981 245.679C189.933 245.633 189.878 245.595 189.819 245.566C189.407 245.343 188.893 245.496 188.671 245.908C188.67 245.909 188.669 245.911 188.669 245.913C188.278 246.651 188.031 247.457 187.94 248.287C187.922 248.395 187.917 248.493 187.905 248.593C187.893 248.692 187.718 248.678 187.63 248.732C186.882 249.102 186.211 249.612 185.655 250.236C185.609 250.284 185.57 250.338 185.541 250.398C185.318 250.804 185.465 251.315 185.871 251.539C185.877 251.542 185.883 251.545 185.889 251.548C186.627 251.941 187.433 252.19 188.264 252.285C188.317 252.287 188.37 252.292 188.424 252.301C188.443 252.41 188.513 252.51 188.569 252.612C188.979 253.399 189.587 254.064 190.334 254.542C190.685 254.764 191.147 254.681 191.4 254.352C191.935 253.645 192.276 252.811 192.389 251.931C192.378 251.866 192.367 251.808 192.406 251.734L192.586 251.649C193.372 251.239 194.037 250.63 194.515 249.884C194.737 249.533 194.654 249.07 194.325 248.818C193.617 248.285 192.783 247.944 191.905 247.828Z" fill="black" fill-opacity="0.05"/>
</g>
<defs>
<clipPath id="clip0_374_226">
<rect width="9.32159" height="9.32159" fill="white" transform="translate(184.621 246.305) rotate(-10.1058)"/>
</clipPath>
</defs>
</svg>
