<svg width="732" height="732" viewBox="0 0 732 732" fill="none" xmlns="http://www.w3.org/2000/svg">
<g clip-path="url(#clip0_305_10957)">
<rect width="732" height="732" rx="366" fill="#92D948"/>
<g clip-path="url(#clip1_305_10957)">
<circle cx="608.144" cy="555.928" r="72.5073" transform="rotate(-10.1058 608.144 555.928)" fill="black" fill-opacity="0.05"/>
<path opacity="0.3" d="M436.677 179.17C437.342 178.72 437.516 177.817 437.066 177.153C436.616 176.489 435.713 176.315 435.048 176.765L430.203 180.045L429.576 179.121L434.422 175.84C435.086 175.39 435.26 174.487 434.81 173.823C434.36 173.158 433.457 172.984 432.793 173.434L427.947 176.715L423.43 170.045L401.042 163.265L373.718 637.977L394.482 641.182L633.057 479.646L621.464 462.524L626.31 459.244C626.974 458.794 627.148 457.891 626.698 457.226C626.248 456.562 625.345 456.388 624.681 456.838L619.835 460.118L619.209 459.194L624.056 455.912C624.72 455.463 624.894 454.56 624.444 453.895C623.994 453.231 623.091 453.057 622.427 453.507L617.581 456.787L611.485 447.785L616.332 444.503C616.997 444.054 617.171 443.151 616.721 442.486C616.271 441.822 615.368 441.648 614.704 442.098L609.858 445.378L609.231 444.454L614.077 441.173C614.741 440.723 614.915 439.82 614.465 439.156C614.015 438.492 613.112 438.318 612.448 438.767L607.602 442.048L601.506 433.045L606.352 429.765C607.016 429.315 607.19 428.412 606.74 427.748C606.29 427.083 605.387 426.909 604.723 427.359L599.877 430.64L599.25 429.715L604.096 426.434C604.761 425.984 604.935 425.081 604.485 424.417C604.035 423.753 603.132 423.579 602.468 424.029L597.622 427.309L591.525 418.307L596.371 415.026C597.036 414.576 597.21 413.673 596.76 413.009C596.31 412.344 595.407 412.17 594.743 412.62L589.897 415.901L589.27 414.976L594.116 411.696C594.78 411.246 594.954 410.343 594.504 409.678C594.054 409.014 593.151 408.84 592.487 409.29L587.641 412.571L581.545 403.568L586.391 400.287C587.055 399.837 587.229 398.934 586.779 398.27C586.329 397.606 585.426 397.432 584.762 397.882L579.916 401.162L579.289 400.237L584.137 396.956C584.801 396.506 584.975 395.603 584.525 394.939C584.075 394.275 583.172 394.101 582.508 394.55L577.662 397.831L571.566 388.828L576.413 385.547C577.077 385.097 577.252 384.194 576.802 383.53C576.352 382.866 575.449 382.692 574.784 383.141L569.938 386.422L569.312 385.497L574.159 382.216C574.823 381.766 574.997 380.863 574.548 380.199C574.098 379.535 573.195 379.361 572.53 379.81L567.684 383.091L561.588 374.088L566.435 370.807C567.1 370.357 567.274 369.454 566.824 368.79C566.374 368.126 565.471 367.952 564.807 368.401L559.961 371.682L559.334 370.757L564.18 367.477C564.844 367.027 565.018 366.124 564.568 365.459C564.118 364.795 563.215 364.621 562.551 365.071L557.705 368.352L551.609 359.349L556.455 356.068C557.119 355.618 557.293 354.715 556.843 354.051C556.394 353.387 555.49 353.213 554.826 353.663L549.98 356.943L549.354 356.019L554.199 352.738C554.864 352.288 555.038 351.385 554.588 350.721C554.138 350.056 553.235 349.882 552.571 350.332L547.725 353.613L541.629 344.61L546.475 341.33C547.139 340.88 547.313 339.977 546.863 339.312C546.413 338.648 545.51 338.474 544.846 338.924L540 342.205L539.373 341.28L544.22 337.999C544.885 337.549 545.059 336.646 544.609 335.981C544.159 335.317 543.256 335.143 542.592 335.593L537.746 338.874L531.65 329.871L536.495 326.59C537.16 326.14 537.334 325.237 536.884 324.573C536.434 323.909 535.531 323.735 534.867 324.185L530.021 327.465L529.394 326.54L534.241 323.259C534.906 322.809 535.08 321.906 534.63 321.242C534.18 320.578 533.277 320.404 532.613 320.853L527.767 324.134L521.67 315.131L526.518 311.85C527.182 311.4 527.356 310.497 526.906 309.833C526.456 309.169 525.553 308.995 524.889 309.444L520.043 312.725L519.416 311.8L524.262 308.52C524.927 308.07 525.101 307.167 524.651 306.503C524.201 305.838 523.298 305.664 522.633 306.114L517.788 309.395L511.691 300.392L516.537 297.111C517.202 296.661 517.376 295.758 516.926 295.094C516.476 294.43 515.573 294.256 514.908 294.706L510.063 297.986L509.436 297.062L514.282 293.781C514.946 293.331 515.12 292.428 514.67 291.764C514.22 291.1 513.317 290.925 512.653 291.375L507.807 294.656L501.711 285.653L506.557 282.373C507.221 281.923 507.395 281.02 506.945 280.355C506.495 279.691 505.592 279.517 504.928 279.967L500.082 283.248L499.455 282.323L504.301 279.042C504.966 278.592 505.14 277.689 504.69 277.025C504.24 276.361 503.337 276.187 502.673 276.637L497.827 279.917L491.73 270.914L496.576 267.634C497.241 267.184 497.415 266.281 496.965 265.617C496.515 264.952 495.612 264.778 494.948 265.228L490.102 268.509L489.475 267.584L494.322 264.303C494.986 263.853 495.161 262.95 494.711 262.286C494.261 261.621 493.358 261.447 492.693 261.897L487.847 265.178L481.751 256.175L486.597 252.894C487.262 252.445 487.436 251.542 486.986 250.877C486.536 250.213 485.633 250.039 484.968 250.489L480.123 253.769L479.496 252.845L484.343 249.563C485.007 249.114 485.181 248.211 484.732 247.546C484.282 246.882 483.379 246.708 482.714 247.158L477.868 250.438L471.772 241.436L476.618 238.155C477.282 237.705 477.457 236.802 477.007 236.138C476.557 235.474 475.654 235.3 474.989 235.749L470.143 239.03L469.517 238.105L474.363 234.825C475.027 234.375 475.201 233.472 474.751 232.807C474.301 232.143 473.398 231.969 472.734 232.419L467.888 235.7L461.792 226.697L466.638 223.416C467.302 222.966 467.476 222.063 467.026 221.399C466.576 220.735 465.673 220.561 465.009 221.011L460.163 224.291L459.536 223.367L464.382 220.086C465.046 219.636 465.221 218.733 464.771 218.069C464.321 217.404 463.418 217.23 462.753 217.68L457.907 220.961L451.811 211.958L456.657 208.678C457.322 208.228 457.496 207.325 457.046 206.66C456.596 205.996 455.693 205.822 455.028 206.272L450.183 209.553L449.556 208.628L454.402 205.347C455.066 204.897 455.24 203.994 454.79 203.33C454.34 202.666 453.437 202.492 452.773 202.942L447.927 206.222L441.831 197.219L446.677 193.939C447.341 193.489 447.515 192.586 447.065 191.922C446.615 191.257 445.712 191.083 445.048 191.533L440.202 194.814L439.575 193.889L444.421 190.608C445.086 190.159 445.26 189.255 444.81 188.591C444.36 187.927 443.457 187.753 442.792 188.203L437.947 191.483L431.85 182.481L436.677 179.17Z" fill="black"/>
<path d="M383.752 637.693L604.964 487.913L390.143 170.64L168.931 320.419C163.287 324.241 161.81 331.915 165.631 337.559L366.611 634.391C370.435 640.038 378.109 641.515 383.752 637.693Z" fill="#263238" stroke="#263238" stroke-width="1.5245" stroke-miterlimit="10" stroke-linecap="round"/>
<path d="M369.958 632.128L382.561 623.595L358.711 588.371L346.108 596.904C344.26 598.154 343.777 600.667 345.028 602.514L364.348 631.048C365.599 632.895 368.111 633.379 369.958 632.128Z" fill="white" stroke="#263238" stroke-width="1.5245" stroke-miterlimit="10" stroke-linecap="round"/>
<path d="M344.886 595.1L357.49 586.567L333.639 551.342L321.036 559.875C319.189 561.126 318.705 563.638 319.956 565.486L339.276 594.02C340.527 595.867 343.039 596.351 344.886 595.1Z" fill="#C6FF00" stroke="#263238" stroke-width="1.5245" stroke-miterlimit="10" stroke-linecap="round"/>
<path d="M319.815 558.07L332.418 549.536L308.568 514.312L295.964 522.845C294.117 524.096 293.633 526.608 294.884 528.455L314.204 556.989C315.455 558.837 317.966 559.321 319.815 558.07Z" fill="white" stroke="#263238" stroke-width="1.5245" stroke-miterlimit="10" stroke-linecap="round"/>
<path d="M294.742 521.041L307.346 512.508L283.495 477.283L270.892 485.816C269.045 487.067 268.561 489.579 269.812 491.427L289.132 519.961C290.383 521.808 292.895 522.292 294.742 521.041Z" fill="#C6FF00" stroke="#263238" stroke-width="1.5245" stroke-miterlimit="10" stroke-linecap="round"/>
<path d="M245.82 448.786L253.373 443.672L169.61 319.962L401.043 163.263L615.864 480.535L384.431 637.234L277.224 478.897L269.671 484.011C267.824 485.261 265.311 484.778 264.061 482.93L244.74 454.396C243.488 452.55 243.972 450.037 245.82 448.786Z" fill="white" stroke="#263238" stroke-width="1.5245" stroke-miterlimit="10" stroke-linecap="round"/>
<path d="M243.36 374.355L253.004 392.679L339.049 333.5L329.219 318.982L243.36 374.355Z" fill="#C6FF00"/>
<path d="M397.057 190.795C398.729 193.263 402.083 193.909 404.551 192.237C407.019 190.565 407.665 187.211 405.993 184.743C404.322 182.275 400.968 181.629 398.5 183.301C396.033 184.972 395.388 188.327 397.057 190.795Z" fill="#263238" stroke="#263238" stroke-width="1.5245" stroke-miterlimit="10" stroke-linecap="round"/>
<path d="M401.672 186.765L415.182 177.617C415.846 177.167 416.02 176.264 415.57 175.6C415.12 174.936 414.217 174.762 413.553 175.212L400.043 184.359C399.379 184.809 399.205 185.712 399.655 186.377C400.105 187.041 401.008 187.215 401.672 186.765Z" fill="white" stroke="#263238" stroke-width="1.5245" stroke-miterlimit="10" stroke-linecap="round"/>
<path d="M403.928 190.097L417.437 180.949C418.102 180.499 418.276 179.596 417.826 178.932C417.376 178.268 416.473 178.094 415.809 178.544L402.299 187.692C401.635 188.141 401.46 189.044 401.91 189.709C402.36 190.373 403.263 190.547 403.928 190.097Z" fill="white" stroke="#263238" stroke-width="1.5245" stroke-miterlimit="10" stroke-linecap="round"/>
<path d="M407.039 205.536C408.711 208.004 412.065 208.65 414.533 206.978C417.001 205.307 417.647 201.953 415.975 199.485C414.304 197.017 410.95 196.37 408.482 198.042C406.013 199.712 405.367 203.068 407.039 205.536Z" fill="#263238" stroke="#263238" stroke-width="1.5245" stroke-miterlimit="10" stroke-linecap="round"/>
<path d="M411.654 201.507L425.164 192.359C425.828 191.909 426.002 191.006 425.552 190.342C425.102 189.677 424.199 189.503 423.535 189.953L410.025 199.101C409.361 199.551 409.186 200.454 409.636 201.118C410.084 201.782 410.989 201.955 411.654 201.507Z" fill="white" stroke="#263238" stroke-width="1.5245" stroke-miterlimit="10" stroke-linecap="round"/>
<path d="M413.909 204.837L427.419 195.689C428.083 195.239 428.257 194.336 427.807 193.672C427.357 193.008 426.454 192.834 425.79 193.284L412.28 202.432C411.616 202.882 411.442 203.785 411.891 204.449C412.34 205.114 413.243 205.288 413.909 204.837Z" fill="white" stroke="#263238" stroke-width="1.5245" stroke-miterlimit="10" stroke-linecap="round"/>
<path d="M417.019 220.277C418.691 222.745 422.045 223.391 424.513 221.72C426.981 220.048 427.627 216.694 425.955 214.226C424.284 211.758 420.929 211.112 418.461 212.783C415.994 214.453 415.349 217.809 417.019 220.277Z" fill="#263238" stroke="#263238" stroke-width="1.5245" stroke-miterlimit="10" stroke-linecap="round"/>
<path d="M421.633 216.248L435.143 207.1C435.808 206.65 435.982 205.747 435.532 205.083C435.082 204.418 434.179 204.244 433.515 204.694L420.005 213.842C419.34 214.292 419.166 215.195 419.616 215.859C420.066 216.523 420.969 216.698 421.633 216.248Z" fill="white" stroke="#263238" stroke-width="1.5245" stroke-miterlimit="10" stroke-linecap="round"/>
<path d="M423.889 219.578L437.399 210.43C438.063 209.98 438.237 209.077 437.787 208.413C437.337 207.748 436.434 207.574 435.77 208.024L422.26 217.172C421.596 217.622 421.422 218.525 421.872 219.189C422.322 219.854 423.225 220.028 423.889 219.578Z" fill="white" stroke="#263238" stroke-width="1.5245" stroke-miterlimit="10" stroke-linecap="round"/>
<path d="M427 235.017C428.672 237.485 432.026 238.131 434.494 236.459C436.962 234.788 437.608 231.434 435.936 228.966C434.265 226.498 430.911 225.851 428.443 227.523C425.976 229.194 425.329 232.549 427 235.017Z" fill="#263238" stroke="#263238" stroke-width="1.5245" stroke-miterlimit="10" stroke-linecap="round"/>
<path d="M431.614 230.988L445.124 221.84C445.788 221.39 445.962 220.487 445.512 219.822C445.063 219.158 444.16 218.984 443.495 219.434L429.985 228.582C429.321 229.032 429.147 229.935 429.597 230.599C430.047 231.263 430.95 231.438 431.614 230.988Z" fill="white" stroke="#263238" stroke-width="1.5245" stroke-miterlimit="10" stroke-linecap="round"/>
<path d="M433.87 234.318L447.379 225.17C448.044 224.72 448.218 223.817 447.768 223.153C447.318 222.489 446.415 222.315 445.751 222.765L432.241 231.912C431.577 232.362 431.402 233.265 431.852 233.93C432.301 234.595 433.205 234.768 433.87 234.318Z" fill="white" stroke="#263238" stroke-width="1.5245" stroke-miterlimit="10" stroke-linecap="round"/>
<path d="M436.981 249.758C438.653 252.226 442.007 252.872 444.475 251.2C446.943 249.529 447.589 246.174 445.917 243.706C444.245 241.238 440.891 240.592 438.423 242.264C435.955 243.936 435.309 247.29 436.981 249.758Z" fill="#263238" stroke="#263238" stroke-width="1.5245" stroke-miterlimit="10" stroke-linecap="round"/>
<path d="M441.595 245.728L455.105 236.58C455.77 236.13 455.944 235.227 455.494 234.563C455.044 233.899 454.141 233.725 453.476 234.175L439.967 243.323C439.302 243.772 439.128 244.675 439.578 245.34C440.027 246.005 440.93 246.179 441.595 245.728Z" fill="white" stroke="#263238" stroke-width="1.5245" stroke-miterlimit="10" stroke-linecap="round"/>
<path d="M443.85 249.061L457.36 239.913C458.024 239.463 458.198 238.56 457.748 237.896C457.299 237.231 456.396 237.057 455.731 237.507L442.221 246.655C441.557 247.105 441.383 248.008 441.833 248.672C442.283 249.336 443.186 249.511 443.85 249.061Z" fill="white" stroke="#263238" stroke-width="1.5245" stroke-miterlimit="10" stroke-linecap="round"/>
<path d="M446.961 264.498C448.633 266.966 451.987 267.612 454.455 265.941C456.923 264.269 457.569 260.915 455.897 258.447C454.226 255.979 450.872 255.333 448.404 257.005C445.937 258.676 445.291 262.031 446.961 264.498Z" fill="#263238" stroke="#263238" stroke-width="1.5245" stroke-miterlimit="10" stroke-linecap="round"/>
<path d="M451.575 260.469L465.085 251.321C465.749 250.871 465.923 249.968 465.473 249.304C465.023 248.64 464.12 248.466 463.456 248.916L449.946 258.063C449.282 258.513 449.108 259.416 449.558 260.081C450.008 260.745 450.911 260.919 451.575 260.469Z" fill="white" stroke="#263238" stroke-width="1.5245" stroke-miterlimit="10" stroke-linecap="round"/>
<path d="M453.831 263.801L467.341 254.653C468.005 254.203 468.179 253.3 467.729 252.636C467.279 251.971 466.376 251.797 465.712 252.247L452.202 261.395C451.538 261.845 451.364 262.748 451.814 263.412C452.264 264.077 453.167 264.251 453.831 263.801Z" fill="white" stroke="#263238" stroke-width="1.5245" stroke-miterlimit="10" stroke-linecap="round"/>
<path d="M456.942 279.238C458.614 281.706 461.968 282.352 464.436 280.681C466.904 279.009 467.55 275.655 465.878 273.187C464.207 270.719 460.853 270.073 458.385 271.744C455.917 273.416 455.271 276.772 456.942 279.238Z" fill="#263238" stroke="#263238" stroke-width="1.5245" stroke-miterlimit="10" stroke-linecap="round"/>
<path d="M461.556 275.209L475.066 266.061C475.73 265.611 475.904 264.708 475.454 264.044C475.004 263.38 474.101 263.206 473.437 263.655L459.927 272.803C459.263 273.253 459.089 274.156 459.539 274.821C459.987 275.486 460.892 275.659 461.556 275.209Z" fill="white" stroke="#263238" stroke-width="1.5245" stroke-miterlimit="10" stroke-linecap="round"/>
<path d="M463.812 278.541L477.322 269.393C477.986 268.943 478.16 268.04 477.71 267.376C477.26 266.712 476.357 266.538 475.693 266.988L462.183 276.135C461.519 276.585 461.345 277.488 461.794 278.153C462.243 278.818 463.146 278.992 463.812 278.541Z" fill="white" stroke="#263238" stroke-width="1.5245" stroke-miterlimit="10" stroke-linecap="round"/>
<path d="M466.922 293.981C468.594 296.449 471.948 297.095 474.416 295.423C476.884 293.752 477.53 290.397 475.858 287.929C474.187 285.461 470.833 284.815 468.365 286.487C465.897 288.157 465.252 291.512 466.922 293.981Z" fill="#263238" stroke="#263238" stroke-width="1.5245" stroke-miterlimit="10" stroke-linecap="round"/>
<path d="M471.536 289.951L485.046 280.803C485.71 280.354 485.885 279.451 485.435 278.786C484.985 278.122 484.082 277.948 483.417 278.398L469.907 287.546C469.243 287.996 469.069 288.899 469.519 289.563C469.968 290.226 470.871 290.4 471.536 289.951Z" fill="white" stroke="#263238" stroke-width="1.5245" stroke-miterlimit="10" stroke-linecap="round"/>
<path d="M473.792 293.282L487.302 284.134C487.967 283.684 488.141 282.781 487.691 282.116C487.241 281.452 486.338 281.278 485.674 281.728L472.164 290.876C471.499 291.326 471.325 292.229 471.775 292.893C472.225 293.557 473.128 293.731 473.792 293.282Z" fill="white" stroke="#263238" stroke-width="1.5245" stroke-miterlimit="10" stroke-linecap="round"/>
<path d="M476.903 308.721C478.575 311.189 481.929 311.835 484.397 310.163C486.865 308.492 487.511 305.137 485.839 302.669C484.168 300.201 480.814 299.555 478.346 301.227C475.879 302.898 475.232 306.253 476.903 308.721Z" fill="#263238" stroke="#263238" stroke-width="1.5245" stroke-miterlimit="10" stroke-linecap="round"/>
<path d="M481.517 304.692L495.027 295.544C495.692 295.094 495.866 294.191 495.416 293.527C494.966 292.862 494.063 292.688 493.399 293.138L479.889 302.286C479.224 302.736 479.05 303.639 479.5 304.303C479.95 304.968 480.853 305.142 481.517 304.692Z" fill="white" stroke="#263238" stroke-width="1.5245" stroke-miterlimit="10" stroke-linecap="round"/>
<path d="M483.773 308.022L497.283 298.874C497.947 298.424 498.121 297.521 497.671 296.857C497.221 296.192 496.318 296.018 495.654 296.468L482.144 305.616C481.48 306.066 481.306 306.969 481.756 307.633C482.204 308.298 483.109 308.472 483.773 308.022Z" fill="white" stroke="#263238" stroke-width="1.5245" stroke-miterlimit="10" stroke-linecap="round"/>
<path d="M486.884 323.461C488.556 325.929 491.91 326.575 494.378 324.903C496.846 323.231 497.492 319.877 495.821 317.409C494.149 314.941 490.795 314.295 488.327 315.967C485.859 317.639 485.213 320.993 486.884 323.461Z" fill="#263238" stroke="#263238" stroke-width="1.5245" stroke-miterlimit="10" stroke-linecap="round"/>
<path d="M491.499 319.431L505.009 310.283C505.673 309.834 505.847 308.931 505.397 308.266C504.947 307.602 504.044 307.428 503.38 307.878L489.87 317.026C489.206 317.476 489.032 318.379 489.482 319.043C489.93 319.708 490.833 319.882 491.499 319.431Z" fill="white" stroke="#263238" stroke-width="1.5245" stroke-miterlimit="10" stroke-linecap="round"/>
<path d="M493.754 322.762L507.263 313.614C507.928 313.164 508.102 312.261 507.652 311.597C507.202 310.933 506.299 310.759 505.635 311.209L492.125 320.357C491.46 320.806 491.286 321.709 491.736 322.374C492.187 323.039 493.089 323.212 493.754 322.762Z" fill="white" stroke="#263238" stroke-width="1.5245" stroke-miterlimit="10" stroke-linecap="round"/>
<path d="M496.865 338.201C498.536 340.669 501.89 341.315 504.358 339.644C506.826 337.972 507.472 334.618 505.801 332.15C504.129 329.682 500.775 329.036 498.307 330.707C495.84 332.378 495.195 335.734 496.865 338.201Z" fill="#263238" stroke="#263238" stroke-width="1.5245" stroke-miterlimit="10" stroke-linecap="round"/>
<path d="M501.478 334.172L514.988 325.024C515.653 324.574 515.827 323.671 515.377 323.007C514.927 322.343 514.024 322.169 513.359 322.619L499.85 331.767C499.185 332.216 499.011 333.12 499.461 333.784C499.911 334.448 500.814 334.622 501.478 334.172Z" fill="white" stroke="#263238" stroke-width="1.5245" stroke-miterlimit="10" stroke-linecap="round"/>
<path d="M503.735 337.504L517.245 328.356C517.909 327.906 518.083 327.003 517.633 326.338C517.183 325.674 516.28 325.5 515.616 325.95L502.106 335.098C501.442 335.548 501.268 336.451 501.718 337.115C502.168 337.779 503.071 337.953 503.735 337.504Z" fill="white" stroke="#263238" stroke-width="1.5245" stroke-miterlimit="10" stroke-linecap="round"/>
<path d="M506.845 352.941C508.517 355.409 511.871 356.056 514.339 354.384C516.807 352.712 517.453 349.358 515.781 346.89C514.11 344.422 510.756 343.776 508.288 345.448C505.82 347.119 505.174 350.475 506.845 352.941Z" fill="#263238" stroke="#263238" stroke-width="1.5245" stroke-miterlimit="10" stroke-linecap="round"/>
<path d="M511.46 348.912L524.97 339.764C525.634 339.314 525.808 338.411 525.358 337.747C524.909 337.083 524.006 336.909 523.341 337.358L509.831 346.506C509.167 346.956 508.993 347.859 509.443 348.524C509.891 349.189 510.796 349.362 511.46 348.912Z" fill="white" stroke="#263238" stroke-width="1.5245" stroke-miterlimit="10" stroke-linecap="round"/>
<path d="M513.716 352.244L527.225 343.096C527.89 342.646 528.064 341.743 527.614 341.079C527.164 340.415 526.261 340.241 525.597 340.691L512.087 349.838C511.422 350.288 511.248 351.191 511.698 351.856C512.147 352.521 513.05 352.695 513.716 352.244Z" fill="white" stroke="#263238" stroke-width="1.5245" stroke-miterlimit="10" stroke-linecap="round"/>
<path d="M516.826 367.683C518.498 370.151 521.852 370.797 524.32 369.126C526.788 367.454 527.434 364.1 525.762 361.632C524.09 359.164 520.736 358.518 518.268 360.189C515.801 361.859 515.156 365.214 516.826 367.683Z" fill="#263238" stroke="#263238" stroke-width="1.5245" stroke-miterlimit="10" stroke-linecap="round"/>
<path d="M521.44 363.653L534.95 354.505C535.614 354.055 535.788 353.152 535.338 352.487C534.888 351.823 533.985 351.649 533.321 352.099L519.811 361.247C519.147 361.697 518.973 362.6 519.423 363.264C519.873 363.929 520.776 364.103 521.44 363.653Z" fill="white" stroke="#263238" stroke-width="1.5245" stroke-miterlimit="10" stroke-linecap="round"/>
<path d="M523.696 366.985L537.206 357.837C537.87 357.387 538.044 356.484 537.594 355.819C537.144 355.155 536.241 354.981 535.577 355.431L522.067 364.579C521.403 365.029 521.229 365.932 521.679 366.596C522.129 367.26 523.032 367.435 523.696 366.985Z" fill="white" stroke="#263238" stroke-width="1.5245" stroke-miterlimit="10" stroke-linecap="round"/>
<path d="M526.807 382.423C528.479 384.891 531.833 385.537 534.301 383.865C536.769 382.194 537.415 378.84 535.743 376.372C534.071 373.904 530.717 373.258 528.249 374.929C525.783 376.6 525.135 379.955 526.807 382.423Z" fill="#263238" stroke="#263238" stroke-width="1.5245" stroke-miterlimit="10" stroke-linecap="round"/>
<path d="M531.421 378.394L544.931 369.246C545.596 368.796 545.77 367.893 545.32 367.228C544.87 366.564 543.967 366.39 543.303 366.84L529.793 375.988C529.128 376.438 528.954 377.341 529.404 378.005C529.854 378.669 530.757 378.843 531.421 378.394Z" fill="white" stroke="#263238" stroke-width="1.5245" stroke-miterlimit="10" stroke-linecap="round"/>
<path d="M533.677 381.724L547.186 372.576C547.851 372.126 548.025 371.223 547.575 370.559C547.125 369.895 546.222 369.721 545.558 370.171L532.048 379.319C531.383 379.769 531.209 380.672 531.659 381.336C532.108 382.001 533.012 382.174 533.677 381.724Z" fill="white" stroke="#263238" stroke-width="1.5245" stroke-miterlimit="10" stroke-linecap="round"/>
<path d="M536.788 397.164C538.459 399.632 541.814 400.278 544.282 398.606C546.75 396.935 547.396 393.581 545.724 391.113C544.052 388.645 540.698 387.999 538.23 389.67C535.762 391.342 535.116 394.696 536.788 397.164Z" fill="#263238" stroke="#263238" stroke-width="1.5245" stroke-miterlimit="10" stroke-linecap="round"/>
<path d="M541.402 393.134L554.912 383.987C555.576 383.537 555.75 382.634 555.3 381.969C554.85 381.305 553.947 381.131 553.283 381.581L539.773 390.729C539.109 391.179 538.935 392.082 539.385 392.746C539.833 393.411 540.738 393.584 541.402 393.134Z" fill="white" stroke="#263238" stroke-width="1.5245" stroke-miterlimit="10" stroke-linecap="round"/>
<path d="M543.656 396.466L557.166 387.318C557.83 386.868 558.005 385.965 557.555 385.3C557.105 384.636 556.202 384.462 555.537 384.912L542.027 394.06C541.363 394.51 541.189 395.413 541.639 396.077C542.089 396.741 542.992 396.915 543.656 396.466Z" fill="white" stroke="#263238" stroke-width="1.5245" stroke-miterlimit="10" stroke-linecap="round"/>
<path d="M546.768 411.905C548.44 414.373 551.794 415.019 554.262 413.347C556.73 411.675 557.376 408.321 555.704 405.853C554.033 403.385 550.679 402.739 548.211 404.411C545.744 406.082 545.096 409.437 546.768 411.905Z" fill="#263238" stroke="#263238" stroke-width="1.5245" stroke-miterlimit="10" stroke-linecap="round"/>
<path d="M551.382 407.876L564.892 398.728C565.556 398.278 565.73 397.375 565.28 396.711C564.831 396.046 563.928 395.872 563.263 396.322L549.753 405.47C549.089 405.92 548.915 406.823 549.365 407.487C549.815 408.152 550.718 408.326 551.382 407.876Z" fill="white" stroke="#263238" stroke-width="1.5245" stroke-miterlimit="10" stroke-linecap="round"/>
<path d="M553.638 411.208L567.148 402.06C567.812 401.61 567.986 400.707 567.536 400.042C567.086 399.378 566.183 399.204 565.519 399.654L552.009 408.802C551.345 409.252 551.171 410.155 551.621 410.819C552.071 411.483 552.974 411.657 553.638 411.208Z" fill="white" stroke="#263238" stroke-width="1.5245" stroke-miterlimit="10" stroke-linecap="round"/>
<path d="M556.749 426.645C558.421 429.113 561.775 429.759 564.243 428.087C566.711 426.416 567.357 423.062 565.686 420.594C564.014 418.126 560.66 417.479 558.192 419.151C555.724 420.823 555.078 424.178 556.749 426.645Z" fill="#263238" stroke="#263238" stroke-width="1.5245" stroke-miterlimit="10" stroke-linecap="round"/>
<path d="M561.363 422.616L574.873 413.468C575.537 413.018 575.711 412.115 575.261 411.451C574.811 410.787 573.908 410.612 573.244 411.062L559.734 420.21C559.07 420.66 558.896 421.563 559.345 422.227C559.794 422.892 560.698 423.066 561.363 422.616Z" fill="white" stroke="#263238" stroke-width="1.5245" stroke-miterlimit="10" stroke-linecap="round"/>
<path d="M563.619 425.948L577.129 416.8C577.793 416.35 577.968 415.447 577.518 414.782C577.068 414.118 576.165 413.944 575.5 414.394L561.99 423.542C561.326 423.992 561.152 424.895 561.602 425.559C562.051 426.224 562.954 426.398 563.619 425.948Z" fill="white" stroke="#263238" stroke-width="1.5245" stroke-miterlimit="10" stroke-linecap="round"/>
<path d="M566.729 441.386C568.4 443.854 571.754 444.5 574.222 442.828C576.69 441.157 577.336 437.803 575.665 435.335C573.993 432.867 570.639 432.221 568.171 433.892C565.704 435.563 565.059 438.919 566.729 441.386Z" fill="#263238" stroke="#263238" stroke-width="1.5245" stroke-miterlimit="10" stroke-linecap="round"/>
<path d="M571.342 437.357L584.852 428.209C585.516 427.759 585.69 426.856 585.241 426.192C584.791 425.528 583.888 425.353 583.223 425.803L569.713 434.951C569.049 435.401 568.875 436.304 569.325 436.969C569.775 437.633 570.678 437.807 571.342 437.357Z" fill="white" stroke="#263238" stroke-width="1.5245" stroke-miterlimit="10" stroke-linecap="round"/>
<path d="M573.599 440.689L587.108 431.541C587.773 431.091 587.947 430.188 587.497 429.524C587.047 428.859 586.144 428.685 585.48 429.135L571.97 438.283C571.305 438.733 571.131 439.636 571.581 440.3C572.031 440.965 572.934 441.139 573.599 440.689Z" fill="white" stroke="#263238" stroke-width="1.5245" stroke-miterlimit="10" stroke-linecap="round"/>
<path d="M576.711 456.127C578.382 458.595 581.736 459.241 584.204 457.57C586.672 455.898 587.318 452.544 585.647 450.076C583.975 447.608 580.621 446.962 578.153 448.633C575.686 450.303 575.039 453.659 576.711 456.127Z" fill="#263238" stroke="#263238" stroke-width="1.5245" stroke-miterlimit="10" stroke-linecap="round"/>
<path d="M581.324 452.098L594.834 442.95C595.498 442.5 595.672 441.597 595.222 440.933C594.772 440.269 593.869 440.095 593.205 440.545L579.695 449.692C579.031 450.142 578.857 451.045 579.307 451.71C579.756 452.373 580.66 452.548 581.324 452.098Z" fill="white" stroke="#263238" stroke-width="1.5245" stroke-miterlimit="10" stroke-linecap="round"/>
<path d="M583.58 455.428L597.09 446.28C597.754 445.83 597.928 444.927 597.478 444.263C597.028 443.599 596.125 443.425 595.461 443.875L581.951 453.023C581.287 453.473 581.113 454.376 581.563 455.04C582.011 455.705 582.916 455.878 583.58 455.428Z" fill="white" stroke="#263238" stroke-width="1.5245" stroke-miterlimit="10" stroke-linecap="round"/>
<path d="M586.692 470.867C588.364 473.335 591.718 473.982 594.186 472.31C596.654 470.638 597.3 467.284 595.628 464.816C593.957 462.348 590.602 461.702 588.134 463.374C585.666 465.045 585.02 468.399 586.692 470.867Z" fill="#263238" stroke="#263238" stroke-width="1.5245" stroke-miterlimit="10" stroke-linecap="round"/>
<path d="M591.306 466.838L604.816 457.69C605.481 457.24 605.655 456.337 605.205 455.673C604.755 455.009 603.852 454.834 603.188 455.284L589.678 464.432C589.013 464.882 588.839 465.785 589.289 466.449C589.738 467.114 590.642 467.288 591.306 466.838Z" fill="white" stroke="#263238" stroke-width="1.5245" stroke-miterlimit="10" stroke-linecap="round"/>
<path d="M593.561 470.169L607.07 461.021C607.735 460.571 607.909 459.668 607.459 459.004C607.009 458.339 606.106 458.165 605.442 458.615L591.932 467.763C591.268 468.213 591.093 469.116 591.543 469.78C591.993 470.445 592.896 470.619 593.561 470.169Z" fill="white" stroke="#263238" stroke-width="1.5245" stroke-miterlimit="10" stroke-linecap="round"/>
<g opacity="0.3">
<path d="M250.926 299.379L254.282 297.106" stroke="black" stroke-width="1.5245" stroke-miterlimit="10" stroke-linecap="round"/>
<path d="M257.638 294.834L260.994 292.563" stroke="black" stroke-width="1.5245" stroke-miterlimit="10" stroke-linecap="round"/>
<path d="M220.494 326.726L223.85 324.454" stroke="black" stroke-width="1.5245" stroke-miterlimit="10" stroke-linecap="round"/>
<path d="M227.207 322.181L230.563 319.908" stroke="black" stroke-width="1.5245" stroke-miterlimit="10" stroke-linecap="round"/>
<path d="M233.919 317.637L237.275 315.364" stroke="black" stroke-width="1.5245" stroke-miterlimit="10" stroke-linecap="round"/>
<path d="M240.631 313.092L243.987 310.819" stroke="black" stroke-width="1.5245" stroke-miterlimit="10" stroke-linecap="round"/>
<path d="M247.343 308.546L250.7 306.275" stroke="black" stroke-width="1.5245" stroke-miterlimit="10" stroke-linecap="round"/>
<path d="M254.056 304.002L257.412 301.73" stroke="black" stroke-width="1.5245" stroke-miterlimit="10" stroke-linecap="round"/>
<path d="M260.769 299.456L264.125 297.184" stroke="black" stroke-width="1.5245" stroke-miterlimit="10" stroke-linecap="round"/>
<path d="M223.625 331.35L226.981 329.077" stroke="black" stroke-width="1.5245" stroke-miterlimit="10" stroke-linecap="round"/>
<path d="M230.337 326.805L233.693 324.532" stroke="black" stroke-width="1.5245" stroke-miterlimit="10" stroke-linecap="round"/>
<path d="M237.05 322.258L240.407 319.987" stroke="black" stroke-width="1.5245" stroke-miterlimit="10" stroke-linecap="round"/>
<path d="M243.762 317.715L247.119 315.442" stroke="black" stroke-width="1.5245" stroke-miterlimit="10" stroke-linecap="round"/>
<path d="M250.476 313.169L253.832 310.897" stroke="black" stroke-width="1.5245" stroke-miterlimit="10" stroke-linecap="round"/>
<path d="M257.187 308.624L260.543 306.351" stroke="black" stroke-width="1.5245" stroke-miterlimit="10" stroke-linecap="round"/>
<path d="M263.9 304.08L267.256 301.808" stroke="black" stroke-width="1.5245" stroke-miterlimit="10" stroke-linecap="round"/>
<path d="M226.755 335.972L230.111 333.7" stroke="black" stroke-width="1.5245" stroke-miterlimit="10" stroke-linecap="round"/>
<path d="M233.467 331.428L236.824 329.155" stroke="black" stroke-width="1.5245" stroke-miterlimit="10" stroke-linecap="round"/>
<path d="M240.18 326.883L243.536 324.61" stroke="black" stroke-width="1.5245" stroke-miterlimit="10" stroke-linecap="round"/>
<path d="M246.892 322.338L250.248 320.065" stroke="black" stroke-width="1.5245" stroke-miterlimit="10" stroke-linecap="round"/>
<path d="M253.606 317.793L256.962 315.521" stroke="black" stroke-width="1.5245" stroke-miterlimit="10" stroke-linecap="round"/>
<path d="M260.317 313.248L263.673 310.975" stroke="black" stroke-width="1.5245" stroke-miterlimit="10" stroke-linecap="round"/>
<path d="M267.029 308.703L270.386 306.432" stroke="black" stroke-width="1.5245" stroke-miterlimit="10" stroke-linecap="round"/>
<path d="M229.886 340.595L233.242 338.323" stroke="black" stroke-width="1.5245" stroke-miterlimit="10" stroke-linecap="round"/>
<path d="M236.599 336.05L239.955 333.777" stroke="black" stroke-width="1.5245" stroke-miterlimit="10" stroke-linecap="round"/>
<path d="M243.311 331.506L246.667 329.233" stroke="black" stroke-width="1.5245" stroke-miterlimit="10" stroke-linecap="round"/>
<path d="M250.023 326.961L253.379 324.688" stroke="black" stroke-width="1.5245" stroke-miterlimit="10" stroke-linecap="round"/>
<path d="M256.735 322.415L260.092 320.144" stroke="black" stroke-width="1.5245" stroke-miterlimit="10" stroke-linecap="round"/>
<path d="M263.448 317.871L266.804 315.599" stroke="black" stroke-width="1.5245" stroke-miterlimit="10" stroke-linecap="round"/>
<path d="M270.16 313.326L273.516 311.053" stroke="black" stroke-width="1.5245" stroke-miterlimit="10" stroke-linecap="round"/>
<path d="M213.256 316.036L216.612 313.763" stroke="black" stroke-width="1.5245" stroke-miterlimit="10" stroke-linecap="round"/>
<path d="M219.968 311.491L223.324 309.218" stroke="black" stroke-width="1.5245" stroke-miterlimit="10" stroke-linecap="round"/>
<path d="M226.681 306.945L230.038 304.674" stroke="black" stroke-width="1.5245" stroke-miterlimit="10" stroke-linecap="round"/>
<path d="M233.393 302.401L236.749 300.129" stroke="black" stroke-width="1.5245" stroke-miterlimit="10" stroke-linecap="round"/>
<path d="M240.105 297.856L243.461 295.584" stroke="black" stroke-width="1.5245" stroke-miterlimit="10" stroke-linecap="round"/>
<path d="M246.818 293.311L250.174 291.04" stroke="black" stroke-width="1.5245" stroke-miterlimit="10" stroke-linecap="round"/>
<path d="M253.53 288.767L256.886 286.494" stroke="black" stroke-width="1.5245" stroke-miterlimit="10" stroke-linecap="round"/>
<path d="M258.936 288.899L214.727 318.831" stroke="black" stroke-width="1.5245" stroke-miterlimit="10" stroke-linecap="round"/>
<path d="M222.635 301.256L239.683 289.715" stroke="black" stroke-width="1.5245" stroke-miterlimit="10" stroke-linecap="round"/>
<path d="M224.043 363.5L412.134 236.146" stroke="black" stroke-width="1.5245" stroke-miterlimit="10" stroke-linecap="round"/>
<path d="M234.298 378.648L422.39 251.294" stroke="black" stroke-width="1.5245" stroke-miterlimit="10" stroke-linecap="round"/>
<path d="M244.556 393.798L432.647 266.443" stroke="black" stroke-width="1.5245" stroke-miterlimit="10" stroke-linecap="round"/>
<path d="M254.813 408.945L442.903 281.592" stroke="black" stroke-width="1.5245" stroke-miterlimit="10" stroke-linecap="round"/>
<path d="M265.069 424.093L453.161 296.739" stroke="black" stroke-width="1.5245" stroke-miterlimit="10" stroke-linecap="round"/>
<path d="M275.325 439.241L463.417 311.887" stroke="black" stroke-width="1.5245" stroke-miterlimit="10" stroke-linecap="round"/>
<path d="M285.582 454.391L473.674 327.036" stroke="black" stroke-width="1.5245" stroke-miterlimit="10" stroke-linecap="round"/>
<path d="M295.839 469.538L483.931 342.184" stroke="black" stroke-width="1.5245" stroke-miterlimit="10" stroke-linecap="round"/>
<path d="M306.096 484.686L494.188 357.332" stroke="black" stroke-width="1.5245" stroke-miterlimit="10" stroke-linecap="round"/>
<path d="M316.352 499.836L504.444 372.482" stroke="black" stroke-width="1.5245" stroke-miterlimit="10" stroke-linecap="round"/>
<path d="M326.609 514.984L514.701 387.629" stroke="black" stroke-width="1.5245" stroke-miterlimit="10" stroke-linecap="round"/>
<path d="M336.866 530.131L524.956 402.777" stroke="black" stroke-width="1.5245" stroke-miterlimit="10" stroke-linecap="round"/>
<path d="M347.122 545.279L535.214 417.925" stroke="black" stroke-width="1.5245" stroke-miterlimit="10" stroke-linecap="round"/>
<path d="M371.481 581.257L559.573 453.903" stroke="black" stroke-width="1.5245" stroke-miterlimit="10" stroke-linecap="round"/>
<path d="M379.602 593.249L567.694 465.895" stroke="black" stroke-width="1.5245" stroke-miterlimit="10" stroke-linecap="round"/>
<path d="M387.722 605.241L575.813 477.887" stroke="black" stroke-width="1.5245" stroke-miterlimit="10" stroke-linecap="round"/>
</g>
<path d="M260.421 365.565C260.421 365.565 251.946 392.475 260.56 384.803C269.173 377.131 273.637 351.094 274.551 360.601C275.465 370.108 278.254 375.584 280.311 367.748C282.369 359.91 284.466 357.57 284.914 360.95C285.36 364.329 288.294 360.503 288.294 360.503C288.294 360.503 295.196 350.305 295.644 353.684C296.091 357.064 295.46 357.492 297.985 355.781C300.509 354.071 306.191 350.226 306.191 350.226C306.191 350.226 305.988 351.284 313.561 346.156C321.135 341.027 323.436 337.629 327.223 335.063" stroke="#263238" stroke-width="1.5245" stroke-miterlimit="10" stroke-linecap="round"/>
<path d="M264.65 394.921C264.65 394.921 274.058 380.266 276.602 381.304C279.147 382.342 278.331 386.577 283.585 382.099C288.839 377.622 291.955 369.989 293.664 372.514C295.374 375.038 298.306 371.212 298.306 371.212L301.462 369.076C301.462 369.076 307.569 365.861 309.036 363.947C310.502 362.033 308.102 351.691 312.639 365.189C317.176 378.686 306.754 370.094 316.61 358.818C326.467 347.542 331.575 352.368 331.575 352.368C331.575 352.368 332.837 351.513 334.935 349.174C337.031 346.833 337.848 342.599 341.451 343.841C345.054 345.084 345.829 335.353 345.829 335.353C345.829 335.353 348.15 334.702 351.529 334.255C354.909 333.809 356.802 332.526 356.802 332.526C356.802 332.526 360.386 331.021 362.91 329.311C365.434 327.601 366.25 323.368 368.998 323.348C371.747 323.329 370.609 312.132 374.291 324.367C377.973 336.602 369.38 347.024 370.583 337.924C371.786 328.824 374.903 321.191 378.244 315.247C381.584 309.304 383.274 309.08 385.614 311.177C387.954 313.274 389.218 312.418 391.315 310.079C393.411 307.738 390.663 307.758 393.411 307.738C396.16 307.719 396.791 307.291 398.684 306.009C400.577 304.726 393.675 314.924 400.577 304.726C407.48 294.529 400.118 270.058 401.07 285.062C402.023 300.066 405.423 302.366 411.308 297.461" stroke="#263238" stroke-width="1.5245" stroke-miterlimit="10" stroke-linecap="round"/>
<path d="M276.858 417.032C276.858 417.032 285.781 393.5 283.867 392.034C281.954 390.569 277.76 395.249 277.187 403.922C276.616 412.595 281.072 415.099 288.608 404.475C296.142 393.849 284.616 408.097 295.367 403.58C306.116 399.064 306.058 390.818 307.34 392.711C308.623 394.604 305.039 396.111 313.04 391.613C321.041 387.116 315.322 385.467 324.178 382.231C333.033 378.996 335.539 374.539 335.539 374.539L340.588 371.12C340.588 371.12 330.061 377.327 343.316 368.353C356.571 359.378 354.521 338.675 352.075 351.377C349.629 364.079 354.291 365.525 359.524 358.3C364.758 351.074 364.758 351.074 364.758 351.074C364.758 351.074 369.097 337.089 371.109 352.297C373.121 367.505 363.555 360.174 376.139 346.129C388.723 332.085 391.308 338.621 395.502 333.939C399.698 329.257 396.277 324.208 401.794 326.917C407.31 329.626 406.457 328.363 411.506 324.945C416.554 321.526 414.866 321.749 419.284 318.758C423.702 315.767 424.334 315.339 428.752 312.348" stroke="#263238" stroke-width="1.5245" stroke-miterlimit="10" stroke-linecap="round"/>
<path d="M302.782 464.837C302.782 464.837 310.725 452.096 307.47 440.49C304.215 428.884 301.809 447.085 309.948 461.826C318.087 476.567 302.946 458.282 316.383 445.5C329.823 432.719 317.054 450.569 320.026 452.239C322.998 453.908 331.124 437.36 332.63 440.942C334.135 444.526 337.515 444.079 342.302 433.474C347.089 422.868 334.669 430.357 336.398 435.63C338.127 440.903 341.06 437.077 349.245 428.772C357.431 420.469 350.1 430.034 355.78 426.188C361.46 422.342 369.363 404.104 369.199 410.659C369.035 417.214 373.066 419.087 374.512 414.427C375.958 409.765 378.199 398.122 380.337 401.277C382.473 404.433 381.836 407.625 381.836 407.625" stroke="#263238" stroke-width="1.5245" stroke-miterlimit="10" stroke-linecap="round"/>
<path opacity="0.3" d="M164.526 355.642C164.164 355.488 163.741 355.348 163.253 355.229C162.276 354.993 161.034 354.85 159.451 354.887C159.235 354.893 158.981 354.918 158.711 354.952C158.655 354.959 158.596 354.968 158.536 354.976C152.054 355.902 132.306 364.191 125.694 367.019C122.285 368.478 120.267 372.089 120.94 375.735C120.952 375.793 120.962 375.851 120.974 375.91C122.146 381.804 163.871 521.123 163.871 521.123C163.871 521.123 165.113 524.116 167.008 528.647C167.851 530.661 168.822 532.977 169.873 535.468C170.135 536.091 170.402 536.725 170.674 537.368C171.217 538.654 171.776 539.976 172.345 541.316C174.337 546.012 176.449 550.949 178.405 555.446C179.802 558.657 181.121 561.642 182.259 564.152C183.17 566.16 183.966 567.864 184.595 569.133C186.483 572.946 187.952 575.849 189.342 577.912C191.66 581.349 193.755 582.449 197.203 581.515C198.063 581.281 199.293 580.906 200.771 580.423C201.066 580.326 201.371 580.226 201.687 580.121C202.945 579.701 204.346 579.214 205.833 578.679C206.204 578.547 206.581 578.409 206.962 578.27C208.105 577.852 209.286 577.407 210.48 576.946C211.276 576.637 212.077 576.322 212.877 575.999C213.676 575.676 214.475 575.349 215.263 575.016C216.84 574.351 218.379 573.67 219.82 572.991C222.25 571.844 224.394 570.699 225.975 569.636C225.978 569.634 225.98 569.632 225.983 569.63C226.038 569.592 226.102 569.553 226.157 569.515C226.329 569.397 226.487 569.28 226.644 569.164C226.665 569.148 226.689 569.132 226.71 569.117C226.896 568.978 227.068 568.841 227.232 568.705C227.263 568.678 227.3 568.652 227.331 568.625C227.517 568.467 227.687 568.314 227.838 568.161C228.124 567.874 228.394 567.595 228.651 567.325C228.908 567.053 229.152 566.788 229.383 566.53C230.536 565.24 231.366 564.109 231.972 563.031C232.214 562.6 232.421 562.178 232.598 561.757C232.776 561.338 232.923 560.919 233.048 560.497C233.11 560.285 233.168 560.073 233.219 559.857C233.426 559 233.553 558.109 233.651 557.132C233.653 557.124 233.651 557.109 233.652 557.1C233.661 556.983 233.665 556.837 233.657 556.653C233.654 556.581 233.642 556.481 233.637 556.399C233.627 556.258 233.62 556.125 233.603 555.954C233.591 555.84 233.572 555.699 233.557 555.573C233.536 555.402 233.519 555.24 233.492 555.045C233.472 554.903 233.446 554.735 233.424 554.58C233.394 554.372 233.363 554.17 233.327 553.94C233.3 553.771 233.268 553.581 233.238 553.402C233.198 553.157 233.159 552.918 233.113 552.653C233.077 552.447 233.036 552.222 232.997 552.005C232.951 551.743 232.905 551.487 232.853 551.209C232.81 550.975 232.762 550.724 232.717 550.48C232.661 550.183 232.606 549.891 232.545 549.581C232.497 549.333 232.445 549.07 232.396 548.813C232.333 548.494 232.272 548.178 232.205 547.846C232.147 547.561 232.088 547.263 232.028 546.969C231.959 546.633 231.893 546.299 231.821 545.95C231.76 545.652 231.696 545.345 231.632 545.04C231.558 544.68 231.483 544.322 231.405 543.951C231.338 543.63 231.267 543.301 231.198 542.972C231.12 542.602 231.041 542.233 230.96 541.854C230.886 541.507 230.81 541.155 230.733 540.802C230.65 540.418 230.567 540.034 230.483 539.643C230.458 539.528 230.435 539.418 230.408 539.302C230.36 539.082 230.309 538.854 230.261 538.633C230.167 538.203 230.073 537.773 229.976 537.337C229.902 537.002 229.827 536.663 229.751 536.325C229.655 535.886 229.557 535.447 229.458 535.002C229.38 534.651 229.3 534.299 229.22 533.945C229.122 533.508 229.025 533.073 228.925 532.633C228.838 532.248 228.751 531.862 228.662 531.474C228.567 531.056 228.473 530.641 228.377 530.221C228.286 529.819 228.193 529.417 228.101 529.015C228.005 528.598 227.91 528.182 227.813 527.765C227.769 527.575 227.725 527.385 227.682 527.192C227.632 526.97 227.579 526.748 227.527 526.525C227.432 526.115 227.338 525.708 227.243 525.298C227.148 524.891 227.054 524.484 226.959 524.078C226.859 523.654 226.762 523.231 226.663 522.809C226.567 522.401 226.471 521.993 226.376 521.587C226.281 521.185 226.187 520.787 226.094 520.389C225.991 519.955 225.888 519.522 225.786 519.089C225.694 518.705 225.604 518.324 225.514 517.944C225.418 517.543 225.322 517.142 225.228 516.744C225.128 516.328 225.029 515.914 224.929 515.501C224.833 515.104 224.738 514.708 224.644 514.315C224.557 513.952 224.469 513.595 224.383 513.237C224.318 512.969 224.252 512.696 224.187 512.432C224.15 512.278 224.113 512.13 224.076 511.976C223.991 511.624 223.905 511.28 223.821 510.933C223.724 510.538 223.628 510.144 223.533 509.757C223.448 509.413 223.365 509.074 223.281 508.736C223.183 508.333 223.082 507.931 222.985 507.538C222.915 507.26 222.849 506.989 222.78 506.716C222.704 506.413 222.627 506.102 222.553 505.804C222.524 505.686 222.496 505.579 222.468 505.463C222.4 505.193 222.335 504.933 222.268 504.667C222.171 504.283 222.074 503.899 221.982 503.528C221.913 503.26 221.848 503.002 221.781 502.741C221.69 502.385 221.599 502.028 221.511 501.686C221.452 501.452 221.394 501.232 221.336 501.005C221.245 500.651 221.154 500.295 221.066 499.959C221.017 499.774 220.972 499.601 220.924 499.422C220.835 499.079 220.745 498.736 220.66 498.415C220.613 498.237 220.571 498.077 220.524 497.906C220.442 497.603 220.362 497.299 220.287 497.02C220.281 497.001 220.276 496.978 220.27 496.959C220.167 496.581 220.068 496.214 219.975 495.88C219.544 494.329 218.388 491.004 216.694 486.371C216.059 484.634 215.35 482.713 214.574 480.633C211.729 473.006 208.004 463.24 203.885 452.552C203.511 451.58 203.133 450.6 202.752 449.614C187.149 409.187 166.702 357.478 166.702 357.478C166.702 357.478 166.34 356.409 164.526 355.642Z" fill="black"/>
<path d="M156.489 522.844C156.489 522.844 172.179 560.689 177.213 570.854C182.248 581.02 184.304 584.73 189.82 583.236C195.337 581.74 215.891 574.47 220.455 569.881C225.021 565.291 225.875 562.758 226.27 558.852C226.664 554.947 216.045 510.007 212.592 497.603C209.141 485.198 159.319 359.203 159.319 359.203C159.319 359.203 158.396 356.458 152.069 356.61C146.786 356.737 125.269 365.765 118.311 368.742C114.902 370.201 112.883 373.813 113.557 377.458C113.569 377.516 113.579 377.574 113.591 377.633C114.765 383.525 156.489 522.844 156.489 522.844Z" fill="#C6FF00"/>
<mask id="mask0_305_10957" style="mask-type:luminance" maskUnits="userSpaceOnUse" x="113" y="356" width="114" height="228">
<path d="M156.489 522.844C156.489 522.844 172.179 560.689 177.213 570.854C182.248 581.02 184.304 584.73 189.82 583.236C195.337 581.74 215.891 574.47 220.455 569.881C225.021 565.291 225.875 562.758 226.27 558.852C226.664 554.947 216.045 510.007 212.592 497.603C209.141 485.198 159.319 359.203 159.319 359.203C159.319 359.203 158.396 356.458 152.069 356.61C146.786 356.737 125.269 365.765 118.311 368.742C114.902 370.201 112.883 373.813 113.557 377.458C113.569 377.516 113.579 377.574 113.591 377.633C114.765 383.525 156.489 522.844 156.489 522.844Z" fill="white"/>
</mask>
<g mask="url(#mask0_305_10957)">
<path opacity="0.5" d="M217.794 571.869C218.919 571.171 219.838 570.501 220.454 569.88C225.02 565.29 225.875 562.757 226.268 558.852C226.661 554.947 216.043 510.007 212.591 497.602C209.14 485.197 159.318 359.202 159.318 359.202C159.318 359.202 158.396 356.458 152.068 356.609C151.592 356.621 150.979 356.706 150.262 356.851C162.515 385.753 174.562 421.256 186.708 464.441C198.205 505.319 212.651 554.444 217.794 571.869Z" fill="black"/>
</g>
<path d="M156.489 522.844C156.489 522.844 172.179 560.689 177.213 570.854C182.248 581.02 184.304 584.73 189.82 583.236C195.337 581.74 215.891 574.47 220.455 569.881C225.021 565.291 225.875 562.758 226.27 558.852C226.664 554.947 216.045 510.007 212.592 497.603C209.141 485.198 159.319 359.203 159.319 359.203C159.319 359.203 158.396 356.458 152.069 356.61C146.786 356.737 125.269 365.765 118.311 368.742C114.902 370.201 112.883 373.813 113.557 377.458C113.569 377.516 113.579 377.574 113.591 377.633C114.765 383.525 156.489 522.844 156.489 522.844Z" stroke="#263238" stroke-width="1.58826" stroke-miterlimit="10" stroke-linecap="round" stroke-linejoin="round"/>
<path d="M198.645 508.22C192.54 511.17 164.776 520.775 160.283 521.838C158.789 522.191 157.483 522.41 156.4 522.549C156.454 522.729 156.489 522.844 156.489 522.844C156.489 522.844 172.179 560.689 177.213 570.854C182.248 581.02 184.303 584.73 189.82 583.236C195.337 581.74 215.891 574.47 220.455 569.881C225.021 565.291 225.875 562.758 226.269 558.853C226.652 555.053 216.611 512.408 212.887 498.681C208.973 503.806 203.673 505.79 198.645 508.22Z" fill="#263238"/>
<mask id="mask1_305_10957" style="mask-type:luminance" maskUnits="userSpaceOnUse" x="156" y="498" width="71" height="86">
<path d="M198.645 508.22C192.54 511.17 164.776 520.775 160.283 521.838C158.789 522.191 157.483 522.41 156.4 522.549C156.454 522.729 156.489 522.844 156.489 522.844C156.489 522.844 172.179 560.689 177.213 570.854C182.248 581.02 184.303 584.73 189.82 583.236C195.337 581.74 215.891 574.47 220.455 569.881C225.021 565.291 225.875 562.758 226.269 558.853C226.652 555.053 216.611 512.408 212.887 498.681C208.973 503.806 203.673 505.79 198.645 508.22Z" fill="white"/>
</mask>
<g mask="url(#mask1_305_10957)">
<path opacity="0.5" d="M217.794 571.869C218.919 571.171 219.837 570.501 220.454 569.88C225.02 565.29 225.874 562.757 226.268 558.852C226.661 554.947 216.043 510.006 212.591 497.602C209.14 485.197 159.317 359.202 159.317 359.202C159.317 359.202 158.395 356.458 152.067 356.609C151.592 356.621 150.979 356.706 150.262 356.851C162.515 385.753 174.562 421.256 186.708 464.441C198.205 505.319 212.65 554.444 217.794 571.869Z" fill="black"/>
</g>
<mask id="mask2_305_10957" style="mask-type:luminance" maskUnits="userSpaceOnUse" x="156" y="498" width="71" height="86">
<path d="M198.645 508.22C192.54 511.17 164.776 520.775 160.283 521.838C158.789 522.191 157.483 522.41 156.4 522.549C156.454 522.729 156.489 522.844 156.489 522.844C156.489 522.844 172.179 560.689 177.213 570.854C182.248 581.02 184.303 584.73 189.82 583.236C195.337 581.74 215.891 574.47 220.455 569.881C225.021 565.291 225.875 562.758 226.269 558.853C226.652 555.053 216.611 512.408 212.887 498.681C208.973 503.806 203.673 505.79 198.645 508.22Z" fill="white"/>
</mask>
<g mask="url(#mask2_305_10957)">
<path opacity="0.26" d="M200.322 511.608C205.966 508.698 209.395 505.705 211.383 504.138" stroke="white" stroke-width="1.58826" stroke-miterlimit="10" stroke-linecap="round" stroke-linejoin="round"/>
</g>
<mask id="mask3_305_10957" style="mask-type:luminance" maskUnits="userSpaceOnUse" x="156" y="498" width="71" height="86">
<path d="M198.645 508.22C192.54 511.17 164.776 520.775 160.283 521.838C158.789 522.191 157.483 522.41 156.4 522.549C156.454 522.729 156.489 522.844 156.489 522.844C156.489 522.844 172.179 560.689 177.213 570.854C182.248 581.02 184.303 584.73 189.82 583.236C195.337 581.74 215.891 574.47 220.455 569.881C225.021 565.291 225.875 562.758 226.269 558.853C226.652 555.053 216.611 512.408 212.887 498.681C208.973 503.806 203.673 505.79 198.645 508.22Z" fill="white"/>
</mask>
<g mask="url(#mask3_305_10957)">
<path d="M160.218 525.345C160.218 525.345 194.74 514.486 200.323 511.608" stroke="white" stroke-width="1.58826" stroke-miterlimit="10" stroke-linecap="round" stroke-linejoin="round"/>
</g>
<path d="M198.645 508.22C192.54 511.17 164.776 520.775 160.283 521.838C158.789 522.191 157.483 522.41 156.4 522.549C156.454 522.729 156.489 522.844 156.489 522.844C156.489 522.844 172.179 560.689 177.213 570.854C182.248 581.02 184.303 584.73 189.82 583.236C195.337 581.74 215.891 574.47 220.455 569.881C225.021 565.291 225.875 562.758 226.269 558.853C226.652 555.053 216.611 512.408 212.887 498.681C208.973 503.806 203.673 505.79 198.645 508.22Z" stroke="#263238" stroke-width="1.58826" stroke-miterlimit="10" stroke-linecap="round" stroke-linejoin="round"/>
<path d="M524.825 173.351C540.646 152.533 536.595 122.833 515.777 107.012C494.96 91.1916 465.259 95.2424 449.439 116.06C433.618 136.877 437.669 166.578 458.486 182.399C479.304 198.219 509.005 194.168 524.825 173.351Z" fill="#263238" stroke="#263238" stroke-width="1.10328" stroke-miterlimit="10" stroke-linecap="round" stroke-linejoin="round"/>
<path d="M526.954 127.228C518.804 102.384 492.058 88.8506 467.214 97.0003C442.37 105.15 428.837 131.896 436.987 156.74C445.136 181.584 471.883 195.117 496.727 186.968C521.57 178.818 535.104 152.071 526.954 127.228Z" fill="white" stroke="#263238" stroke-width="1.10329" stroke-miterlimit="10" stroke-linecap="round" stroke-linejoin="round"/>
<path d="M522.939 130.25C516.477 107.604 492.88 94.4856 470.235 100.948C447.59 107.41 434.471 131.007 440.933 153.652C447.396 176.297 470.992 189.416 493.637 182.954C516.282 176.491 529.401 152.895 522.939 130.25Z" fill="#263238" stroke="#263238" stroke-width="1.10329" stroke-miterlimit="10" stroke-linecap="round" stroke-linejoin="round"/>
<path d="M463.755 115.107C463.755 115.107 454.481 106.477 443.522 102.542C432.562 98.6087 399.987 108.125 399.987 108.125C399.987 108.125 409.13 110.965 420.561 117.277C431.992 123.589 465.152 134.608 465.152 134.608C465.152 134.608 449.466 130.303 438.858 134.007C428.251 137.71 405.229 155.074 403.632 155.828C402.037 156.58 415.214 155.566 424.949 155.526C434.684 155.485 467.039 144.123 467.039 144.123C467.039 144.123 455.499 154.119 447.961 161.577C440.424 169.034 442.955 196.453 442.955 196.453C442.955 196.453 449.638 180.295 458.49 172.867C467.341 165.439 479.444 153.876 479.444 153.876C479.444 153.876 475.169 168.248 476.304 176.166C477.439 184.085 486.562 199.289 486.562 199.289C486.562 199.289 484.324 182.137 487.414 173.527C490.505 164.915 492.12 151.799 492.12 151.799C492.12 151.799 498.604 155.893 507.124 162.928C515.645 169.963 524.578 182.006 524.578 182.006C524.578 182.006 524.467 163.851 520.422 156.655C516.377 149.459 502.126 139.926 502.126 139.926C502.126 139.926 505.689 133.694 515.173 133.121C524.657 132.548 544.76 139.321 544.76 139.321C544.76 139.321 533.289 123.274 524.707 118.869C516.125 114.463 492.251 123.125 492.251 123.125C492.251 123.125 501.504 109.656 508.729 104.297C515.955 98.9377 528.349 97.6422 528.349 97.6422C528.349 97.6422 508.086 86.3924 498.009 89.8458C487.933 93.2988 480.597 114.967 480.597 114.967C480.597 114.967 476.26 97.5049 474.815 91.6837C473.369 85.8635 464.969 73.5691 464.969 73.5691C464.969 73.5691 460.623 79.5205 458.477 92.8891C456.329 106.255 463.755 115.107 463.755 115.107Z" fill="#C6FF00"/>
<path opacity="0.5" d="M463.755 115.107C463.755 115.107 454.481 106.477 443.522 102.542C432.562 98.6087 399.987 108.125 399.987 108.125C399.987 108.125 409.13 110.965 420.561 117.277C431.992 123.589 465.152 134.608 465.152 134.608C465.152 134.608 449.466 130.303 438.858 134.007C428.251 137.71 405.229 155.074 403.632 155.828C402.037 156.58 415.214 155.566 424.949 155.526C434.684 155.485 467.039 144.123 467.039 144.123C467.039 144.123 455.499 154.119 447.961 161.577C440.424 169.034 442.955 196.453 442.955 196.453C442.955 196.453 449.638 180.295 458.49 172.867C467.341 165.439 479.444 153.876 479.444 153.876C479.444 153.876 475.169 168.248 476.304 176.166C477.439 184.085 486.562 199.289 486.562 199.289C486.562 199.289 484.324 182.137 487.414 173.527C490.505 164.915 492.12 151.799 492.12 151.799C492.12 151.799 498.604 155.893 507.124 162.928C515.645 169.963 524.578 182.006 524.578 182.006C524.578 182.006 524.467 163.851 520.422 156.655C516.377 149.459 502.126 139.926 502.126 139.926C502.126 139.926 505.689 133.694 515.173 133.121C524.657 132.548 544.76 139.321 544.76 139.321C544.76 139.321 533.289 123.274 524.707 118.869C516.125 114.463 492.251 123.125 492.251 123.125C492.251 123.125 501.504 109.656 508.729 104.297C515.955 98.9377 528.349 97.6422 528.349 97.6422C528.349 97.6422 508.086 86.3924 498.009 89.8458C487.933 93.2988 480.597 114.967 480.597 114.967C480.597 114.967 476.26 97.5049 474.815 91.6837C473.369 85.8635 464.969 73.5691 464.969 73.5691C464.969 73.5691 460.623 79.5205 458.477 92.8891C456.329 106.255 463.755 115.107 463.755 115.107Z" fill="black"/>
<path d="M466.597 93.9738C466.246 92.2705 465.934 90.5572 465.672 88.8426" stroke="#263238" stroke-width="0.551643" stroke-miterlimit="10" stroke-linecap="round" stroke-linejoin="round"/>
<path d="M431.067 110.73C437.765 112.015 446.351 114.079 451.612 116.935C461.227 122.153 480.958 133.654 480.958 133.654C480.958 133.654 472.216 117.154 467.573 98.2821" stroke="#263238" stroke-width="0.551643" stroke-miterlimit="10" stroke-linecap="round" stroke-linejoin="round"/>
<path d="M421.272 109.138C421.272 109.138 423.292 109.389 426.365 109.894" stroke="#263238" stroke-width="0.551643" stroke-miterlimit="10" stroke-linecap="round" stroke-linejoin="round"/>
<path d="M480.958 133.653C480.958 133.653 491.635 103.906 499.393 98.295C507.15 92.6847 517.608 95.5547 517.608 95.5547" stroke="#263238" stroke-width="0.551643" stroke-miterlimit="10" stroke-linecap="round" stroke-linejoin="round"/>
<path d="M452.804 167.6C449.365 173.056 449.757 175.033 449.757 175.033" stroke="#263238" stroke-width="0.551643" stroke-miterlimit="10" stroke-linecap="round" stroke-linejoin="round"/>
<path d="M533.888 131.443C533.888 131.443 526.933 124.97 514.007 126.517C501.081 128.063 483.277 135.812 483.277 135.812C483.277 135.812 462.464 155.479 455.449 163.93" stroke="#263238" stroke-width="0.551643" stroke-miterlimit="10" stroke-linecap="round" stroke-linejoin="round"/>
<path d="M471.103 137.842C477.861 136.766 483.277 135.812 483.277 135.812" stroke="#263238" stroke-width="0.551643" stroke-miterlimit="10" stroke-linecap="round" stroke-linejoin="round"/>
<path d="M429.173 146.069C435.12 143.69 442.929 140.97 447.91 140.79C451.967 140.645 459.611 139.608 466.758 138.518" stroke="#263238" stroke-width="0.551643" stroke-miterlimit="10" stroke-linecap="round" stroke-linejoin="round"/>
<path d="M420.873 149.644C420.873 149.644 422.815 148.727 425.742 147.485" stroke="#263238" stroke-width="0.551643" stroke-miterlimit="10" stroke-linecap="round" stroke-linejoin="round"/>
<path d="M483.719 139.505C483.719 139.505 479.365 168.871 480.81 174.691C482.256 180.512 484.263 184.767 484.263 184.767" stroke="#263238" stroke-width="0.551643" stroke-miterlimit="10" stroke-linecap="round" stroke-linejoin="round"/>
<path d="M493.655 143.409C498.27 145.758 504.039 149.073 507.365 152.41C513.537 158.602 518.114 165.547 518.114 165.547" stroke="#263238" stroke-width="0.551643" stroke-miterlimit="10" stroke-linecap="round" stroke-linejoin="round"/>
<path d="M486.599 140.097C486.599 140.097 488.399 140.851 491.002 142.1" stroke="#263238" stroke-width="0.551643" stroke-miterlimit="10" stroke-linecap="round" stroke-linejoin="round"/>
<path d="M459.159 122.879C459.159 122.879 451.163 113.053 447.966 101.856C444.769 90.6591 456.427 58.7867 456.427 58.7867C456.427 58.7867 458.653 68.0982 464.193 79.9235C469.732 91.7488 478.523 125.567 478.523 125.567C478.523 125.567 475.269 109.63 479.67 99.2901C484.07 88.9509 502.924 67.1329 503.781 65.5904C504.638 64.048 502.751 77.1299 502.064 86.8397C501.376 96.5511 487.891 128.081 487.891 128.081C487.891 128.081 498.631 117.229 506.573 110.203C514.514 103.178 541.704 107.524 541.704 107.524C541.704 107.524 525.137 113.119 517.139 121.458C509.14 129.798 496.799 141.105 496.799 141.105C496.799 141.105 511.423 137.794 519.249 139.453C527.074 141.11 541.64 151.223 541.64 151.223C541.64 151.223 524.674 147.85 515.877 150.363C507.08 152.875 493.885 153.615 493.885 153.615C493.885 153.615 497.539 160.356 503.994 169.326C510.447 178.295 521.871 188.008 521.871 188.008C521.871 188.008 503.763 186.692 496.851 182.178C489.94 177.664 481.374 162.811 481.374 162.811C481.374 162.811 474.919 165.952 473.717 175.377C472.517 184.802 477.94 205.311 477.94 205.311C477.94 205.311 462.691 192.799 458.865 183.943C455.039 175.089 465.267 151.841 465.267 151.841C465.267 151.841 451.213 160.178 445.385 167.033C439.557 173.887 437.442 186.167 437.442 186.167C437.442 186.167 427.563 165.202 431.678 155.377C435.792 145.552 457.9 139.672 457.9 139.672C457.9 139.672 440.765 134.186 435.052 132.357C429.34 130.528 417.631 121.329 417.631 121.329C417.631 121.329 423.858 117.389 437.34 116.134C450.821 114.88 459.159 122.879 459.159 122.879Z" fill="#C6FF00"/>
<path d="M437.883 124.31C436.207 123.847 434.518 123.421 432.825 123.046" stroke="#263238" stroke-width="0.551643" stroke-miterlimit="10" stroke-linecap="round" stroke-linejoin="round"/>
<path d="M456.962 89.9722C457.799 96.7404 459.289 105.445 461.789 110.883C466.357 120.823 476.521 141.275 476.521 141.275C476.521 141.275 460.64 131.457 442.117 125.569" stroke="#263238" stroke-width="0.551643" stroke-miterlimit="10" stroke-linecap="round" stroke-linejoin="round"/>
<path d="M456.024 80.0932C456.024 80.0932 456.14 82.1267 456.441 85.2251" stroke="#263238" stroke-width="0.551643" stroke-miterlimit="10" stroke-linecap="round" stroke-linejoin="round"/>
<path d="M476.522 141.275C476.522 141.275 446.13 149.953 440.018 157.321C433.904 164.689 436.073 175.314 436.073 175.314" stroke="#263238" stroke-width="0.551643" stroke-miterlimit="10" stroke-linecap="round" stroke-linejoin="round"/>
<path d="M512.264 115.438C517.936 112.368 519.883 112.892 519.883 112.892" stroke="#263238" stroke-width="0.551643" stroke-miterlimit="10" stroke-linecap="round" stroke-linejoin="round"/>
<path d="M470.802 193.942C470.802 193.942 464.805 186.573 467.207 173.777C469.608 160.981 478.521 143.731 478.521 143.731C478.521 143.731 499.526 124.27 508.426 117.832" stroke="#263238" stroke-width="0.551643" stroke-miterlimit="10" stroke-linecap="round" stroke-linejoin="round"/>
<path d="M481.354 131.719C479.833 138.391 478.52 143.732 478.52 143.732" stroke="#263238" stroke-width="0.551643" stroke-miterlimit="10" stroke-linecap="round" stroke-linejoin="round"/>
<path d="M492.348 90.4291C489.58 96.2058 486.346 103.816 485.837 108.773C485.422 112.812 483.881 120.371 482.319 127.429" stroke="#263238" stroke-width="0.551643" stroke-miterlimit="10" stroke-linecap="round" stroke-linejoin="round"/>
<path d="M496.466 82.3842C496.466 82.3842 495.423 84.262 493.988 87.0996" stroke="#263238" stroke-width="0.551643" stroke-miterlimit="10" stroke-linecap="round" stroke-linejoin="round"/>
<path d="M482.176 144.417C482.176 144.417 511.767 142.023 517.479 143.851C523.19 145.68 527.304 147.965 527.304 147.965" stroke="#263238" stroke-width="0.551643" stroke-miterlimit="10" stroke-linecap="round" stroke-linejoin="round"/>
<path d="M485.413 154.591C487.45 159.352 490.375 165.329 493.483 168.868C499.252 175.439 505.877 180.466 505.877 180.466" stroke="#263238" stroke-width="0.551643" stroke-miterlimit="10" stroke-linecap="round" stroke-linejoin="round"/>
<path d="M482.576 147.331C482.576 147.331 483.211 149.177 484.282 151.857" stroke="#263238" stroke-width="0.551643" stroke-miterlimit="10" stroke-linecap="round" stroke-linejoin="round"/>
<path opacity="0.3" d="M648.121 433.315C642.059 427.212 623.464 388.971 611.147 361.356L627.912 357.468C630.953 356.762 633.456 354.997 635.139 352.661C635.563 352.071 635.926 351.439 636.241 350.784C636.545 350.155 636.789 349.5 636.983 348.826C637.614 346.628 637.656 344.231 636.942 341.867C636.819 341.46 636.677 341.063 636.516 340.677C636.036 339.522 635.393 338.472 634.624 337.547C633.855 336.623 632.96 335.821 631.973 335.165C631.315 334.726 630.615 334.353 629.886 334.047C627.335 332.978 624.409 332.756 621.554 333.618L601.887 339.558C600.927 337.083 600.24 335.148 599.899 333.916C599.31 331.795 598.6 329.958 597.76 328.361C597.618 327.351 597.409 325.868 597.1 323.66C596.141 316.845 590.609 308.761 583.207 306.175C575.805 303.589 553.736 303.298 546.276 301.201C538.817 299.106 486.262 289.611 479.978 294.603C473.694 299.595 470.106 313.588 465.607 322.511C461.109 331.433 445.412 364.404 445.412 364.404C445.073 363.475 434.352 375.085 433.577 381.797C433.348 382.715 433.366 383.459 433.74 383.928C435.338 385.939 438.174 387.802 442.681 387.635L430.388 391.347C428.926 391.788 427.917 393.035 427.709 394.473C423.346 395.779 414.637 398.781 409.425 403.246C409.425 403.246 421.453 403.411 429.51 401.56C430.415 402.491 431.765 402.95 433.126 402.634L449.922 398.739C450.051 399.686 450.252 400.674 450.574 401.75C450.835 402.624 451.381 403.38 452.081 404.052C452.391 404.54 452.734 405.03 453.124 405.518C459.636 413.714 476.618 419.384 488.652 422.749C500.684 426.113 514.823 434.935 526.825 447.237C538.828 459.538 548.378 471.559 566.656 481.102C569.925 482.809 573.148 484.181 576.272 485.296L712.684 502.064C712.683 502.068 657.028 442.28 648.121 433.315ZM456.53 382.437C456.475 382.795 456.43 383.147 456.413 383.493L453.307 384.431C454.363 383.888 455.442 383.214 456.53 382.437Z" fill="black"/>
<path d="M668.165 567.281L546.35 482.947C546.35 482.947 513.981 433.793 487.977 420.137C461.974 406.48 432.237 401.585 440.14 384.61C448.044 367.633 471.325 331.309 478.743 329.427C486.161 327.544 542.613 329.041 557.279 326.746C571.946 324.452 579.019 327.745 582.358 339.8C585.695 351.854 621.673 430.229 630.58 439.197C639.487 448.163 718.017 504.942 718.017 504.942" fill="white"/>
<mask id="mask4_305_10957" style="mask-type:luminance" maskUnits="userSpaceOnUse" x="438" y="326" width="281" height="242">
<path d="M668.165 567.281L546.35 482.947C546.35 482.947 513.981 433.793 487.977 420.137C461.974 406.48 432.237 401.585 440.14 384.61C448.044 367.633 471.325 331.309 478.743 329.427C486.161 327.544 542.613 329.041 557.279 326.746C571.946 324.452 579.019 327.745 582.358 339.8C585.695 351.854 621.673 430.229 630.58 439.197C639.487 448.163 718.017 504.942 718.017 504.942" fill="white"/>
</mask>
<g mask="url(#mask4_305_10957)">
<path d="M630.581 439.198C621.674 430.232 585.697 351.857 582.358 339.802C580.312 332.414 576.853 328.329 571.114 326.793C574.3 332.753 576.07 340.083 576.707 346.339C577.925 358.301 579.531 366.393 579.531 366.393C579.531 366.393 596.287 403.473 607.519 421.033C618.754 438.594 646.468 466.077 666.466 478.767C681.264 488.156 699.06 494.508 707.32 497.177C685.525 481.317 637.436 446.099 630.581 439.198Z" fill="#C6FF00"/>
</g>
<mask id="mask5_305_10957" style="mask-type:luminance" maskUnits="userSpaceOnUse" x="438" y="326" width="281" height="242">
<path d="M668.165 567.281L546.35 482.947C546.35 482.947 513.981 433.793 487.977 420.137C461.974 406.48 432.237 401.585 440.14 384.61C448.044 367.633 471.325 331.309 478.743 329.427C486.161 327.544 542.613 329.041 557.279 326.746C571.946 324.452 579.019 327.745 582.358 339.8C585.695 351.854 621.673 430.229 630.58 439.197C639.487 448.163 718.017 504.942 718.017 504.942" fill="white"/>
</mask>
<g mask="url(#mask5_305_10957)">
<path opacity="0.5" d="M630.581 439.198C621.674 430.232 585.697 351.857 582.358 339.802C580.312 332.414 576.853 328.329 571.114 326.793C574.3 332.753 576.07 340.083 576.707 346.339C577.925 358.301 579.531 366.393 579.531 366.393C579.531 366.393 596.287 403.473 607.519 421.033C618.754 438.594 646.468 466.077 666.466 478.767C681.264 488.156 699.06 494.508 707.32 497.177C685.525 481.317 637.436 446.099 630.581 439.198Z" fill="white"/>
</g>
<path d="M668.165 567.281L546.35 482.947C546.35 482.947 513.981 433.793 487.977 420.137C461.974 406.48 432.237 401.585 440.14 384.61C448.044 367.633 471.325 331.309 478.743 329.427C486.161 327.544 542.613 329.041 557.279 326.746C571.946 324.452 579.019 327.745 582.358 339.8C585.695 351.854 621.673 430.229 630.58 439.197C639.487 448.163 718.017 504.942 718.017 504.942" stroke="#263238" stroke-width="1.49823" stroke-miterlimit="10" stroke-linecap="round"/>
<path d="M423.439 395.046C423.439 395.046 437.916 388.217 448.443 371.452C458.97 354.688 453.291 355.154 453.291 355.154C453.291 355.154 459.994 349.041 463.966 344.956C467.937 340.869 472.296 332.914 472.296 332.914C472.296 332.914 497.574 336.475 508.329 335.826C519.084 335.177 523.803 334.098 523.803 334.098L544.226 344.701C544.226 344.701 535.963 353.761 533.848 368.032C531.732 382.305 529.514 401.05 526.145 404.851C522.777 408.653 525.439 409.609 503.326 411.191C481.21 412.776 427.353 406.474 423.439 395.046Z" fill="#C6FF00"/>
<path opacity="0.5" d="M423.439 395.046C423.439 395.046 437.916 388.217 448.443 371.452C458.97 354.688 453.291 355.154 453.291 355.154C453.291 355.154 459.994 349.041 463.966 344.956C467.937 340.869 472.296 332.914 472.296 332.914C472.296 332.914 497.574 336.475 508.329 335.826C519.084 335.177 523.803 334.098 523.803 334.098L544.226 344.701C544.226 344.701 535.963 353.761 533.848 368.032C531.732 382.305 529.514 401.05 526.145 404.851C522.777 408.653 525.439 409.609 503.326 411.191C481.21 412.776 427.353 406.474 423.439 395.046Z" fill="white"/>
<path d="M459.486 384.839C459.486 384.839 473.139 376.22 474.579 352.793C474.579 352.793 489.013 352.212 499.996 343.04" stroke="#263238" stroke-width="1.49823" stroke-miterlimit="10" stroke-linecap="round"/>
<path d="M492.454 352.852C492.454 352.852 494.178 374.656 520.48 392.187" stroke="#263238" stroke-width="1.49823" stroke-miterlimit="10" stroke-linecap="round"/>
<path d="M477.765 361.849C477.765 361.849 489.299 367.392 494.18 374.655" stroke="#263238" stroke-width="1.49823" stroke-miterlimit="10" stroke-linecap="round"/>
<path d="M515.003 405.351C515.003 405.351 523.494 391.92 526.256 380.811C529.018 369.703 527.907 359.89 536.544 351.691" stroke="#263238" stroke-width="1.49823" stroke-miterlimit="10" stroke-linecap="round"/>
<path d="M474.58 352.793L469.952 350.684" stroke="#263238" stroke-width="1.49823" stroke-miterlimit="10" stroke-linecap="round"/>
<path d="M412.843 399.614C412.843 399.614 399.044 403.001 391.884 409.135C391.884 409.135 406.76 409.349 414.507 406.759L412.843 399.614Z" fill="#263238" stroke="#263238" stroke-width="1.49823" stroke-miterlimit="10" stroke-linecap="round"/>
<path d="M604.013 339.503L412.85 397.237C410.962 397.808 409.813 399.715 410.194 401.65L410.955 405.526C411.374 407.656 413.474 409.014 415.587 408.524L610.373 363.353C617.325 361.741 621.467 354.586 619.402 347.754C617.43 341.225 610.541 337.532 604.013 339.503Z" fill="#C6FF00" stroke="#263238" stroke-width="1.49823" stroke-miterlimit="10" stroke-linecap="round"/>
<path d="M604.014 339.503L575.121 348.229C571.58 353.398 571.731 360.616 575.967 365.946C577.414 367.766 579.186 369.163 581.12 370.135L610.372 363.35C617.325 361.739 621.467 354.583 619.402 347.751C617.431 341.225 610.542 337.532 604.014 339.503Z" fill="#263238" stroke="#263238" stroke-width="1.49823" stroke-miterlimit="10" stroke-linecap="round"/>
<path d="M539.575 390.284C539.575 390.284 525.915 401.138 518.28 402.747C510.646 404.356 487.311 391.254 474.621 389.304C461.93 387.354 455.332 388.585 444.531 391.818C433.73 395.052 429.071 403.21 435.583 411.406C442.095 419.602 459.077 425.272 471.111 428.637C483.143 432.002 497.282 440.823 509.284 453.125C521.287 465.426 530.837 477.447 549.115 486.99C567.393 496.533 584.343 495.99 589.471 494.592" fill="white"/>
<mask id="mask6_305_10957" style="mask-type:luminance" maskUnits="userSpaceOnUse" x="432" y="388" width="158" height="108">
<path d="M539.575 390.284C539.575 390.284 525.915 401.138 518.28 402.747C510.646 404.356 487.311 391.254 474.621 389.304C461.93 387.354 455.332 388.585 444.531 391.818C433.73 395.052 429.071 403.21 435.583 411.406C442.095 419.602 459.077 425.272 471.111 428.637C483.143 432.002 497.282 440.823 509.284 453.125C521.287 465.426 530.837 477.447 549.115 486.99C567.393 496.533 584.343 495.99 589.471 494.592" fill="white"/>
</mask>
<g mask="url(#mask6_305_10957)">
<path d="M532.981 396.058C532.981 396.058 532.498 396.045 531.635 396.014C527.296 398.898 522.053 401.95 518.28 402.746C510.646 404.355 487.311 391.254 474.621 389.303C461.93 387.354 455.332 388.584 444.531 391.818C442.683 392.372 441.031 393.078 439.567 393.895C442.957 393.202 453.952 391.35 465.896 393.582C480.276 396.269 497.299 412.278 510.903 410.231C524.506 408.183 532.981 396.058 532.981 396.058Z" fill="#C6FF00"/>
</g>
<mask id="mask7_305_10957" style="mask-type:luminance" maskUnits="userSpaceOnUse" x="432" y="388" width="158" height="108">
<path d="M539.575 390.284C539.575 390.284 525.915 401.138 518.28 402.747C510.646 404.356 487.311 391.254 474.621 389.304C461.93 387.354 455.332 388.585 444.531 391.818C433.73 395.052 429.071 403.21 435.583 411.406C442.095 419.602 459.077 425.272 471.111 428.637C483.143 432.002 497.282 440.823 509.284 453.125C521.287 465.426 530.837 477.447 549.115 486.99C567.393 496.533 584.343 495.99 589.471 494.592" fill="white"/>
</mask>
<g mask="url(#mask7_305_10957)">
<path opacity="0.5" d="M532.981 396.058C532.981 396.058 532.498 396.045 531.635 396.014C527.296 398.898 522.053 401.95 518.28 402.746C510.646 404.355 487.311 391.254 474.621 389.303C461.93 387.354 455.332 388.584 444.531 391.818C442.683 392.372 441.031 393.078 439.567 393.895C442.957 393.202 453.952 391.35 465.896 393.582C480.276 396.269 497.299 412.278 510.903 410.231C524.506 408.183 532.981 396.058 532.981 396.058Z" fill="white"/>
</g>
<path d="M539.575 390.284C539.575 390.284 525.915 401.138 518.28 402.747C510.646 404.356 487.311 391.254 474.621 389.304C461.93 387.354 455.332 388.585 444.531 391.818C433.73 395.052 429.071 403.21 435.583 411.406C442.095 419.602 459.077 425.272 471.111 428.637C483.143 432.002 497.282 440.823 509.284 453.125C521.287 465.426 530.837 477.447 549.115 486.99C567.393 496.533 584.343 495.99 589.471 494.592" stroke="#263238" stroke-width="1.49823" stroke-miterlimit="10" stroke-linecap="round"/>
<path d="M446.417 414.385C446.417 414.385 443.393 406.092 450.793 393.527C450.793 393.527 441.261 392.187 436.673 395.387C432.085 398.587 431.419 402.236 433.035 407.636C434.65 413.038 446.417 414.385 446.417 414.385Z" fill="white" stroke="#263238" stroke-width="1.49823" stroke-miterlimit="10" stroke-linecap="round"/>
<path d="M457.555 419.457C458.537 419.825 459.79 420.138 461.382 420.321" stroke="#263238" stroke-width="1.49823" stroke-miterlimit="10" stroke-linecap="round"/>
<path d="M456.611 396.927C456.611 396.927 447.854 408.342 454.092 416.755" stroke="#263238" stroke-width="1.49823" stroke-miterlimit="10" stroke-linecap="round"/>
<path d="M580.519 336.361C580.519 336.361 580.519 336.361 579.56 329.546C578.601 322.731 573.07 314.647 565.667 312.061C558.265 309.475 536.196 309.183 528.737 307.088C521.278 304.993 468.722 295.499 462.439 300.49C456.155 305.482 452.567 319.475 448.067 328.398C443.57 337.32 427.872 370.291 427.872 370.291C427.872 370.291 413.595 386.537 416.199 389.816C418.804 393.095 424.68 396.002 435.761 390.317C446.842 384.632 460.315 364.568 462.397 361.578C464.478 358.588 476.697 338.629 476.697 338.629C476.697 338.629 487.42 342.589 497.611 342.514C507.801 342.439 509.056 342.335 509.056 342.335C509.056 342.335 514.973 349.221 523.034 350.393" fill="white"/>
<mask id="mask8_305_10957" style="mask-type:luminance" maskUnits="userSpaceOnUse" x="415" y="299" width="166" height="95">
<path d="M580.519 336.361C580.519 336.361 580.519 336.361 579.56 329.546C578.601 322.731 573.07 314.647 565.667 312.061C558.265 309.475 536.196 309.183 528.737 307.088C521.278 304.993 468.722 295.499 462.439 300.49C456.155 305.482 452.567 319.475 448.067 328.398C443.57 337.32 427.872 370.291 427.872 370.291C427.872 370.291 413.595 386.537 416.199 389.816C418.804 393.095 424.68 396.002 435.761 390.317C446.842 384.632 460.315 364.568 462.397 361.578C464.478 358.588 476.697 338.629 476.697 338.629C476.697 338.629 487.42 342.589 497.611 342.514C507.801 342.439 509.056 342.335 509.056 342.335C509.056 342.335 514.973 349.221 523.034 350.393" fill="white"/>
</mask>
<g mask="url(#mask8_305_10957)">
<path d="M558.609 315.793C567.522 317.834 572.705 327.75 575.18 337.665L580.517 336.363C580.517 336.363 580.517 336.363 579.559 329.548C578.6 322.733 573.068 314.649 565.666 312.063C558.264 309.477 536.195 309.185 528.735 307.089C526.789 306.542 521.757 305.49 515.294 304.325L514.404 304.939C514.404 304.939 547.035 313.141 558.609 315.793Z" fill="#C6FF00"/>
</g>
<mask id="mask9_305_10957" style="mask-type:luminance" maskUnits="userSpaceOnUse" x="415" y="299" width="166" height="95">
<path d="M580.519 336.361C580.519 336.361 580.519 336.361 579.56 329.546C578.601 322.731 573.07 314.647 565.667 312.061C558.265 309.475 536.196 309.183 528.737 307.088C521.278 304.993 468.722 295.499 462.439 300.49C456.155 305.482 452.567 319.475 448.067 328.398C443.57 337.32 427.872 370.291 427.872 370.291C427.872 370.291 413.595 386.537 416.199 389.816C418.804 393.095 424.68 396.002 435.761 390.317C446.842 384.632 460.315 364.568 462.397 361.578C464.478 358.588 476.697 338.629 476.697 338.629C476.697 338.629 487.42 342.589 497.611 342.514C507.801 342.439 509.056 342.335 509.056 342.335C509.056 342.335 514.973 349.221 523.034 350.393" fill="white"/>
</mask>
<g mask="url(#mask9_305_10957)">
<path opacity="0.5" d="M558.609 315.793C567.522 317.834 572.705 327.75 575.18 337.665L580.517 336.363C580.517 336.363 580.517 336.363 579.559 329.548C578.6 322.733 573.068 314.649 565.666 312.063C558.264 309.477 536.195 309.185 528.735 307.089C526.789 306.542 521.757 305.49 515.294 304.325L514.404 304.939C514.404 304.939 547.035 313.141 558.609 315.793Z" fill="white"/>
</g>
<mask id="mask10_305_10957" style="mask-type:luminance" maskUnits="userSpaceOnUse" x="415" y="299" width="166" height="95">
<path d="M580.519 336.361C580.519 336.361 580.519 336.361 579.56 329.546C578.601 322.731 573.07 314.647 565.667 312.061C558.265 309.475 536.196 309.183 528.737 307.088C521.278 304.993 468.722 295.499 462.439 300.49C456.155 305.482 452.567 319.475 448.067 328.398C443.57 337.32 427.872 370.291 427.872 370.291C427.872 370.291 413.595 386.537 416.199 389.816C418.804 393.095 424.68 396.002 435.761 390.317C446.842 384.632 460.315 364.568 462.397 361.578C464.478 358.588 476.697 338.629 476.697 338.629C476.697 338.629 487.42 342.589 497.611 342.514C507.801 342.439 509.056 342.335 509.056 342.335C509.056 342.335 514.973 349.221 523.034 350.393" fill="white"/>
</mask>
<g mask="url(#mask10_305_10957)">
<path d="M423.439 395.046C423.439 395.046 437.916 388.217 448.443 371.452C458.97 354.688 453.291 355.154 453.291 355.154C453.291 355.154 459.994 349.041 463.966 344.956C467.937 340.87 472.296 332.914 472.296 332.914C472.296 332.914 497.574 336.475 508.329 335.826C519.084 335.177 523.803 334.099 523.803 334.099L544.226 344.701C544.226 344.701 535.963 353.761 533.848 368.033C531.732 382.305 529.514 401.05 526.145 404.851C522.777 408.653 525.439 409.609 503.326 411.191C481.21 412.777 427.354 406.474 423.439 395.046Z" fill="#C6FF00"/>
</g>
<mask id="mask11_305_10957" style="mask-type:luminance" maskUnits="userSpaceOnUse" x="415" y="299" width="166" height="95">
<path d="M580.519 336.361C580.519 336.361 580.519 336.361 579.56 329.546C578.601 322.731 573.07 314.647 565.667 312.061C558.265 309.475 536.196 309.183 528.737 307.088C521.278 304.993 468.722 295.499 462.439 300.49C456.155 305.482 452.567 319.475 448.067 328.398C443.57 337.32 427.872 370.291 427.872 370.291C427.872 370.291 413.595 386.537 416.199 389.816C418.804 393.095 424.68 396.002 435.761 390.317C446.842 384.632 460.315 364.568 462.397 361.578C464.478 358.588 476.697 338.629 476.697 338.629C476.697 338.629 487.42 342.589 497.611 342.514C507.801 342.439 509.056 342.335 509.056 342.335C509.056 342.335 514.973 349.221 523.034 350.393" fill="white"/>
</mask>
<g mask="url(#mask11_305_10957)">
<path opacity="0.5" d="M423.439 395.046C423.439 395.046 437.916 388.217 448.443 371.452C458.97 354.688 453.291 355.154 453.291 355.154C453.291 355.154 459.994 349.041 463.966 344.956C467.937 340.87 472.296 332.914 472.296 332.914C472.296 332.914 497.574 336.475 508.329 335.826C519.084 335.177 523.803 334.099 523.803 334.099L544.226 344.701C544.226 344.701 535.963 353.761 533.848 368.033C531.732 382.305 529.514 401.05 526.145 404.851C522.777 408.653 525.439 409.609 503.326 411.191C481.21 412.777 427.354 406.474 423.439 395.046Z" fill="white"/>
</g>
<path d="M580.519 336.361C580.519 336.361 580.519 336.361 579.56 329.546C578.601 322.731 573.07 314.647 565.667 312.061C558.265 309.475 536.196 309.183 528.737 307.088C521.278 304.993 468.722 295.499 462.439 300.49C456.155 305.482 452.567 319.475 448.067 328.398C443.57 337.32 427.872 370.291 427.872 370.291C427.872 370.291 413.595 386.537 416.199 389.816C418.804 393.095 424.68 396.002 435.761 390.317C446.842 384.632 460.315 364.568 462.397 361.578C464.478 358.588 476.697 338.629 476.697 338.629C476.697 338.629 487.42 342.589 497.611 342.514C507.801 342.439 509.056 342.335 509.056 342.335C509.056 342.335 514.973 349.221 523.034 350.393" stroke="#263238" stroke-width="1.49823" stroke-miterlimit="10" stroke-linecap="round"/>
<path d="M416.201 389.817C416.201 389.817 418.436 389.824 421.553 386.456C424.67 383.088 428.252 371.328 427.874 370.292C427.494 369.255 414.149 383.87 416.201 389.817Z" fill="white" stroke="#263238" stroke-width="1.49823" stroke-miterlimit="10" stroke-linecap="round"/>
<path d="M469.774 325.825C469.568 324.959 469.4 324.059 469.284 323.129" stroke="#263238" stroke-width="1.49823" stroke-miterlimit="10" stroke-linecap="round"/>
<path d="M476.698 338.63C476.698 338.63 473.023 334.995 470.785 329.095" stroke="#263238" stroke-width="1.49823" stroke-miterlimit="10" stroke-linecap="round"/>
<g clip-path="url(#clip2_305_10957)">
<path d="M519.096 590.854C518.838 590.816 518.585 590.81 518.313 590.792C518.041 590.773 518.272 590.564 518.171 590.464C517.324 588.791 516.175 587.288 514.779 586.032C514.672 585.929 514.549 585.843 514.415 585.778C513.492 585.28 512.338 585.623 511.84 586.546C511.839 586.55 511.836 586.553 511.835 586.557C510.959 588.214 510.405 590.022 510.2 591.885C510.159 592.127 510.148 592.348 510.121 592.571C510.093 592.794 509.702 592.763 509.505 592.882C507.825 593.714 506.319 594.858 505.071 596.258C504.968 596.365 504.883 596.488 504.818 596.622C504.315 597.532 504.647 598.679 505.557 599.181C505.57 599.189 505.583 599.195 505.596 599.203C507.254 600.083 509.062 600.642 510.926 600.855C511.046 600.859 511.166 600.871 511.285 600.892C511.329 601.136 511.486 601.36 511.611 601.59C512.531 603.355 513.897 604.847 515.572 605.92C516.358 606.418 517.396 606.233 517.963 605.494C519.164 603.908 519.929 602.036 520.183 600.062C520.157 599.915 520.134 599.785 520.222 599.618L520.624 599.429C522.389 598.508 523.881 597.143 524.954 595.467C525.451 594.68 525.266 593.642 524.527 593.076C522.938 591.88 521.068 591.115 519.096 590.854Z" fill="black" fill-opacity="0.05"/>
</g>
<circle cx="69.5194" cy="170.257" r="72.5073" transform="rotate(-10.1058 69.5194 170.257)" fill="black" fill-opacity="0.05"/>
<circle cx="269.637" cy="623.626" r="36.2536" transform="rotate(-10.1058 269.637 623.626)" fill="black" fill-opacity="0.05"/>
<g clip-path="url(#clip3_305_10957)">
<path d="M217.492 237.096C214.026 236.15 210.432 235.745 206.842 235.893C204.933 235.948 203.028 236.105 201.135 236.369C200.688 234.594 200.161 232.834 199.567 231.069C198.491 227.71 197.067 224.47 195.318 221.406C195.082 221.019 194.696 220.749 194.25 220.661C193.41 220.54 192.619 221.09 192.44 221.919C191.861 225.4 191.637 228.931 191.775 232.458C191.839 234.383 191.98 236.277 192.168 238.164C190.317 238.641 188.494 239.18 186.681 239.782C183.319 240.865 180.076 242.29 177.003 244.033C176.613 244.274 176.344 244.668 176.261 245.117C176.14 245.958 176.69 246.749 177.519 246.928C181.003 247.511 184.54 247.728 188.07 247.574C189.915 247.525 191.746 247.395 193.585 247.215C193.987 249.083 194.491 250.926 195.094 252.739C196.194 256.157 197.821 259.382 199.916 262.299C200.078 262.536 200.318 262.706 200.593 262.785C201.301 262.992 202.043 262.588 202.253 261.882C203.205 258.419 203.616 254.833 203.475 251.245C203.419 249.401 203.266 247.56 203.017 245.731C204.815 245.342 206.591 244.849 208.333 244.258C211.753 243.156 214.986 241.535 217.912 239.45C218.139 239.276 218.304 239.034 218.379 238.759C218.589 238.056 218.194 237.314 217.492 237.096Z" fill="black" fill-opacity="0.05"/>
</g>
<g clip-path="url(#clip4_305_10957)">
<path d="M171.487 199.832C171.229 199.794 170.976 199.789 170.704 199.77C170.432 199.751 170.663 199.542 170.562 199.443C169.715 197.769 168.566 196.266 167.17 195.01C167.063 194.907 166.94 194.821 166.806 194.756C165.883 194.258 164.729 194.601 164.231 195.524C164.23 195.528 164.227 195.532 164.226 195.535C163.35 197.192 162.796 199 162.591 200.863C162.55 201.106 162.539 201.326 162.512 201.549C162.484 201.772 162.093 201.741 161.896 201.86C160.216 202.692 158.71 203.837 157.463 205.236C157.359 205.343 157.274 205.466 157.209 205.6C156.706 206.511 157.038 207.657 157.948 208.16C157.962 208.167 157.974 208.173 157.987 208.181C159.645 209.061 161.453 209.62 163.317 209.833C163.437 209.837 163.557 209.85 163.676 209.87C163.72 210.114 163.877 210.338 164.002 210.568C164.922 212.333 166.288 213.825 167.963 214.898C168.749 215.396 169.787 215.211 170.354 214.472C171.555 212.887 172.32 211.014 172.574 209.04C172.548 208.893 172.525 208.763 172.613 208.596L173.016 208.407C174.78 207.487 176.272 206.121 177.345 204.446C177.842 203.659 177.657 202.62 176.918 202.054C175.329 200.858 173.459 200.093 171.487 199.832Z" fill="black" fill-opacity="0.05"/>
</g>
</g>
</g>
<defs>
<clipPath id="clip0_305_10957">
<rect width="732" height="732" rx="366" fill="white"/>
</clipPath>
<clipPath id="clip1_305_10957">
<rect width="794.13" height="794.13" fill="white" transform="translate(-152.485 164.339) rotate(-25.2558)"/>
</clipPath>
<clipPath id="clip2_305_10957">
<rect width="20.9168" height="20.9168" fill="white" transform="translate(502.753 587.437) rotate(-10.1058)"/>
</clipPath>
<clipPath id="clip3_305_10957">
<rect width="42.8064" height="42.8064" fill="white" transform="translate(172.495 224.455) rotate(-10.1058)"/>
</clipPath>
<clipPath id="clip4_305_10957">
<rect width="20.9168" height="20.9168" fill="white" transform="translate(155.144 196.415) rotate(-10.1058)"/>
</clipPath>
</defs>
</svg>
