<svg width="325" height="285" viewBox="0 0 325 285" fill="none" xmlns="http://www.w3.org/2000/svg">
<path opacity="0.3" d="M192.578 64.3604C192.874 64.1599 192.952 63.7575 192.752 63.4615C192.551 63.1654 192.149 63.0878 191.853 63.2883L189.693 64.7504L189.414 64.3383L191.573 62.8762C191.869 62.6757 191.947 62.2733 191.746 61.9773C191.546 61.6812 191.143 61.6036 190.847 61.8041L188.688 63.2662L186.675 60.2938L176.698 57.2722L164.521 268.828L173.774 270.257L280.096 198.268L274.929 190.638L277.089 189.176C277.385 188.975 277.462 188.573 277.262 188.277C277.061 187.981 276.659 187.903 276.363 188.103L274.203 189.565L273.924 189.153L276.084 187.691C276.38 187.491 276.458 187.088 276.257 186.792C276.057 186.496 275.654 186.418 275.358 186.619L273.199 188.081L270.482 184.069L272.642 182.607C272.938 182.406 273.016 182.004 272.815 181.708C272.615 181.412 272.212 181.334 271.916 181.535L269.757 182.997L269.477 182.584L271.637 181.122C271.933 180.922 272.01 180.519 271.81 180.223C271.609 179.927 271.207 179.85 270.911 180.05L268.751 181.512L266.035 177.5L268.194 176.038C268.49 175.838 268.568 175.435 268.367 175.139C268.167 174.843 267.764 174.766 267.468 174.966L265.309 176.428L265.029 176.016L267.189 174.554C267.485 174.354 267.563 173.951 267.362 173.655C267.162 173.359 266.759 173.281 266.463 173.482L264.304 174.944L261.587 170.932L263.746 169.47C264.042 169.269 264.12 168.867 263.92 168.571C263.719 168.275 263.317 168.197 263.021 168.398L260.861 169.86L260.582 169.448L262.741 167.986C263.037 167.785 263.115 167.383 262.914 167.087C262.714 166.791 262.311 166.713 262.015 166.914L259.856 168.376L257.139 164.364L259.299 162.902C259.595 162.701 259.672 162.299 259.472 162.003C259.271 161.707 258.869 161.629 258.573 161.829L256.413 163.291L256.134 162.879L258.294 161.417C258.59 161.217 258.668 160.814 258.467 160.518C258.267 160.222 257.864 160.144 257.568 160.345L255.409 161.807L252.692 157.795L254.852 156.333C255.148 156.132 255.226 155.73 255.025 155.434C254.825 155.138 254.422 155.06 254.126 155.261L251.967 156.723L251.687 156.31L253.847 154.848C254.143 154.648 254.221 154.245 254.021 153.949C253.82 153.653 253.418 153.576 253.122 153.776L250.962 155.238L248.245 151.226L250.405 149.764C250.701 149.563 250.779 149.161 250.579 148.865C250.378 148.569 249.976 148.491 249.68 148.692L247.52 150.154L247.241 149.742L249.4 148.28C249.696 148.079 249.774 147.677 249.573 147.381C249.373 147.084 248.97 147.007 248.674 147.207L246.515 148.669L243.798 144.657L245.958 143.195C246.254 142.995 246.331 142.592 246.131 142.296C245.93 142 245.528 141.923 245.232 142.123L243.072 143.585L242.793 143.173L244.952 141.711C245.248 141.511 245.326 141.108 245.126 140.812C244.925 140.516 244.523 140.439 244.227 140.639L242.067 142.101L239.35 138.089L241.51 136.627C241.806 136.426 241.883 136.024 241.683 135.728C241.482 135.432 241.08 135.354 240.784 135.555L238.624 137.017L238.345 136.605L240.505 135.143C240.801 134.942 240.879 134.54 240.678 134.244C240.478 133.947 240.075 133.87 239.779 134.07L237.62 135.532L234.903 131.52L237.063 130.058C237.359 129.858 237.436 129.455 237.236 129.159C237.035 128.863 236.633 128.786 236.337 128.986L234.177 130.448L233.898 130.036L236.058 128.574C236.354 128.373 236.432 127.971 236.231 127.675C236.031 127.379 235.628 127.301 235.332 127.502L233.173 128.964L230.456 124.952L232.616 123.489C232.912 123.289 232.99 122.886 232.789 122.59C232.589 122.294 232.186 122.217 231.89 122.417L229.731 123.879L229.451 123.467L231.611 122.005C231.907 121.805 231.984 121.402 231.784 121.106C231.583 120.81 231.181 120.733 230.885 120.933L228.725 122.395L226.009 118.383L228.168 116.921C228.464 116.721 228.542 116.318 228.341 116.022C228.141 115.726 227.738 115.648 227.442 115.849L225.283 117.311L225.003 116.899L227.163 115.437C227.459 115.236 227.537 114.834 227.336 114.538C227.136 114.242 226.733 114.164 226.437 114.365L224.278 115.827L221.561 111.815L223.72 110.353C224.016 110.152 224.094 109.75 223.893 109.454C223.693 109.158 223.291 109.08 222.995 109.281L220.835 110.743L220.556 110.331L222.715 108.869C223.011 108.668 223.089 108.266 222.888 107.97C222.688 107.674 222.285 107.596 221.989 107.796L219.83 109.258L217.113 105.246L219.273 103.784C219.569 103.584 219.646 103.181 219.446 102.885C219.245 102.589 218.843 102.512 218.547 102.712L216.387 104.174L216.108 103.762L218.268 102.3C218.564 102.099 218.642 101.697 218.441 101.401C218.241 101.105 217.838 101.027 217.542 101.228L215.383 102.69L212.666 98.6777L214.825 97.2157C215.121 97.0152 215.199 96.6128 214.998 96.3168C214.798 96.0207 214.396 95.9431 214.1 96.1437L211.94 97.6057L211.661 97.1936L213.821 95.7313C214.117 95.5307 214.194 95.1283 213.994 94.8323C213.793 94.5362 213.391 94.4587 213.095 94.6592L210.935 96.1212L208.219 92.1091L210.378 90.6471C210.674 90.4466 210.752 90.0442 210.551 89.7481C210.351 89.4521 209.948 89.3745 209.652 89.575L207.493 91.037L207.213 90.6249L209.373 89.1629C209.669 88.9624 209.747 88.56 209.546 88.2639C209.346 87.9679 208.943 87.8903 208.647 88.0908L206.488 89.5528L203.771 85.5408L205.93 84.0788C206.226 83.8782 206.304 83.4758 206.103 83.1798C205.903 82.8837 205.501 82.8062 205.205 83.0067L203.045 84.4687L202.766 84.0566L204.925 82.5946C205.221 82.394 205.299 81.9916 205.098 81.6956C204.898 81.3995 204.495 81.322 204.199 81.5225L202.04 82.9845L199.323 78.9724L201.483 77.5104C201.779 77.3099 201.856 76.9075 201.656 76.6114C201.455 76.3154 201.053 76.2378 200.757 76.4383L198.597 77.9003L198.318 77.4882L200.477 76.0262C200.773 75.8257 200.851 75.4233 200.65 75.1272C200.45 74.8312 200.048 74.7536 199.752 74.9541L197.592 76.4161L194.875 72.4041L197.035 70.9421C197.331 70.7415 197.408 70.3391 197.208 70.0431C197.007 69.747 196.605 69.6695 196.309 69.87L194.149 71.332L193.87 70.9199L196.03 69.4579C196.326 69.2574 196.403 68.8549 196.203 68.5589C196.002 68.2628 195.6 68.1853 195.304 68.3858L193.144 69.8478L190.427 65.8357L192.578 64.3604Z" fill="black"/>
<path d="M168.993 268.702L267.576 201.952L171.841 60.5589L73.2569 127.308C70.7417 129.012 70.0834 132.431 71.7861 134.947L161.354 267.23C163.058 269.747 166.477 270.405 168.993 268.702Z" fill="#263238" stroke="#263238" stroke-width="0.679397" stroke-miterlimit="10" stroke-linecap="round"/>
<path d="M162.845 266.222L168.462 262.419L157.833 246.721L152.216 250.524C151.393 251.081 151.177 252.201 151.735 253.024L160.345 265.741C160.902 266.564 162.022 266.779 162.845 266.222Z" fill="white" stroke="#263238" stroke-width="0.679397" stroke-miterlimit="10" stroke-linecap="round"/>
<path d="M151.672 249.72L157.288 245.917L146.659 230.22L141.043 234.022C140.219 234.58 140.004 235.699 140.561 236.523L149.171 249.239C149.729 250.062 150.848 250.278 151.672 249.72Z" fill="#C6FF00" stroke="#263238" stroke-width="0.679397" stroke-miterlimit="10" stroke-linecap="round"/>
<path d="M140.498 233.218L146.115 229.415L135.486 213.717L129.869 217.52C129.046 218.077 128.831 219.197 129.388 220.02L137.998 232.736C138.556 233.559 139.675 233.775 140.498 233.218Z" fill="white" stroke="#263238" stroke-width="0.679397" stroke-miterlimit="10" stroke-linecap="round"/>
<path d="M129.325 216.716L134.942 212.913L124.313 197.215L118.696 201.018C117.873 201.575 117.657 202.695 118.214 203.518L126.825 216.234C127.382 217.058 128.502 217.273 129.325 216.716Z" fill="#C6FF00" stroke="#263238" stroke-width="0.679397" stroke-miterlimit="10" stroke-linecap="round"/>
<path d="M107.523 184.515L110.889 182.236L73.5595 127.104L176.698 57.2712L272.433 198.664L169.295 268.497L121.518 197.934L118.152 200.213C117.328 200.77 116.209 200.555 115.651 199.732L107.041 187.015C106.483 186.192 106.699 185.073 107.523 184.515Z" fill="white" stroke="#263238" stroke-width="0.679397" stroke-miterlimit="10" stroke-linecap="round"/>
<path d="M106.426 151.345L110.724 159.511L149.071 133.137L144.689 126.668L106.426 151.345Z" fill="#C6FF00"/>
<path d="M174.922 69.5408C175.667 70.6407 177.161 70.9286 178.261 70.1836C179.361 69.4386 179.649 67.9439 178.904 66.844C178.159 65.7441 176.664 65.4562 175.564 66.2012C174.465 66.9459 174.177 68.4413 174.922 69.5408Z" fill="#263238" stroke="#263238" stroke-width="0.679397" stroke-miterlimit="10" stroke-linecap="round"/>
<path d="M176.978 67.745L182.999 63.6682C183.295 63.4677 183.373 63.0653 183.172 62.7692C182.972 62.4732 182.569 62.3956 182.273 62.5961L176.252 66.6729C175.956 66.8734 175.879 67.2759 176.079 67.5719C176.28 67.8679 176.682 67.9455 176.978 67.745Z" fill="white" stroke="#263238" stroke-width="0.679397" stroke-miterlimit="10" stroke-linecap="round"/>
<path d="M177.983 69.2299L184.004 65.1531C184.3 64.9526 184.378 64.5502 184.177 64.2541C183.977 63.9581 183.574 63.8805 183.278 64.081L177.258 68.1578C176.961 68.3583 176.884 68.7607 177.084 69.0568C177.285 69.3528 177.687 69.4304 177.983 69.2299Z" fill="white" stroke="#263238" stroke-width="0.679397" stroke-miterlimit="10" stroke-linecap="round"/>
<path d="M179.37 76.1102C180.115 77.21 181.61 77.498 182.71 76.753C183.809 76.008 184.097 74.5132 183.352 73.4134C182.607 72.3135 181.113 72.0256 180.013 72.7705C178.913 73.5149 178.625 75.0103 179.37 76.1102Z" fill="#263238" stroke="#263238" stroke-width="0.679397" stroke-miterlimit="10" stroke-linecap="round"/>
<path d="M181.426 74.3145L187.447 70.2377C187.743 70.0372 187.821 69.6348 187.62 69.3388C187.42 69.0427 187.017 68.9651 186.721 69.1657L180.701 73.2424C180.405 73.4429 180.327 73.8454 180.528 74.1414C180.727 74.4371 181.13 74.5144 181.426 74.3145Z" fill="white" stroke="#263238" stroke-width="0.679397" stroke-miterlimit="10" stroke-linecap="round"/>
<path d="M182.432 75.7988L188.452 71.722C188.748 71.5215 188.826 71.1191 188.625 70.823C188.425 70.527 188.023 70.4494 187.726 70.6499L181.706 74.7267C181.41 74.9272 181.332 75.3296 181.533 75.6257C181.733 75.922 182.135 75.9996 182.432 75.7988Z" fill="white" stroke="#263238" stroke-width="0.679397" stroke-miterlimit="10" stroke-linecap="round"/>
<path d="M183.818 82.6797C184.563 83.7796 186.057 84.0675 187.157 83.3225C188.257 82.5775 188.545 81.0828 187.8 79.9829C187.055 78.883 185.56 78.5951 184.46 79.3401C183.361 80.0842 183.073 81.5795 183.818 82.6797Z" fill="#263238" stroke="#263238" stroke-width="0.679397" stroke-miterlimit="10" stroke-linecap="round"/>
<path d="M185.874 80.8839L191.895 76.8071C192.191 76.6066 192.268 76.2042 192.068 75.9081C191.867 75.6121 191.465 75.5345 191.169 75.735L185.148 79.8118C184.852 80.0123 184.775 80.4147 184.975 80.7108C185.176 81.0068 185.578 81.0844 185.874 80.8839Z" fill="white" stroke="#263238" stroke-width="0.679397" stroke-miterlimit="10" stroke-linecap="round"/>
<path d="M186.879 82.368L192.9 78.2913C193.196 78.0908 193.274 77.6883 193.073 77.3923C192.873 77.0962 192.47 77.0187 192.174 77.2192L186.153 81.296C185.857 81.4965 185.78 81.8989 185.98 82.1949C186.181 82.491 186.583 82.5685 186.879 82.368Z" fill="white" stroke="#263238" stroke-width="0.679397" stroke-miterlimit="10" stroke-linecap="round"/>
<path d="M188.266 89.2485C189.011 90.3483 190.506 90.6363 191.606 89.8913C192.705 89.1463 192.993 87.6516 192.248 86.5517C191.503 85.4518 190.009 85.1639 188.909 85.9089C187.81 86.6535 187.521 88.1486 188.266 89.2485Z" fill="#263238" stroke="#263238" stroke-width="0.679397" stroke-miterlimit="10" stroke-linecap="round"/>
<path d="M190.322 87.4528L196.343 83.376C196.639 83.1755 196.716 82.7731 196.516 82.4771C196.315 82.181 195.913 82.1034 195.617 82.3039L189.596 86.3807C189.3 86.5812 189.223 86.9837 189.423 87.2797C189.624 87.5757 190.026 87.6533 190.322 87.4528Z" fill="white" stroke="#263238" stroke-width="0.679397" stroke-miterlimit="10" stroke-linecap="round"/>
<path d="M191.327 88.9371L197.348 84.8603C197.644 84.6598 197.721 84.2574 197.521 83.9613C197.32 83.6653 196.918 83.5877 196.622 83.7882L190.601 87.865C190.305 88.0655 190.228 88.4679 190.428 88.764C190.628 89.0603 191.031 89.1376 191.327 88.9371Z" fill="white" stroke="#263238" stroke-width="0.679397" stroke-miterlimit="10" stroke-linecap="round"/>
<path d="M192.714 95.8177C193.459 96.9176 194.953 97.2056 196.053 96.4606C197.153 95.7156 197.441 94.2208 196.696 93.1209C195.951 92.0211 194.456 91.7331 193.357 92.4781C192.257 93.2231 191.969 94.7179 192.714 95.8177Z" fill="#263238" stroke="#263238" stroke-width="0.679397" stroke-miterlimit="10" stroke-linecap="round"/>
<path d="M194.77 94.022L200.791 89.9452C201.087 89.7447 201.165 89.3423 200.964 89.0462C200.764 88.7502 200.361 88.6726 200.065 88.8731L194.044 92.9499C193.748 93.1504 193.671 93.5529 193.871 93.8489C194.071 94.1452 194.474 94.2228 194.77 94.022Z" fill="white" stroke="#263238" stroke-width="0.679397" stroke-miterlimit="10" stroke-linecap="round"/>
<path d="M195.775 95.5072L201.796 91.4304C202.092 91.2299 202.169 90.8275 201.969 90.5314C201.768 90.2354 201.366 90.1578 201.07 90.3583L195.049 94.4351C194.753 94.6356 194.675 95.038 194.876 95.3341C195.076 95.6301 195.479 95.7077 195.775 95.5072Z" fill="white" stroke="#263238" stroke-width="0.679397" stroke-miterlimit="10" stroke-linecap="round"/>
<path d="M197.161 102.387C197.906 103.487 199.401 103.775 200.501 103.03C201.601 102.285 201.889 100.79 201.144 99.6902C200.399 98.5904 198.904 98.3024 197.804 99.0474C196.705 99.7921 196.417 101.287 197.161 102.387Z" fill="#263238" stroke="#263238" stroke-width="0.679397" stroke-miterlimit="10" stroke-linecap="round"/>
<path d="M199.218 100.591L205.238 96.5145C205.534 96.314 205.612 95.9116 205.411 95.6156C205.211 95.3195 204.808 95.2419 204.512 95.4424L198.492 99.5192C198.196 99.7197 198.118 100.122 198.319 100.418C198.519 100.714 198.921 100.792 199.218 100.591Z" fill="white" stroke="#263238" stroke-width="0.679397" stroke-miterlimit="10" stroke-linecap="round"/>
<path d="M200.223 102.076L206.244 97.9994C206.54 97.7989 206.617 97.3965 206.417 97.1005C206.216 96.8044 205.814 96.7268 205.518 96.9273L199.497 101.004C199.201 101.205 199.123 101.607 199.324 101.903C199.524 102.199 199.927 102.277 200.223 102.076Z" fill="white" stroke="#263238" stroke-width="0.679397" stroke-miterlimit="10" stroke-linecap="round"/>
<path d="M201.609 108.956C202.354 110.056 203.849 110.343 204.949 109.598C206.049 108.853 206.337 107.359 205.592 106.259C204.847 105.159 203.352 104.871 202.252 105.616C201.152 106.361 200.865 107.856 201.609 108.956Z" fill="#263238" stroke="#263238" stroke-width="0.679397" stroke-miterlimit="10" stroke-linecap="round"/>
<path d="M203.665 107.16L209.686 103.083C209.982 102.883 210.06 102.48 209.859 102.184C209.659 101.888 209.256 101.811 208.96 102.011L202.94 106.088C202.644 106.289 202.566 106.691 202.767 106.987C202.966 107.283 203.369 107.361 203.665 107.16Z" fill="white" stroke="#263238" stroke-width="0.679397" stroke-miterlimit="10" stroke-linecap="round"/>
<path d="M204.671 108.645L210.692 104.568C210.988 104.368 211.065 103.965 210.865 103.669C210.664 103.373 210.262 103.296 209.966 103.496L203.945 107.573C203.649 107.773 203.571 108.176 203.772 108.472C203.972 108.768 204.374 108.846 204.671 108.645Z" fill="white" stroke="#263238" stroke-width="0.679397" stroke-miterlimit="10" stroke-linecap="round"/>
<path d="M206.057 115.526C206.802 116.626 208.297 116.914 209.397 116.169C210.497 115.424 210.784 113.929 210.04 112.829C209.295 111.729 207.8 111.441 206.7 112.186C205.6 112.93 205.313 114.426 206.057 115.526Z" fill="#263238" stroke="#263238" stroke-width="0.679397" stroke-miterlimit="10" stroke-linecap="round"/>
<path d="M208.113 113.73L214.134 109.653C214.43 109.453 214.508 109.05 214.307 108.754C214.107 108.458 213.704 108.381 213.408 108.581L207.387 112.658C207.091 112.859 207.014 113.261 207.214 113.557C207.414 113.852 207.817 113.93 208.113 113.73Z" fill="white" stroke="#263238" stroke-width="0.679397" stroke-miterlimit="10" stroke-linecap="round"/>
<path d="M209.119 115.214L215.14 111.137C215.436 110.937 215.513 110.535 215.313 110.239C215.112 109.942 214.71 109.865 214.414 110.065L208.393 114.142C208.097 114.343 208.019 114.745 208.22 115.041C208.42 115.337 208.823 115.415 209.119 115.214Z" fill="white" stroke="#263238" stroke-width="0.679397" stroke-miterlimit="10" stroke-linecap="round"/>
<path d="M210.505 122.095C211.25 123.195 212.745 123.482 213.845 122.737C214.945 121.992 215.233 120.498 214.488 119.398C213.743 118.298 212.248 118.01 211.148 118.755C210.049 119.5 209.76 120.995 210.505 122.095Z" fill="#263238" stroke="#263238" stroke-width="0.679397" stroke-miterlimit="10" stroke-linecap="round"/>
<path d="M212.561 120.299L218.582 116.222C218.878 116.022 218.956 115.619 218.755 115.323C218.555 115.027 218.152 114.95 217.856 115.15L211.836 119.227C211.54 119.427 211.462 119.83 211.663 120.126C211.863 120.422 212.265 120.5 212.561 120.299Z" fill="white" stroke="#263238" stroke-width="0.679397" stroke-miterlimit="10" stroke-linecap="round"/>
<path d="M213.567 121.783L219.587 117.706C219.883 117.506 219.961 117.103 219.76 116.807C219.56 116.511 219.158 116.434 218.861 116.634L212.841 120.711C212.545 120.911 212.467 121.314 212.668 121.61C212.868 121.906 213.271 121.984 213.567 121.783Z" fill="white" stroke="#263238" stroke-width="0.679397" stroke-miterlimit="10" stroke-linecap="round"/>
<path d="M214.953 128.664C215.698 129.764 217.193 130.051 218.293 129.306C219.393 128.561 219.681 127.067 218.936 125.967C218.191 124.867 216.696 124.579 215.596 125.324C214.496 126.069 214.208 127.564 214.953 128.664Z" fill="#263238" stroke="#263238" stroke-width="0.679397" stroke-miterlimit="10" stroke-linecap="round"/>
<path d="M217.01 126.868L223.03 122.791C223.326 122.591 223.404 122.188 223.204 121.892C223.003 121.596 222.601 121.519 222.305 121.719L216.284 125.796C215.988 125.996 215.91 126.399 216.111 126.695C216.311 126.991 216.713 127.069 217.01 126.868Z" fill="white" stroke="#263238" stroke-width="0.679397" stroke-miterlimit="10" stroke-linecap="round"/>
<path d="M218.014 128.352L224.035 124.276C224.331 124.075 224.409 123.673 224.208 123.377C224.008 123.081 223.605 123.003 223.309 123.203L217.288 127.28C216.992 127.481 216.915 127.883 217.115 128.179C217.316 128.476 217.718 128.553 218.014 128.352Z" fill="white" stroke="#263238" stroke-width="0.679397" stroke-miterlimit="10" stroke-linecap="round"/>
<path d="M219.401 135.233C220.146 136.333 221.641 136.621 222.74 135.876C223.84 135.131 224.128 133.636 223.383 132.536C222.638 131.436 221.144 131.148 220.044 131.893C218.944 132.638 218.657 134.133 219.401 135.233Z" fill="#263238" stroke="#263238" stroke-width="0.679397" stroke-miterlimit="10" stroke-linecap="round"/>
<path d="M221.457 133.437L227.478 129.36C227.774 129.16 227.851 128.757 227.651 128.461C227.45 128.165 227.048 128.088 226.752 128.288L220.731 132.365C220.435 132.566 220.358 132.968 220.558 133.264C220.759 133.56 221.161 133.638 221.457 133.437Z" fill="white" stroke="#263238" stroke-width="0.679397" stroke-miterlimit="10" stroke-linecap="round"/>
<path d="M222.463 134.922L228.484 130.845C228.78 130.645 228.857 130.242 228.657 129.946C228.456 129.65 228.054 129.572 227.758 129.773L221.737 133.85C221.441 134.05 221.363 134.453 221.564 134.749C221.764 135.045 222.167 135.122 222.463 134.922Z" fill="white" stroke="#263238" stroke-width="0.679397" stroke-miterlimit="10" stroke-linecap="round"/>
<path d="M223.849 141.802C224.594 142.901 226.089 143.189 227.189 142.444C228.288 141.699 228.576 140.205 227.831 139.105C227.086 138.005 225.592 137.717 224.492 138.462C223.392 139.207 223.104 140.702 223.849 141.802Z" fill="#263238" stroke="#263238" stroke-width="0.679397" stroke-miterlimit="10" stroke-linecap="round"/>
<path d="M225.905 140.006L231.926 135.929C232.222 135.729 232.3 135.326 232.099 135.03C231.899 134.734 231.496 134.657 231.2 134.857L225.18 138.934C224.884 139.134 224.806 139.537 225.007 139.833C225.206 140.129 225.609 140.206 225.905 140.006Z" fill="white" stroke="#263238" stroke-width="0.679397" stroke-miterlimit="10" stroke-linecap="round"/>
<path d="M226.911 141.491L232.931 137.414C233.227 137.214 233.305 136.811 233.104 136.515C232.904 136.219 232.502 136.142 232.205 136.342L226.185 140.419C225.889 140.619 225.811 141.022 226.012 141.318C226.212 141.614 226.614 141.692 226.911 141.491Z" fill="white" stroke="#263238" stroke-width="0.679397" stroke-miterlimit="10" stroke-linecap="round"/>
<path d="M228.297 148.371C229.042 149.471 230.537 149.759 231.636 149.014C232.736 148.269 233.024 146.774 232.279 145.675C231.534 144.575 230.039 144.287 228.94 145.032C227.84 145.776 227.552 147.271 228.297 148.371Z" fill="#263238" stroke="#263238" stroke-width="0.679397" stroke-miterlimit="10" stroke-linecap="round"/>
<path d="M230.353 146.575L236.374 142.498C236.67 142.298 236.747 141.895 236.547 141.599C236.346 141.303 235.944 141.226 235.648 141.426L229.627 145.503C229.331 145.704 229.254 146.106 229.454 146.402C229.655 146.698 230.057 146.776 230.353 146.575Z" fill="white" stroke="#263238" stroke-width="0.679397" stroke-miterlimit="10" stroke-linecap="round"/>
<path d="M231.358 148.06L237.379 143.983C237.675 143.783 237.753 143.38 237.552 143.084C237.352 142.788 236.949 142.711 236.653 142.911L230.633 146.988C230.336 147.188 230.259 147.591 230.459 147.887C230.66 148.183 231.062 148.261 231.358 148.06Z" fill="white" stroke="#263238" stroke-width="0.679397" stroke-miterlimit="10" stroke-linecap="round"/>
<path d="M232.745 154.94C233.49 156.04 234.985 156.328 236.085 155.583C237.184 154.838 237.472 153.343 236.727 152.243C235.982 151.144 234.488 150.856 233.388 151.601C232.289 152.345 232 153.84 232.745 154.94Z" fill="#263238" stroke="#263238" stroke-width="0.679397" stroke-miterlimit="10" stroke-linecap="round"/>
<path d="M234.801 153.145L240.822 149.068C241.118 148.867 241.196 148.465 240.995 148.169C240.795 147.873 240.392 147.795 240.096 147.996L234.075 152.072C233.779 152.273 233.702 152.675 233.902 152.971C234.103 153.267 234.505 153.345 234.801 153.145Z" fill="white" stroke="#263238" stroke-width="0.679397" stroke-miterlimit="10" stroke-linecap="round"/>
<path d="M235.806 154.629L241.827 150.552C242.123 150.352 242.2 149.949 242 149.653C241.799 149.357 241.397 149.279 241.101 149.48L235.08 153.557C234.784 153.757 234.707 154.16 234.907 154.456C235.107 154.752 235.51 154.829 235.806 154.629Z" fill="white" stroke="#263238" stroke-width="0.679397" stroke-miterlimit="10" stroke-linecap="round"/>
<path d="M237.193 161.51C237.938 162.61 239.432 162.897 240.532 162.152C241.632 161.407 241.92 159.913 241.175 158.813C240.43 157.713 238.935 157.425 237.836 158.17C236.736 158.915 236.448 160.41 237.193 161.51Z" fill="#263238" stroke="#263238" stroke-width="0.679397" stroke-miterlimit="10" stroke-linecap="round"/>
<path d="M239.249 159.714L245.27 155.637C245.566 155.437 245.644 155.034 245.443 154.738C245.243 154.442 244.84 154.364 244.544 154.565L238.523 158.642C238.227 158.842 238.15 159.245 238.35 159.541C238.55 159.837 238.953 159.914 239.249 159.714Z" fill="white" stroke="#263238" stroke-width="0.679397" stroke-miterlimit="10" stroke-linecap="round"/>
<path d="M240.254 161.198L246.275 157.122C246.571 156.921 246.648 156.519 246.448 156.223C246.247 155.927 245.845 155.849 245.549 156.049L239.528 160.126C239.232 160.327 239.154 160.729 239.355 161.025C239.555 161.321 239.958 161.399 240.254 161.198Z" fill="white" stroke="#263238" stroke-width="0.679397" stroke-miterlimit="10" stroke-linecap="round"/>
<path d="M241.64 168.079C242.385 169.179 243.88 169.467 244.98 168.722C246.08 167.977 246.368 166.482 245.623 165.382C244.878 164.282 243.383 163.994 242.283 164.739C241.184 165.484 240.895 166.979 241.64 168.079Z" fill="#263238" stroke="#263238" stroke-width="0.679397" stroke-miterlimit="10" stroke-linecap="round"/>
<path d="M243.697 166.283L249.718 162.206C250.014 162.006 250.091 161.604 249.891 161.308C249.69 161.011 249.288 160.934 248.992 161.134L242.971 165.211C242.675 165.412 242.598 165.814 242.798 166.11C242.999 166.406 243.401 166.484 243.697 166.283Z" fill="white" stroke="#263238" stroke-width="0.679397" stroke-miterlimit="10" stroke-linecap="round"/>
<path d="M244.702 167.768L250.723 163.691C251.019 163.491 251.096 163.088 250.896 162.792C250.695 162.496 250.293 162.419 249.997 162.619L243.976 166.696C243.68 166.897 243.603 167.299 243.803 167.595C244.004 167.891 244.406 167.969 244.702 167.768Z" fill="white" stroke="#263238" stroke-width="0.679397" stroke-miterlimit="10" stroke-linecap="round"/>
<path d="M246.089 174.648C246.834 175.748 248.328 176.036 249.428 175.291C250.528 174.546 250.816 173.051 250.071 171.951C249.326 170.851 247.831 170.563 246.732 171.308C245.632 172.053 245.344 173.549 246.089 174.648Z" fill="#263238" stroke="#263238" stroke-width="0.679397" stroke-miterlimit="10" stroke-linecap="round"/>
<path d="M248.145 172.852L254.165 168.776C254.462 168.575 254.539 168.173 254.339 167.877C254.138 167.581 253.736 167.503 253.44 167.704L247.419 171.78C247.123 171.981 247.045 172.383 247.246 172.679C247.446 172.976 247.849 173.053 248.145 172.852Z" fill="white" stroke="#263238" stroke-width="0.679397" stroke-miterlimit="10" stroke-linecap="round"/>
<path d="M249.15 174.337L255.171 170.26C255.467 170.06 255.545 169.657 255.344 169.361C255.144 169.065 254.741 168.988 254.445 169.188L248.424 173.265C248.128 173.466 248.051 173.868 248.251 174.164C248.451 174.46 248.854 174.538 249.15 174.337Z" fill="white" stroke="#263238" stroke-width="0.679397" stroke-miterlimit="10" stroke-linecap="round"/>
<path d="M250.536 181.217C251.281 182.317 252.776 182.605 253.876 181.86C254.976 181.115 255.263 179.62 254.518 178.52C253.773 177.421 252.279 177.133 251.179 177.878C250.08 178.622 249.792 180.118 250.536 181.217Z" fill="#263238" stroke="#263238" stroke-width="0.679397" stroke-miterlimit="10" stroke-linecap="round"/>
<path d="M252.592 179.422L258.613 175.345C258.909 175.144 258.986 174.742 258.786 174.446C258.585 174.15 258.183 174.072 257.887 174.273L251.866 178.35C251.57 178.55 251.493 178.953 251.693 179.249C251.894 179.545 252.296 179.622 252.592 179.422Z" fill="white" stroke="#263238" stroke-width="0.679397" stroke-miterlimit="10" stroke-linecap="round"/>
<path d="M253.598 180.907L259.618 176.83C259.914 176.629 259.992 176.227 259.791 175.931C259.591 175.635 259.189 175.557 258.892 175.758L252.872 179.834C252.576 180.035 252.498 180.437 252.699 180.733C252.899 181.029 253.302 181.107 253.598 180.907Z" fill="white" stroke="#263238" stroke-width="0.679397" stroke-miterlimit="10" stroke-linecap="round"/>
<path d="M254.984 187.787C255.729 188.887 257.224 189.175 258.324 188.43C259.424 187.685 259.712 186.19 258.967 185.09C258.222 183.99 256.727 183.702 255.627 184.447C254.528 185.191 254.239 186.687 254.984 187.787Z" fill="#263238" stroke="#263238" stroke-width="0.679397" stroke-miterlimit="10" stroke-linecap="round"/>
<path d="M257.04 185.991L263.061 181.915C263.357 181.714 263.435 181.312 263.234 181.016C263.034 180.72 262.631 180.642 262.335 180.842L256.314 184.919C256.018 185.12 255.941 185.522 256.141 185.818C256.341 186.114 256.744 186.192 257.04 185.991Z" fill="white" stroke="#263238" stroke-width="0.679397" stroke-miterlimit="10" stroke-linecap="round"/>
<path d="M258.046 187.475L264.067 183.399C264.363 183.198 264.44 182.796 264.24 182.5C264.039 182.204 263.637 182.126 263.341 182.327L257.32 186.403C257.024 186.604 256.946 187.006 257.147 187.302C257.347 187.599 257.75 187.676 258.046 187.475Z" fill="white" stroke="#263238" stroke-width="0.679397" stroke-miterlimit="10" stroke-linecap="round"/>
<path d="M259.433 194.356C260.178 195.455 261.672 195.743 262.772 194.998C263.872 194.253 264.16 192.759 263.415 191.659C262.67 190.559 261.175 190.271 260.076 191.016C258.976 191.761 258.688 193.256 259.433 194.356Z" fill="#263238" stroke="#263238" stroke-width="0.679397" stroke-miterlimit="10" stroke-linecap="round"/>
<path d="M261.489 192.56L267.51 188.483C267.806 188.283 267.883 187.88 267.683 187.584C267.482 187.288 267.08 187.211 266.784 187.411L260.763 191.488C260.467 191.688 260.389 192.091 260.59 192.387C260.79 192.683 261.193 192.76 261.489 192.56Z" fill="white" stroke="#263238" stroke-width="0.679397" stroke-miterlimit="10" stroke-linecap="round"/>
<path d="M262.494 194.044L268.515 189.968C268.811 189.767 268.888 189.365 268.688 189.069C268.487 188.773 268.085 188.695 267.789 188.895L261.768 192.972C261.472 193.173 261.394 193.575 261.595 193.871C261.795 194.167 262.198 194.245 262.494 194.044Z" fill="white" stroke="#263238" stroke-width="0.679397" stroke-miterlimit="10" stroke-linecap="round"/>
<g opacity="0.3">
<path d="M109.798 117.932L111.294 116.919" stroke="black" stroke-width="0.679397" stroke-miterlimit="10" stroke-linecap="round"/>
<path d="M112.789 115.906L114.285 114.894" stroke="black" stroke-width="0.679397" stroke-miterlimit="10" stroke-linecap="round"/>
<path d="M96.2362 130.119L97.7318 129.106" stroke="black" stroke-width="0.679397" stroke-miterlimit="10" stroke-linecap="round"/>
<path d="M99.2274 128.093L100.723 127.081" stroke="black" stroke-width="0.679397" stroke-miterlimit="10" stroke-linecap="round"/>
<path d="M102.219 126.068L103.715 125.056" stroke="black" stroke-width="0.679397" stroke-miterlimit="10" stroke-linecap="round"/>
<path d="M105.21 124.043L106.706 123.03" stroke="black" stroke-width="0.679397" stroke-miterlimit="10" stroke-linecap="round"/>
<path d="M108.201 122.017L109.697 121.005" stroke="black" stroke-width="0.679397" stroke-miterlimit="10" stroke-linecap="round"/>
<path d="M111.193 119.992L112.689 118.979" stroke="black" stroke-width="0.679397" stroke-miterlimit="10" stroke-linecap="round"/>
<path d="M114.185 117.966L115.68 116.953" stroke="black" stroke-width="0.679397" stroke-miterlimit="10" stroke-linecap="round"/>
<path d="M97.6315 132.18L99.1271 131.167" stroke="black" stroke-width="0.679397" stroke-miterlimit="10" stroke-linecap="round"/>
<path d="M100.623 130.154L102.118 129.141" stroke="black" stroke-width="0.679397" stroke-miterlimit="10" stroke-linecap="round"/>
<path d="M103.615 128.128L105.111 127.116" stroke="black" stroke-width="0.679397" stroke-miterlimit="10" stroke-linecap="round"/>
<path d="M106.605 126.103L108.102 125.09" stroke="black" stroke-width="0.679397" stroke-miterlimit="10" stroke-linecap="round"/>
<path d="M109.598 124.077L111.093 123.065" stroke="black" stroke-width="0.679397" stroke-miterlimit="10" stroke-linecap="round"/>
<path d="M112.589 122.052L114.084 121.039" stroke="black" stroke-width="0.679397" stroke-miterlimit="10" stroke-linecap="round"/>
<path d="M115.58 120.027L117.076 119.014" stroke="black" stroke-width="0.679397" stroke-miterlimit="10" stroke-linecap="round"/>
<path d="M99.026 134.24L100.522 133.227" stroke="black" stroke-width="0.679397" stroke-miterlimit="10" stroke-linecap="round"/>
<path d="M102.017 132.215L103.514 131.202" stroke="black" stroke-width="0.679397" stroke-miterlimit="10" stroke-linecap="round"/>
<path d="M105.009 130.189L106.505 129.176" stroke="black" stroke-width="0.679397" stroke-miterlimit="10" stroke-linecap="round"/>
<path d="M108 128.163L109.496 127.151" stroke="black" stroke-width="0.679397" stroke-miterlimit="10" stroke-linecap="round"/>
<path d="M110.992 126.138L112.488 125.125" stroke="black" stroke-width="0.679397" stroke-miterlimit="10" stroke-linecap="round"/>
<path d="M113.983 124.113L115.479 123.1" stroke="black" stroke-width="0.679397" stroke-miterlimit="10" stroke-linecap="round"/>
<path d="M116.974 122.087L118.47 121.075" stroke="black" stroke-width="0.679397" stroke-miterlimit="10" stroke-linecap="round"/>
<path d="M100.422 136.3L101.917 135.287" stroke="black" stroke-width="0.679397" stroke-miterlimit="10" stroke-linecap="round"/>
<path d="M103.413 134.274L104.909 133.261" stroke="black" stroke-width="0.679397" stroke-miterlimit="10" stroke-linecap="round"/>
<path d="M106.404 132.249L107.9 131.236" stroke="black" stroke-width="0.679397" stroke-miterlimit="10" stroke-linecap="round"/>
<path d="M109.396 130.224L110.891 129.211" stroke="black" stroke-width="0.679397" stroke-miterlimit="10" stroke-linecap="round"/>
<path d="M112.387 128.198L113.883 127.186" stroke="black" stroke-width="0.679397" stroke-miterlimit="10" stroke-linecap="round"/>
<path d="M115.379 126.173L116.874 125.16" stroke="black" stroke-width="0.679397" stroke-miterlimit="10" stroke-linecap="round"/>
<path d="M118.37 124.147L119.865 123.135" stroke="black" stroke-width="0.679397" stroke-miterlimit="10" stroke-linecap="round"/>
<path d="M93.0104 125.355L94.506 124.342" stroke="black" stroke-width="0.679397" stroke-miterlimit="10" stroke-linecap="round"/>
<path d="M96.0016 123.329L97.4972 122.317" stroke="black" stroke-width="0.679397" stroke-miterlimit="10" stroke-linecap="round"/>
<path d="M98.993 121.304L100.489 120.291" stroke="black" stroke-width="0.679397" stroke-miterlimit="10" stroke-linecap="round"/>
<path d="M101.985 119.279L103.48 118.266" stroke="black" stroke-width="0.679397" stroke-miterlimit="10" stroke-linecap="round"/>
<path d="M104.975 117.253L106.471 116.24" stroke="black" stroke-width="0.679397" stroke-miterlimit="10" stroke-linecap="round"/>
<path d="M107.967 115.228L109.463 114.215" stroke="black" stroke-width="0.679397" stroke-miterlimit="10" stroke-linecap="round"/>
<path d="M110.958 113.203L112.454 112.19" stroke="black" stroke-width="0.679397" stroke-miterlimit="10" stroke-linecap="round"/>
<path d="M113.368 113.261L93.6659 126.601" stroke="black" stroke-width="0.679397" stroke-miterlimit="10" stroke-linecap="round"/>
<path d="M97.1899 118.768L104.787 113.625" stroke="black" stroke-width="0.679397" stroke-miterlimit="10" stroke-linecap="round"/>
<path d="M97.8173 146.507L181.641 89.7518" stroke="black" stroke-width="0.679397" stroke-miterlimit="10" stroke-linecap="round"/>
<path d="M102.388 153.258L186.211 96.5026" stroke="black" stroke-width="0.679397" stroke-miterlimit="10" stroke-linecap="round"/>
<path d="M106.959 160.01L190.782 103.254" stroke="black" stroke-width="0.679397" stroke-miterlimit="10" stroke-linecap="round"/>
<path d="M111.53 166.76L195.353 110.005" stroke="black" stroke-width="0.679397" stroke-miterlimit="10" stroke-linecap="round"/>
<path d="M116.101 173.511L199.924 116.755" stroke="black" stroke-width="0.679397" stroke-miterlimit="10" stroke-linecap="round"/>
<path d="M120.672 180.262L204.495 123.506" stroke="black" stroke-width="0.679397" stroke-miterlimit="10" stroke-linecap="round"/>
<path d="M125.243 187.013L209.066 130.257" stroke="black" stroke-width="0.679397" stroke-miterlimit="10" stroke-linecap="round"/>
<path d="M129.814 193.763L213.637 137.008" stroke="black" stroke-width="0.679397" stroke-miterlimit="10" stroke-linecap="round"/>
<path d="M134.385 200.514L218.208 143.759" stroke="black" stroke-width="0.679397" stroke-miterlimit="10" stroke-linecap="round"/>
<path d="M138.956 207.266L222.779 150.51" stroke="black" stroke-width="0.679397" stroke-miterlimit="10" stroke-linecap="round"/>
<path d="M143.526 214.016L227.35 157.261" stroke="black" stroke-width="0.679397" stroke-miterlimit="10" stroke-linecap="round"/>
<path d="M148.097 220.767L231.92 164.012" stroke="black" stroke-width="0.679397" stroke-miterlimit="10" stroke-linecap="round"/>
<path d="M152.668 227.518L236.492 170.762" stroke="black" stroke-width="0.679397" stroke-miterlimit="10" stroke-linecap="round"/>
<path d="M163.524 243.551L247.347 186.795" stroke="black" stroke-width="0.679397" stroke-miterlimit="10" stroke-linecap="round"/>
<path d="M167.143 248.895L250.966 192.14" stroke="black" stroke-width="0.679397" stroke-miterlimit="10" stroke-linecap="round"/>
<path d="M170.761 254.24L254.585 197.484" stroke="black" stroke-width="0.679397" stroke-miterlimit="10" stroke-linecap="round"/>
</g>
<path d="M114.03 147.427C114.03 147.427 110.253 159.42 114.091 156.001C117.93 152.582 119.919 140.979 120.327 145.215C120.734 149.452 121.977 151.893 122.894 148.4C123.811 144.907 124.745 143.865 124.945 145.371C125.144 146.877 126.451 145.172 126.451 145.172C126.451 145.172 129.527 140.627 129.727 142.133C129.926 143.639 129.645 143.83 130.77 143.067C131.895 142.305 134.427 140.592 134.427 140.592C134.427 140.592 134.337 141.063 137.711 138.778C141.087 136.492 142.112 134.978 143.8 133.834" stroke="#263238" stroke-width="0.679397" stroke-miterlimit="10" stroke-linecap="round"/>
<path d="M115.914 160.51C115.914 160.51 120.107 153.979 121.241 154.442C122.375 154.904 122.011 156.792 124.353 154.796C126.694 152.801 128.083 149.399 128.844 150.524C129.606 151.649 130.913 149.944 130.913 149.944L132.319 148.992C132.319 148.992 135.041 147.559 135.695 146.706C136.348 145.854 135.279 141.245 137.301 147.26C139.323 153.275 134.678 149.446 139.071 144.421C143.463 139.396 145.74 141.546 145.74 141.546C145.74 141.546 146.302 141.165 147.237 140.123C148.171 139.079 148.535 137.193 150.141 137.746C151.747 138.3 152.092 133.964 152.092 133.964C152.092 133.964 153.126 133.673 154.632 133.474C156.138 133.275 156.982 132.704 156.982 132.704C156.982 132.704 158.579 132.033 159.704 131.271C160.829 130.509 161.193 128.622 162.417 128.613C163.642 128.605 163.135 123.615 164.776 129.068C166.417 134.52 162.587 139.165 163.124 135.109C163.659 131.054 165.049 127.652 166.538 125.003C168.026 122.355 168.779 122.255 169.822 123.189C170.865 124.124 171.428 123.743 172.363 122.7C173.297 121.657 172.072 121.666 173.297 121.657C174.522 121.648 174.803 121.458 175.647 120.886C176.491 120.315 173.414 124.859 176.491 120.315C179.567 115.77 176.286 104.865 176.71 111.551C177.135 118.238 178.65 119.263 181.273 117.077" stroke="#263238" stroke-width="0.679397" stroke-miterlimit="10" stroke-linecap="round"/>
<path d="M121.355 170.364C121.355 170.364 125.331 159.877 124.478 159.224C123.625 158.571 121.756 160.656 121.501 164.522C121.247 168.386 123.233 169.503 126.591 164.768C129.948 160.033 124.812 166.382 129.603 164.369C134.393 162.356 134.367 158.682 134.939 159.525C135.51 160.369 133.913 161.041 137.479 159.036C141.045 157.032 138.496 156.297 142.443 154.855C146.389 153.413 147.506 151.427 147.506 151.427L149.756 149.903C149.756 149.903 145.065 152.669 150.972 148.67C156.879 144.67 155.965 135.444 154.875 141.105C153.785 146.765 155.863 147.41 158.195 144.19C160.527 140.97 160.527 140.97 160.527 140.97C160.527 140.97 162.461 134.737 163.358 141.515C164.254 148.292 159.991 145.025 165.599 138.766C171.207 132.507 172.359 135.42 174.229 133.333C176.098 131.247 174.574 128.997 177.033 130.204C179.491 131.411 179.11 130.849 181.36 129.325C183.61 127.802 182.858 127.901 184.827 126.568C186.796 125.235 187.078 125.044 189.047 123.711" stroke="#263238" stroke-width="0.679397" stroke-miterlimit="10" stroke-linecap="round"/>
<path d="M132.908 191.668C132.908 191.668 136.447 185.99 134.997 180.818C133.546 175.646 132.474 183.757 136.101 190.326C139.728 196.896 132.981 188.747 138.969 183.051C144.959 177.355 139.268 185.31 140.593 186.054C141.917 186.798 145.538 179.423 146.21 181.02C146.88 182.616 148.387 182.417 150.52 177.691C152.653 172.965 147.118 176.302 147.889 178.652C148.659 181.002 149.967 179.297 153.614 175.596C157.262 171.895 153.995 176.158 156.526 174.444C159.058 172.73 162.58 164.602 162.507 167.524C162.434 170.445 164.23 171.28 164.874 169.203C165.519 167.125 166.518 161.936 167.47 163.343C168.422 164.749 168.138 166.172 168.138 166.172" stroke="#263238" stroke-width="0.679397" stroke-miterlimit="10" stroke-linecap="round"/>
<path opacity="0.3" d="M71.2934 143.005C71.1319 142.936 70.9437 142.874 70.7261 142.821C70.2906 142.715 69.737 142.652 69.0318 142.668C68.9352 142.671 68.8222 142.682 68.7019 142.697C68.6768 142.7 68.6504 142.704 68.6241 142.708C65.7352 143.121 56.9344 146.815 53.9876 148.075C52.4685 148.725 51.5692 150.334 51.8693 151.959C51.8744 151.985 51.8789 152.011 51.8843 152.037C52.4065 154.664 71.0014 216.752 71.0014 216.752C71.0014 216.752 71.5548 218.086 72.3993 220.105C72.7749 221.002 73.2079 222.034 73.6761 223.145C73.793 223.422 73.9122 223.705 74.0333 223.991C74.2754 224.564 74.5244 225.153 74.778 225.751C75.6658 227.843 76.6068 230.044 77.4786 232.048C78.1013 233.479 78.689 234.809 79.1963 235.928C79.602 236.822 79.957 237.582 80.2373 238.147C81.0787 239.846 81.733 241.14 82.3528 242.06C83.3855 243.592 84.3194 244.082 85.8557 243.665C86.2393 243.561 86.7874 243.394 87.4458 243.179C87.5773 243.135 87.7135 243.091 87.8542 243.044C88.4148 242.857 89.0394 242.64 89.7018 242.402C89.8672 242.342 90.0354 242.281 90.205 242.219C90.7143 242.033 91.2406 241.835 91.7728 241.629C92.1274 241.491 92.4846 241.351 92.8409 241.207C93.1972 241.063 93.5533 240.917 93.9043 240.769C94.6074 240.472 95.2931 240.169 95.9352 239.866C97.0184 239.355 97.9736 238.845 98.6781 238.371C98.6794 238.371 98.6804 238.369 98.6817 238.369C98.7064 238.352 98.735 238.334 98.7591 238.317C98.836 238.265 98.9062 238.213 98.9764 238.161C98.9858 238.154 98.9964 238.147 99.0057 238.14C99.0885 238.078 99.1653 238.017 99.2385 237.957C99.2524 237.945 99.2688 237.933 99.2827 237.921C99.3654 237.851 99.441 237.782 99.5084 237.714C99.6358 237.586 99.7564 237.462 99.8709 237.341C99.9852 237.22 100.094 237.102 100.197 236.987C100.711 236.412 101.081 235.908 101.351 235.428C101.459 235.236 101.551 235.048 101.63 234.86C101.709 234.673 101.775 234.487 101.83 234.298C101.858 234.204 101.884 234.11 101.907 234.014C101.999 233.631 102.055 233.234 102.099 232.799C102.1 232.796 102.099 232.789 102.099 232.785C102.104 232.733 102.105 232.668 102.102 232.586C102.101 232.553 102.095 232.509 102.093 232.472C102.088 232.41 102.085 232.35 102.077 232.274C102.072 232.223 102.064 232.161 102.057 232.104C102.048 232.028 102.04 231.956 102.028 231.869C102.019 231.806 102.008 231.731 101.998 231.662C101.984 231.569 101.971 231.479 101.955 231.376C101.943 231.301 101.928 231.216 101.915 231.137C101.897 231.028 101.88 230.921 101.859 230.803C101.843 230.711 101.825 230.611 101.808 230.514C101.787 230.397 101.767 230.283 101.744 230.159C101.724 230.055 101.703 229.943 101.683 229.834C101.658 229.702 101.633 229.572 101.606 229.434C101.585 229.323 101.561 229.206 101.54 229.092C101.512 228.949 101.484 228.809 101.455 228.661C101.429 228.534 101.402 228.401 101.376 228.27C101.345 228.12 101.315 227.971 101.284 227.816C101.256 227.683 101.228 227.546 101.199 227.41C101.166 227.25 101.133 227.09 101.098 226.925C101.068 226.782 101.037 226.635 101.006 226.489C100.971 226.324 100.936 226.159 100.9 225.99C100.867 225.836 100.833 225.679 100.798 225.521C100.761 225.35 100.725 225.179 100.687 225.005C100.676 224.954 100.666 224.905 100.654 224.853C100.633 224.755 100.61 224.653 100.588 224.555C100.546 224.363 100.504 224.172 100.461 223.977C100.428 223.828 100.395 223.677 100.361 223.526C100.318 223.33 100.274 223.135 100.23 222.937C100.196 222.78 100.16 222.623 100.124 222.465C100.08 222.271 100.037 222.077 99.9928 221.881C99.954 221.709 99.9152 221.537 99.8758 221.364C99.8335 221.178 99.7915 220.993 99.7486 220.806C99.708 220.627 99.6665 220.448 99.6257 220.268C99.5827 220.083 99.5407 219.898 99.4975 219.711C99.4779 219.627 99.4583 219.542 99.4391 219.456C99.4166 219.357 99.3932 219.258 99.3699 219.159C99.3275 218.976 99.2857 218.795 99.2434 218.612C99.201 218.431 99.1592 218.249 99.1168 218.068C99.0724 217.879 99.0288 217.691 98.9847 217.503C98.942 217.321 98.8993 217.139 98.8569 216.958C98.8147 216.779 98.7726 216.602 98.731 216.424C98.6851 216.231 98.6395 216.038 98.5939 215.845C98.5531 215.674 98.513 215.504 98.4729 215.335C98.4301 215.156 98.3873 214.977 98.3452 214.8C98.3006 214.615 98.2567 214.43 98.2122 214.246C98.1694 214.069 98.1268 213.893 98.0849 213.718C98.0462 213.556 98.0071 213.397 97.9686 213.237C97.9397 213.118 97.9105 212.996 97.8815 212.878C97.8647 212.81 97.8485 212.744 97.8317 212.675C97.7938 212.518 97.7558 212.365 97.7182 212.21C97.6751 212.034 97.6322 211.859 97.5899 211.686C97.5519 211.533 97.5152 211.382 97.4778 211.231C97.4338 211.052 97.3891 210.872 97.3456 210.697C97.3146 210.573 97.285 210.453 97.2542 210.331C97.2203 210.196 97.1861 210.057 97.1533 209.925C97.1403 209.872 97.1278 209.824 97.1153 209.773C97.0852 209.652 97.0562 209.536 97.0262 209.418C96.983 209.247 96.9397 209.075 96.8985 208.91C96.868 208.791 96.839 208.676 96.809 208.559C96.7686 208.401 96.728 208.242 96.689 208.089C96.6626 207.985 96.6366 207.887 96.6108 207.786C96.5701 207.628 96.5297 207.47 96.4903 207.32C96.4685 207.237 96.4487 207.16 96.4274 207.08C96.3875 206.928 96.3473 206.775 96.3098 206.632C96.2888 206.553 96.2698 206.481 96.2488 206.405C96.2126 206.27 96.1767 206.134 96.1432 206.01C96.1408 206.002 96.1382 205.991 96.1359 205.983C96.09 205.814 96.0456 205.651 96.0044 205.502C95.8122 204.811 95.297 203.329 94.5422 201.264C94.2591 200.49 93.943 199.634 93.5972 198.707C92.3296 195.308 90.6692 190.956 88.8337 186.193C88.6669 185.759 88.4986 185.323 88.3288 184.883C81.3753 166.867 72.2632 143.823 72.2632 143.823C72.2632 143.823 72.1019 143.346 71.2934 143.005Z" fill="black"/>
<path d="M67.7115 217.519C67.7115 217.519 74.7037 234.384 76.9474 238.914C79.191 243.445 80.1072 245.098 82.5658 244.432C85.0241 243.765 94.184 240.526 96.2182 238.481C98.253 236.435 98.6338 235.306 98.8097 233.566C98.985 231.825 94.2529 211.798 92.7141 206.27C91.176 200.741 68.9726 144.592 68.9726 144.592C68.9726 144.592 68.5614 143.368 65.7416 143.436C63.3874 143.493 53.7983 147.516 50.6974 148.843C49.1782 149.493 48.2783 151.102 48.579 152.727C48.5841 152.753 48.5886 152.779 48.594 152.805C49.1172 155.431 67.7115 217.519 67.7115 217.519Z" fill="#C6FF00"/>
<mask id="mask0_305_11313" style="mask-type:luminance" maskUnits="userSpaceOnUse" x="48" y="143" width="51" height="102">
<path d="M67.7115 217.519C67.7115 217.519 74.7037 234.384 76.9474 238.914C79.191 243.445 80.1072 245.098 82.5658 244.432C85.0241 243.765 94.184 240.526 96.2182 238.481C98.253 236.435 98.6338 235.306 98.8097 233.566C98.985 231.825 94.2529 211.798 92.7141 206.27C91.176 200.741 68.9726 144.592 68.9726 144.592C68.9726 144.592 68.5614 143.368 65.7416 143.436C63.3874 143.493 53.7983 147.516 50.6974 148.843C49.1782 149.493 48.2783 151.102 48.579 152.727C48.5841 152.753 48.5886 152.779 48.594 152.805C49.1172 155.431 67.7115 217.519 67.7115 217.519Z" fill="white"/>
</mask>
<g mask="url(#mask0_305_11313)">
<path opacity="0.5" d="M95.0323 239.366C95.5337 239.056 95.943 238.757 96.2178 238.48C98.2526 236.435 98.6334 235.306 98.8086 233.565C98.9839 231.825 94.2518 211.797 92.7137 206.269C91.1755 200.741 68.9722 144.591 68.9722 144.591C68.9722 144.591 68.5613 143.368 65.7411 143.436C65.5292 143.441 65.256 143.479 64.9367 143.543C70.397 156.424 75.766 172.245 81.1786 191.491C86.3026 209.708 92.7401 231.601 95.0323 239.366Z" fill="black"/>
</g>
<path d="M67.7115 217.519C67.7115 217.519 74.7037 234.384 76.9474 238.914C79.191 243.445 80.1072 245.098 82.5658 244.432C85.0241 243.765 94.184 240.526 96.2182 238.481C98.253 236.435 98.6338 235.306 98.8097 233.566C98.985 231.825 94.2529 211.798 92.7141 206.27C91.176 200.741 68.9726 144.592 68.9726 144.592C68.9726 144.592 68.5614 143.368 65.7416 143.436C63.3874 143.493 53.7983 147.516 50.6974 148.843C49.1782 149.493 48.2783 151.102 48.579 152.727C48.5841 152.753 48.5886 152.779 48.594 152.805C49.1172 155.431 67.7115 217.519 67.7115 217.519Z" stroke="#263238" stroke-width="0.707811" stroke-miterlimit="10" stroke-linecap="round" stroke-linejoin="round"/>
<path d="M86.4985 211.001C83.7777 212.316 71.4047 216.596 69.4023 217.07C68.7363 217.228 68.1546 217.325 67.672 217.387C67.6958 217.467 67.7114 217.519 67.7114 217.519C67.7114 217.519 74.7036 234.384 76.9472 238.914C79.1908 243.445 80.107 245.098 82.5656 244.432C85.024 243.765 94.1839 240.526 96.2181 238.481C98.2529 236.435 98.6336 235.306 98.8089 233.566C98.9797 231.873 94.5047 212.868 92.8452 206.75C91.1012 209.034 88.7393 209.918 86.4985 211.001Z" fill="#263238"/>
<mask id="mask1_305_11313" style="mask-type:luminance" maskUnits="userSpaceOnUse" x="67" y="206" width="32" height="39">
<path d="M86.4985 211.001C83.7777 212.316 71.4047 216.596 69.4023 217.07C68.7363 217.228 68.1546 217.325 67.672 217.387C67.6958 217.467 67.7114 217.519 67.7114 217.519C67.7114 217.519 74.7036 234.384 76.9472 238.914C79.1908 243.445 80.107 245.098 82.5656 244.432C85.024 243.765 94.1839 240.526 96.2181 238.481C98.2529 236.435 98.6336 235.306 98.8089 233.566C98.9797 231.873 94.5047 212.868 92.8452 206.75C91.1012 209.034 88.7393 209.918 86.4985 211.001Z" fill="white"/>
</mask>
<g mask="url(#mask1_305_11313)">
<path opacity="0.5" d="M95.0323 239.366C95.5337 239.056 95.943 238.757 96.2178 238.48C98.2526 236.435 98.6334 235.306 98.8086 233.565C98.9839 231.825 94.2518 211.797 92.7137 206.269C91.1755 200.741 68.9722 144.591 68.9722 144.591C68.9722 144.591 68.5613 143.368 65.7411 143.435C65.5292 143.441 65.256 143.479 64.9367 143.543C70.397 156.423 75.766 172.245 81.1786 191.491C86.3026 209.708 92.7401 231.601 95.0323 239.366Z" fill="black"/>
</g>
<mask id="mask2_305_11313" style="mask-type:luminance" maskUnits="userSpaceOnUse" x="67" y="206" width="32" height="39">
<path d="M86.4985 211.001C83.7777 212.316 71.4047 216.596 69.4023 217.07C68.7363 217.228 68.1546 217.325 67.672 217.387C67.6958 217.467 67.7114 217.519 67.7114 217.519C67.7114 217.519 74.7036 234.384 76.9472 238.914C79.1908 243.445 80.107 245.098 82.5656 244.432C85.024 243.765 94.1839 240.526 96.2181 238.481C98.2529 236.435 98.6336 235.306 98.8089 233.566C98.9797 231.873 94.5047 212.868 92.8452 206.75C91.1012 209.034 88.7393 209.918 86.4985 211.001Z" fill="white"/>
</mask>
<g mask="url(#mask2_305_11313)">
<path opacity="0.26" d="M87.2463 212.511C89.7611 211.214 91.2896 209.881 92.1756 209.182" stroke="white" stroke-width="0.707811" stroke-miterlimit="10" stroke-linecap="round" stroke-linejoin="round"/>
</g>
<mask id="mask3_305_11313" style="mask-type:luminance" maskUnits="userSpaceOnUse" x="67" y="206" width="32" height="39">
<path d="M86.4985 211.001C83.7777 212.316 71.4047 216.596 69.4023 217.07C68.7363 217.228 68.1546 217.325 67.672 217.387C67.6958 217.467 67.7114 217.519 67.7114 217.519C67.7114 217.519 74.7036 234.384 76.9472 238.914C79.1908 243.445 80.107 245.098 82.5656 244.432C85.024 243.765 94.1839 240.526 96.2181 238.481C98.2529 236.435 98.6336 235.306 98.8089 233.566C98.9797 231.873 94.5047 212.868 92.8452 206.75C91.1012 209.034 88.7393 209.918 86.4985 211.001Z" fill="white"/>
</mask>
<g mask="url(#mask3_305_11313)">
<path d="M69.3735 218.633C69.3735 218.633 84.7581 213.794 87.246 212.511" stroke="white" stroke-width="0.707811" stroke-miterlimit="10" stroke-linecap="round" stroke-linejoin="round"/>
</g>
<path d="M86.4985 211.001C83.7777 212.316 71.4047 216.596 69.4023 217.07C68.7363 217.228 68.1546 217.325 67.672 217.387C67.6958 217.467 67.7114 217.519 67.7114 217.519C67.7114 217.519 74.7036 234.384 76.9472 238.914C79.1908 243.445 80.107 245.098 82.5656 244.432C85.024 243.765 94.1839 240.526 96.2181 238.481C98.2529 236.435 98.6337 235.306 98.8089 233.566C98.9797 231.873 94.5047 212.868 92.8452 206.75C91.1012 209.034 88.7393 209.918 86.4985 211.001Z" stroke="#263238" stroke-width="0.707811" stroke-miterlimit="10" stroke-linecap="round" stroke-linejoin="round"/>
<path d="M231.863 61.7668C238.913 52.4895 237.108 39.2532 227.831 32.2028C218.553 25.1524 205.317 26.9576 198.267 36.2349C191.216 45.5122 193.021 58.7485 202.299 65.7989C211.576 72.8493 224.812 71.0441 231.863 61.7668Z" fill="#263238" stroke="#263238" stroke-width="0.491681" stroke-miterlimit="10" stroke-linecap="round" stroke-linejoin="round"/>
<path d="M232.811 41.2119C229.179 30.1402 217.26 24.1091 206.188 27.741C195.117 31.3729 189.085 43.2925 192.717 54.3642C196.349 65.4358 208.269 71.467 219.34 67.835C230.412 64.2031 236.443 52.2835 232.811 41.2119Z" fill="white" stroke="#263238" stroke-width="0.491681" stroke-miterlimit="10" stroke-linecap="round" stroke-linejoin="round"/>
<path d="M231.022 42.5587C228.142 32.4668 217.626 26.6204 207.534 29.5003C197.443 32.3802 191.596 42.896 194.476 52.9879C197.356 63.0798 207.872 68.9262 217.964 66.0463C228.056 63.1663 233.902 52.6506 231.022 42.5587Z" fill="#263238" stroke="#263238" stroke-width="0.491681" stroke-miterlimit="10" stroke-linecap="round" stroke-linejoin="round"/>
<path d="M204.647 35.8101C204.647 35.8101 200.514 31.9641 195.63 30.2108C190.746 28.4578 176.228 32.6986 176.228 32.6986C176.228 32.6986 180.303 33.9643 185.397 36.7774C190.491 39.5903 205.269 44.5007 205.269 44.5007C205.269 44.5007 198.279 42.5823 193.551 44.2329C188.824 45.8835 178.564 53.6218 177.853 53.9575C177.142 54.2929 183.014 53.8407 187.353 53.8229C191.691 53.8046 206.11 48.7413 206.11 48.7413C206.11 48.7413 200.967 53.196 197.608 56.5198C194.249 59.8429 195.377 72.0621 195.377 72.0621C195.377 72.0621 198.355 64.8613 202.3 61.5513C206.245 58.2407 211.638 53.0877 211.638 53.0877C211.638 53.0877 209.733 59.4925 210.239 63.0214C210.745 66.5503 214.811 73.3262 214.811 73.3262C214.811 73.3262 213.813 65.6824 215.19 61.8452C216.568 58.0075 217.287 52.162 217.287 52.162C217.287 52.162 220.177 53.9867 223.974 57.1219C227.771 60.2571 231.753 65.6241 231.753 65.6241C231.753 65.6241 231.703 57.533 229.9 54.3261C228.098 51.1193 221.747 46.8709 221.747 46.8709C221.747 46.8709 223.334 44.0934 227.561 43.8381C231.788 43.5828 240.747 46.6015 240.747 46.6015C240.747 46.6015 235.634 39.45 231.81 37.4867C227.986 35.5234 217.346 39.3837 217.346 39.3837C217.346 39.3837 221.469 33.3811 224.689 30.9929C227.909 28.6044 233.433 28.027 233.433 28.027C233.433 28.027 224.403 23.0136 219.912 24.5526C215.421 26.0914 212.152 35.7481 212.152 35.7481C212.152 35.7481 210.22 27.9659 209.575 25.3716C208.931 22.7779 205.187 17.2988 205.187 17.2988C205.187 17.2988 203.251 19.9511 202.294 25.9088C201.337 31.8655 204.647 35.8101 204.647 35.8101Z" fill="#C6FF00"/>
<path opacity="0.5" d="M204.647 35.8101C204.647 35.8101 200.514 31.9641 195.63 30.2108C190.746 28.4578 176.228 32.6986 176.228 32.6986C176.228 32.6986 180.303 33.9643 185.397 36.7774C190.491 39.5903 205.269 44.5007 205.269 44.5007C205.269 44.5007 198.279 42.5823 193.551 44.2329C188.824 45.8835 178.564 53.6218 177.853 53.9575C177.142 54.2929 183.014 53.8407 187.353 53.8229C191.691 53.8046 206.11 48.7413 206.11 48.7413C206.11 48.7413 200.967 53.196 197.608 56.5198C194.249 59.8429 195.377 72.0621 195.377 72.0621C195.377 72.0621 198.355 64.8613 202.3 61.5513C206.245 58.2407 211.638 53.0877 211.638 53.0877C211.638 53.0877 209.733 59.4925 210.239 63.0214C210.745 66.5503 214.811 73.3262 214.811 73.3262C214.811 73.3262 213.813 65.6824 215.19 61.8452C216.568 58.0075 217.287 52.162 217.287 52.162C217.287 52.162 220.177 53.9867 223.974 57.1219C227.771 60.2571 231.753 65.6241 231.753 65.6241C231.753 65.6241 231.703 57.533 229.9 54.3261C228.098 51.1193 221.747 46.8709 221.747 46.8709C221.747 46.8709 223.334 44.0934 227.561 43.8381C231.788 43.5828 240.747 46.6015 240.747 46.6015C240.747 46.6015 235.634 39.45 231.81 37.4867C227.986 35.5234 217.346 39.3837 217.346 39.3837C217.346 39.3837 221.469 33.3811 224.689 30.9929C227.909 28.6044 233.433 28.027 233.433 28.027C233.433 28.027 224.403 23.0136 219.912 24.5526C215.421 26.0914 212.152 35.7481 212.152 35.7481C212.152 35.7481 210.22 27.9659 209.575 25.3716C208.931 22.7779 205.187 17.2988 205.187 17.2988C205.187 17.2988 203.251 19.9511 202.294 25.9088C201.337 31.8655 204.647 35.8101 204.647 35.8101Z" fill="black"/>
<path d="M205.913 26.3921C205.757 25.6331 205.618 24.8695 205.501 24.1054" stroke="#263238" stroke-width="0.24584" stroke-miterlimit="10" stroke-linecap="round" stroke-linejoin="round"/>
<path d="M190.079 33.8597C193.064 34.432 196.891 35.3522 199.235 36.6247C203.52 38.9502 212.313 44.0755 212.313 44.0755C212.313 44.0755 208.417 36.7226 206.348 28.3122" stroke="#263238" stroke-width="0.24584" stroke-miterlimit="10" stroke-linecap="round" stroke-linejoin="round"/>
<path d="M185.714 33.1503C185.714 33.1503 186.614 33.2622 187.984 33.487" stroke="#263238" stroke-width="0.24584" stroke-miterlimit="10" stroke-linecap="round" stroke-linejoin="round"/>
<path d="M212.313 44.0755C212.313 44.0755 217.072 30.8187 220.529 28.318C223.986 25.8177 228.646 27.0967 228.646 27.0967" stroke="#263238" stroke-width="0.24584" stroke-miterlimit="10" stroke-linecap="round" stroke-linejoin="round"/>
<path d="M199.766 59.204C198.234 61.6352 198.409 62.5165 198.409 62.5165" stroke="#263238" stroke-width="0.24584" stroke-miterlimit="10" stroke-linecap="round" stroke-linejoin="round"/>
<path d="M235.902 43.0903C235.902 43.0903 232.802 40.2055 227.041 40.8949C221.281 41.5841 213.347 45.0374 213.347 45.0374C213.347 45.0374 204.071 53.8019 200.945 57.5683" stroke="#263238" stroke-width="0.24584" stroke-miterlimit="10" stroke-linecap="round" stroke-linejoin="round"/>
<path d="M207.921 45.9421C210.933 45.4628 213.346 45.0374 213.346 45.0374" stroke="#263238" stroke-width="0.24584" stroke-miterlimit="10" stroke-linecap="round" stroke-linejoin="round"/>
<path d="M189.235 49.6085C191.885 48.5484 195.365 47.3362 197.585 47.2561C199.393 47.1914 202.8 46.7293 205.985 46.2434" stroke="#263238" stroke-width="0.24584" stroke-miterlimit="10" stroke-linecap="round" stroke-linejoin="round"/>
<path d="M185.536 51.2017C185.536 51.2017 186.402 50.7932 187.706 50.2393" stroke="#263238" stroke-width="0.24584" stroke-miterlimit="10" stroke-linecap="round" stroke-linejoin="round"/>
<path d="M213.544 46.683C213.544 46.683 211.603 59.7702 212.247 62.364C212.892 64.9582 213.786 66.8543 213.786 66.8543" stroke="#263238" stroke-width="0.24584" stroke-miterlimit="10" stroke-linecap="round" stroke-linejoin="round"/>
<path d="M217.971 48.4231C220.028 49.4697 222.599 50.9474 224.081 52.4342C226.832 55.1938 228.872 58.2888 228.872 58.2888" stroke="#263238" stroke-width="0.24584" stroke-miterlimit="10" stroke-linecap="round" stroke-linejoin="round"/>
<path d="M214.827 46.9469C214.827 46.9469 215.629 47.2833 216.789 47.8397" stroke="#263238" stroke-width="0.24584" stroke-miterlimit="10" stroke-linecap="round" stroke-linejoin="round"/>
<path d="M202.598 39.2739C202.598 39.2739 199.035 34.895 197.61 29.9049C196.186 24.915 201.381 10.711 201.381 10.711C201.381 10.711 202.373 14.8607 204.842 20.1307C207.31 25.4006 211.228 40.4719 211.228 40.4719C211.228 40.4719 209.778 33.3693 211.739 28.7614C213.7 24.1538 222.102 14.4305 222.484 13.7431C222.866 13.0557 222.025 18.8857 221.719 23.2129C221.413 27.5408 215.403 41.592 215.403 41.592C215.403 41.592 220.189 36.756 223.728 33.625C227.268 30.494 239.385 32.4307 239.385 32.4307C239.385 32.4307 232.002 34.9241 228.437 38.6407C224.872 42.3572 219.373 47.3964 219.373 47.3964C219.373 47.3964 225.89 45.9209 229.378 46.66C232.865 47.3986 239.356 51.9056 239.356 51.9056C239.356 51.9056 231.795 50.4024 227.875 51.5222C223.955 52.6417 218.074 52.9716 218.074 52.9716C218.074 52.9716 219.703 55.9756 222.579 59.9731C225.455 63.9701 230.546 68.2988 230.546 68.2988C230.546 68.2988 222.476 67.7121 219.396 65.7005C216.316 63.6888 212.498 57.0697 212.498 57.0697C212.498 57.0697 209.622 58.4692 209.086 62.6698C208.551 66.8702 210.968 76.0097 210.968 76.0097C210.968 76.0097 204.172 70.4337 202.467 66.4872C200.762 62.5411 205.32 52.1806 205.32 52.1806C205.32 52.1806 199.057 55.8964 196.46 58.951C193.863 62.0056 192.92 67.4785 192.92 67.4785C192.92 67.4785 188.517 58.1351 190.352 53.7569C192.185 49.3783 202.037 46.7576 202.037 46.7576C202.037 46.7576 194.401 44.3126 191.855 43.4978C189.31 42.6828 184.091 38.5833 184.091 38.5833C184.091 38.5833 186.866 36.8273 192.875 36.2681C198.882 35.709 202.598 39.2739 202.598 39.2739Z" fill="#C6FF00"/>
<path d="M193.117 39.9115C192.37 39.7051 191.617 39.5154 190.863 39.3484" stroke="#263238" stroke-width="0.24584" stroke-miterlimit="10" stroke-linecap="round" stroke-linejoin="round"/>
<path d="M201.619 24.6088C201.992 27.6251 202.656 31.5045 203.77 33.9277C205.806 38.3575 210.336 47.4719 210.336 47.4719C210.336 47.4719 203.258 43.0965 195.004 40.4728" stroke="#263238" stroke-width="0.24584" stroke-miterlimit="10" stroke-linecap="round" stroke-linejoin="round"/>
<path d="M201.201 20.2063C201.201 20.2063 201.253 21.1125 201.387 22.4933" stroke="#263238" stroke-width="0.24584" stroke-miterlimit="10" stroke-linecap="round" stroke-linejoin="round"/>
<path d="M210.336 47.4719C210.336 47.4719 196.792 51.3393 194.068 54.6229C191.344 57.9066 192.31 62.6419 192.31 62.6419" stroke="#263238" stroke-width="0.24584" stroke-miterlimit="10" stroke-linecap="round" stroke-linejoin="round"/>
<path d="M226.265 35.9579C228.793 34.5898 229.66 34.823 229.66 34.823" stroke="#263238" stroke-width="0.24584" stroke-miterlimit="10" stroke-linecap="round" stroke-linejoin="round"/>
<path d="M207.787 70.9432C207.787 70.9432 205.115 67.6591 206.185 61.9565C207.255 56.2542 211.227 48.5667 211.227 48.5667C211.227 48.5667 220.588 39.8938 224.554 37.0247" stroke="#263238" stroke-width="0.24584" stroke-miterlimit="10" stroke-linecap="round" stroke-linejoin="round"/>
<path d="M212.49 43.2136C211.812 46.1869 211.227 48.567 211.227 48.567" stroke="#263238" stroke-width="0.24584" stroke-miterlimit="10" stroke-linecap="round" stroke-linejoin="round"/>
<path d="M217.389 24.8125C216.156 27.3869 214.715 30.7785 214.488 32.9877C214.303 34.7875 213.616 38.156 212.92 41.3016" stroke="#263238" stroke-width="0.24584" stroke-miterlimit="10" stroke-linecap="round" stroke-linejoin="round"/>
<path d="M219.224 21.2273C219.224 21.2273 218.76 22.0641 218.12 23.3287" stroke="#263238" stroke-width="0.24584" stroke-miterlimit="10" stroke-linecap="round" stroke-linejoin="round"/>
<path d="M212.856 48.8725C212.856 48.8725 226.043 47.8052 228.589 48.6202C231.134 49.4352 232.967 50.4536 232.967 50.4536" stroke="#263238" stroke-width="0.24584" stroke-miterlimit="10" stroke-linecap="round" stroke-linejoin="round"/>
<path d="M214.299 53.4066C215.206 55.528 216.51 58.1919 217.895 59.7691C220.466 62.6972 223.418 64.9375 223.418 64.9375" stroke="#263238" stroke-width="0.24584" stroke-miterlimit="10" stroke-linecap="round" stroke-linejoin="round"/>
<path d="M213.034 50.1709C213.034 50.1709 213.317 50.9938 213.794 52.188" stroke="#263238" stroke-width="0.24584" stroke-miterlimit="10" stroke-linecap="round" stroke-linejoin="round"/>
<path opacity="0.3" d="M286.809 177.62C284.107 174.9 275.82 157.858 270.331 145.552L277.802 143.819C279.158 143.505 280.273 142.718 281.023 141.677C281.212 141.414 281.374 141.132 281.515 140.84C281.65 140.56 281.759 140.268 281.845 139.967C282.126 138.988 282.145 137.92 281.827 136.867C281.772 136.685 281.709 136.508 281.637 136.336C281.423 135.821 281.136 135.353 280.794 134.941C280.451 134.529 280.052 134.172 279.612 133.88C279.319 133.684 279.007 133.518 278.682 133.381C277.545 132.905 276.241 132.806 274.969 133.19L266.205 135.837C265.777 134.735 265.47 133.872 265.318 133.323C265.056 132.378 264.739 131.559 264.365 130.848C264.302 130.397 264.209 129.736 264.071 128.752C263.644 125.715 261.179 122.113 257.88 120.96C254.581 119.808 244.746 119.678 241.421 118.743C238.097 117.81 214.676 113.578 211.876 115.803C209.075 118.028 207.476 124.264 205.471 128.24C203.466 132.216 196.471 146.91 196.471 146.91C196.32 146.496 191.542 151.67 191.197 154.661C191.095 155.07 191.103 155.402 191.269 155.611C191.981 156.507 193.246 157.337 195.254 157.263L189.776 158.917C189.124 159.114 188.675 159.669 188.582 160.31C186.637 160.892 182.756 162.23 180.433 164.22C180.433 164.22 185.794 164.294 189.385 163.469C189.788 163.884 190.389 164.088 190.996 163.947L198.481 162.211C198.538 162.633 198.628 163.074 198.772 163.553C198.888 163.943 199.131 164.28 199.443 164.579C199.581 164.797 199.734 165.015 199.908 165.233C202.81 168.885 210.378 171.412 215.741 172.912C221.103 174.411 227.404 178.342 232.753 183.824C238.102 189.307 242.358 194.664 250.504 198.917C251.961 199.677 253.397 200.289 254.789 200.786L315.581 208.258C315.581 208.26 290.778 181.616 286.809 177.62ZM201.426 154.947C201.401 155.106 201.381 155.263 201.374 155.417L199.99 155.835C200.46 155.593 200.941 155.293 201.426 154.947Z" fill="black"/>
<path d="M295.742 237.323L241.455 199.739C241.455 199.739 227.029 177.833 215.441 171.747C203.852 165.661 190.6 163.48 194.122 155.915C197.644 148.349 208.02 132.161 211.326 131.322C214.631 130.483 239.789 131.151 246.325 130.128C252.862 129.105 256.014 130.573 257.501 135.945C258.989 141.317 275.022 176.245 278.992 180.242C282.961 184.238 317.958 209.541 317.958 209.541" fill="white"/>
<mask id="mask4_305_11313" style="mask-type:luminance" maskUnits="userSpaceOnUse" x="193" y="129" width="125" height="109">
<path d="M295.742 237.323L241.455 199.739C241.455 199.739 227.029 177.833 215.441 171.747C203.852 165.661 190.6 163.48 194.122 155.915C197.644 148.349 208.02 132.161 211.326 131.322C214.631 130.483 239.789 131.151 246.325 130.128C252.862 129.105 256.014 130.573 257.501 135.945C258.989 141.317 275.022 176.245 278.992 180.242C282.961 184.238 317.958 209.541 317.958 209.541" fill="white"/>
</mask>
<g mask="url(#mask4_305_11313)">
<path d="M278.992 180.242C275.023 176.246 258.99 141.318 257.501 135.946C256.59 132.654 255.048 130.833 252.49 130.149C253.91 132.805 254.699 136.071 254.983 138.859C255.526 144.19 256.242 147.796 256.242 147.796C256.242 147.796 263.709 164.321 268.715 172.147C273.721 179.973 286.072 192.221 294.984 197.876C301.579 202.06 309.51 204.891 313.191 206.081C303.478 199.013 282.047 183.318 278.992 180.242Z" fill="#C6FF00"/>
</g>
<mask id="mask5_305_11313" style="mask-type:luminance" maskUnits="userSpaceOnUse" x="193" y="129" width="125" height="109">
<path d="M295.742 237.323L241.455 199.739C241.455 199.739 227.029 177.833 215.441 171.747C203.852 165.661 190.6 163.48 194.122 155.915C197.644 148.349 208.02 132.161 211.326 131.322C214.631 130.483 239.789 131.151 246.325 130.128C252.862 129.105 256.014 130.573 257.501 135.945C258.989 141.317 275.022 176.245 278.992 180.242C282.961 184.238 317.958 209.541 317.958 209.541" fill="white"/>
</mask>
<g mask="url(#mask5_305_11313)">
<path opacity="0.5" d="M278.992 180.242C275.023 176.246 258.99 141.318 257.501 135.946C256.59 132.654 255.048 130.833 252.49 130.149C253.91 132.805 254.699 136.071 254.983 138.859C255.526 144.19 256.242 147.796 256.242 147.796C256.242 147.796 263.709 164.321 268.715 172.147C273.721 179.973 286.072 192.221 294.984 197.876C301.579 202.06 309.51 204.891 313.191 206.081C303.478 199.013 282.047 183.318 278.992 180.242Z" fill="white"/>
</g>
<path d="M295.742 237.323L241.455 199.739C241.455 199.739 227.029 177.833 215.441 171.747C203.852 165.661 190.6 163.48 194.122 155.915C197.644 148.349 208.02 132.161 211.326 131.322C214.631 130.483 239.789 131.151 246.325 130.128C252.862 129.105 256.014 130.573 257.501 135.945C258.989 141.317 275.022 176.245 278.992 180.242C282.961 184.238 317.958 209.541 317.958 209.541" stroke="#263238" stroke-width="0.667688" stroke-miterlimit="10" stroke-linecap="round"/>
<path d="M186.679 160.566C186.679 160.566 193.131 157.522 197.822 150.051C202.514 142.58 199.983 142.788 199.983 142.788C199.983 142.788 202.97 140.063 204.74 138.243C206.51 136.422 208.452 132.876 208.452 132.876C208.452 132.876 219.717 134.463 224.51 134.174C229.303 133.885 231.406 133.404 231.406 133.404L240.508 138.129C240.508 138.129 236.825 142.167 235.883 148.527C234.94 154.888 233.951 163.241 232.45 164.935C230.949 166.63 232.135 167.055 222.281 167.761C212.425 168.467 188.423 165.658 186.679 160.566Z" fill="#C6FF00"/>
<path opacity="0.5" d="M186.679 160.566C186.679 160.566 193.131 157.522 197.822 150.051C202.514 142.58 199.983 142.788 199.983 142.788C199.983 142.788 202.97 140.063 204.74 138.243C206.51 136.422 208.452 132.876 208.452 132.876C208.452 132.876 219.717 134.463 224.51 134.174C229.303 133.885 231.406 133.404 231.406 133.404L240.508 138.129C240.508 138.129 236.825 142.167 235.883 148.527C234.94 154.888 233.951 163.241 232.45 164.935C230.949 166.63 232.135 167.055 222.281 167.761C212.425 168.467 188.423 165.658 186.679 160.566Z" fill="white"/>
<path d="M202.743 156.017C202.743 156.017 208.828 152.176 209.469 141.735C209.469 141.735 215.902 141.477 220.796 137.389" stroke="#263238" stroke-width="0.667688" stroke-miterlimit="10" stroke-linecap="round"/>
<path d="M217.435 141.762C217.435 141.762 218.204 151.479 229.926 159.291" stroke="#263238" stroke-width="0.667688" stroke-miterlimit="10" stroke-linecap="round"/>
<path d="M210.889 145.771C210.889 145.771 216.03 148.242 218.205 151.478" stroke="#263238" stroke-width="0.667688" stroke-miterlimit="10" stroke-linecap="round"/>
<path d="M227.484 165.158C227.484 165.158 231.269 159.172 232.5 154.222C233.73 149.272 233.235 144.898 237.084 141.244" stroke="#263238" stroke-width="0.667688" stroke-miterlimit="10" stroke-linecap="round"/>
<path d="M209.47 141.735L207.407 140.795" stroke="#263238" stroke-width="0.667688" stroke-miterlimit="10" stroke-linecap="round"/>
<path d="M181.957 162.601C181.957 162.601 175.807 164.111 172.617 166.844C172.617 166.844 179.246 166.94 182.699 165.785L181.957 162.601Z" fill="#263238" stroke="#263238" stroke-width="0.667688" stroke-miterlimit="10" stroke-linecap="round"/>
<path d="M267.152 135.813L181.96 161.542C181.119 161.796 180.607 162.646 180.777 163.509L181.116 165.236C181.302 166.185 182.238 166.79 183.18 166.572L269.987 146.442C273.085 145.723 274.931 142.534 274.011 139.49C273.132 136.58 270.062 134.934 267.152 135.813Z" fill="#C6FF00" stroke="#263238" stroke-width="0.667688" stroke-miterlimit="10" stroke-linecap="round"/>
<path d="M267.153 135.813L254.276 139.701C252.698 142.005 252.766 145.222 254.653 147.597C255.298 148.408 256.088 149.031 256.95 149.464L269.986 146.44C273.085 145.722 274.93 142.533 274.01 139.489C273.132 136.58 270.062 134.934 267.153 135.813Z" fill="#263238" stroke="#263238" stroke-width="0.667688" stroke-miterlimit="10" stroke-linecap="round"/>
<path d="M238.435 158.443C238.435 158.443 232.348 163.28 228.945 163.997C225.543 164.714 215.144 158.876 209.488 158.007C203.832 157.138 200.892 157.686 196.079 159.127C191.265 160.568 189.189 164.204 192.091 167.857C194.993 171.509 202.561 174.036 207.924 175.535C213.286 177.035 219.587 180.966 224.936 186.448C230.285 191.931 234.541 197.288 242.687 201.541C250.833 205.794 258.386 205.552 260.671 204.928" fill="white"/>
<mask id="mask6_305_11313" style="mask-type:luminance" maskUnits="userSpaceOnUse" x="190" y="157" width="71" height="49">
<path d="M238.435 158.443C238.435 158.443 232.348 163.28 228.945 163.997C225.543 164.714 215.144 158.876 209.488 158.007C203.832 157.138 200.892 157.686 196.079 159.127C191.265 160.568 189.189 164.204 192.091 167.857C194.993 171.509 202.561 174.036 207.924 175.535C213.286 177.035 219.587 180.966 224.936 186.448C230.285 191.931 234.541 197.288 242.687 201.541C250.833 205.794 258.386 205.552 260.671 204.928" fill="white"/>
</mask>
<g mask="url(#mask6_305_11313)">
<path d="M235.497 161.017C235.497 161.017 235.282 161.011 234.897 160.997C232.963 162.282 230.627 163.643 228.945 163.997C225.543 164.714 215.144 158.875 209.488 158.006C203.832 157.138 200.892 157.686 196.079 159.127C195.255 159.374 194.519 159.689 193.866 160.053C195.377 159.744 200.277 158.918 205.6 159.913C212.008 161.111 219.595 168.245 225.657 167.333C231.72 166.42 235.497 161.017 235.497 161.017Z" fill="#C6FF00"/>
</g>
<mask id="mask7_305_11313" style="mask-type:luminance" maskUnits="userSpaceOnUse" x="190" y="157" width="71" height="49">
<path d="M238.435 158.443C238.435 158.443 232.348 163.28 228.945 163.997C225.543 164.714 215.144 158.876 209.488 158.007C203.832 157.138 200.892 157.686 196.079 159.127C191.265 160.568 189.189 164.204 192.091 167.857C194.993 171.509 202.561 174.036 207.924 175.535C213.286 177.035 219.587 180.966 224.936 186.448C230.285 191.931 234.541 197.288 242.687 201.541C250.833 205.794 258.386 205.552 260.671 204.928" fill="white"/>
</mask>
<g mask="url(#mask7_305_11313)">
<path opacity="0.5" d="M235.497 161.017C235.497 161.017 235.282 161.011 234.897 160.997C232.963 162.282 230.627 163.643 228.945 163.997C225.543 164.714 215.144 158.875 209.488 158.006C203.832 157.138 200.892 157.686 196.079 159.127C195.255 159.374 194.519 159.689 193.866 160.053C195.377 159.744 200.277 158.918 205.6 159.913C212.008 161.111 219.595 168.245 225.657 167.333C231.72 166.42 235.497 161.017 235.497 161.017Z" fill="white"/>
</g>
<path d="M238.435 158.443C238.435 158.443 232.348 163.28 228.945 163.997C225.543 164.714 215.144 158.876 209.488 158.007C203.832 157.138 200.892 157.686 196.079 159.127C191.265 160.568 189.189 164.204 192.091 167.857C194.993 171.509 202.561 174.036 207.924 175.535C213.286 177.035 219.587 180.966 224.936 186.448C230.285 191.931 234.541 197.288 242.687 201.541C250.833 205.794 258.386 205.552 260.671 204.928" stroke="#263238" stroke-width="0.667688" stroke-miterlimit="10" stroke-linecap="round"/>
<path d="M196.919 169.184C196.919 169.184 195.572 165.488 198.869 159.889C198.869 159.889 194.622 159.292 192.577 160.718C190.532 162.144 190.235 163.77 190.956 166.176C191.675 168.584 196.919 169.184 196.919 169.184Z" fill="white" stroke="#263238" stroke-width="0.667688" stroke-miterlimit="10" stroke-linecap="round"/>
<path d="M201.883 171.444C202.321 171.608 202.879 171.748 203.588 171.83" stroke="#263238" stroke-width="0.667688" stroke-miterlimit="10" stroke-linecap="round"/>
<path d="M201.462 161.404C201.462 161.404 197.56 166.491 200.34 170.24" stroke="#263238" stroke-width="0.667688" stroke-miterlimit="10" stroke-linecap="round"/>
<path d="M256.682 134.412C256.682 134.412 256.682 134.412 256.254 131.375C255.827 128.338 253.362 124.736 250.063 123.583C246.764 122.431 236.929 122.301 233.605 121.367C230.281 120.433 206.859 116.202 204.059 118.427C201.259 120.651 199.66 126.887 197.655 130.864C195.65 134.84 188.655 149.534 188.655 149.534C188.655 149.534 182.292 156.773 183.452 158.235C184.613 159.696 187.232 160.991 192.17 158.458C197.108 155.925 203.113 146.983 204.04 145.651C204.968 144.318 210.414 135.423 210.414 135.423C210.414 135.423 215.192 137.188 219.734 137.155C224.275 137.121 224.834 137.075 224.834 137.075C224.834 137.075 227.471 140.143 231.063 140.666" fill="white"/>
<mask id="mask8_305_11313" style="mask-type:luminance" maskUnits="userSpaceOnUse" x="183" y="117" width="74" height="43">
<path d="M256.682 134.412C256.682 134.412 256.682 134.412 256.254 131.375C255.827 128.338 253.362 124.736 250.063 123.583C246.764 122.431 236.929 122.301 233.605 121.367C230.281 120.433 206.859 116.202 204.059 118.427C201.259 120.651 199.66 126.887 197.655 130.864C195.65 134.84 188.655 149.534 188.655 149.534C188.655 149.534 182.292 156.773 183.452 158.235C184.613 159.696 187.232 160.991 192.17 158.458C197.108 155.925 203.113 146.983 204.04 145.651C204.968 144.318 210.414 135.423 210.414 135.423C210.414 135.423 215.192 137.188 219.734 137.155C224.275 137.121 224.834 137.075 224.834 137.075C224.834 137.075 227.471 140.143 231.063 140.666" fill="white"/>
</mask>
<g mask="url(#mask8_305_11313)">
<path d="M246.918 125.246C250.89 126.156 253.2 130.575 254.302 134.994L256.681 134.413C256.681 134.413 256.681 134.413 256.254 131.376C255.827 128.339 253.361 124.736 250.063 123.584C246.764 122.432 236.929 122.302 233.604 121.367C232.737 121.124 230.495 120.655 227.614 120.136L227.217 120.409C227.217 120.409 241.759 124.065 246.918 125.246Z" fill="#C6FF00"/>
</g>
<mask id="mask9_305_11313" style="mask-type:luminance" maskUnits="userSpaceOnUse" x="183" y="117" width="74" height="43">
<path d="M256.682 134.412C256.682 134.412 256.682 134.412 256.254 131.375C255.827 128.338 253.362 124.736 250.063 123.583C246.764 122.431 236.929 122.301 233.605 121.367C230.281 120.433 206.859 116.202 204.059 118.427C201.259 120.651 199.66 126.887 197.655 130.864C195.65 134.84 188.655 149.534 188.655 149.534C188.655 149.534 182.292 156.773 183.452 158.235C184.613 159.696 187.232 160.991 192.17 158.458C197.108 155.925 203.113 146.983 204.04 145.651C204.968 144.318 210.414 135.423 210.414 135.423C210.414 135.423 215.192 137.188 219.734 137.155C224.275 137.121 224.834 137.075 224.834 137.075C224.834 137.075 227.471 140.143 231.063 140.666" fill="white"/>
</mask>
<g mask="url(#mask9_305_11313)">
<path opacity="0.5" d="M246.918 125.246C250.89 126.156 253.2 130.575 254.302 134.994L256.681 134.413C256.681 134.413 256.681 134.413 256.254 131.376C255.827 128.339 253.361 124.736 250.063 123.584C246.764 122.432 236.929 122.302 233.604 121.367C232.737 121.124 230.495 120.655 227.614 120.136L227.217 120.409C227.217 120.409 241.759 124.065 246.918 125.246Z" fill="white"/>
</g>
<mask id="mask10_305_11313" style="mask-type:luminance" maskUnits="userSpaceOnUse" x="183" y="117" width="74" height="43">
<path d="M256.682 134.412C256.682 134.412 256.682 134.412 256.254 131.375C255.827 128.338 253.362 124.736 250.063 123.583C246.764 122.431 236.929 122.301 233.605 121.367C230.281 120.433 206.859 116.202 204.059 118.427C201.259 120.651 199.66 126.887 197.655 130.864C195.65 134.84 188.655 149.534 188.655 149.534C188.655 149.534 182.292 156.773 183.452 158.235C184.613 159.696 187.232 160.991 192.17 158.458C197.108 155.925 203.113 146.983 204.04 145.651C204.968 144.318 210.414 135.423 210.414 135.423C210.414 135.423 215.192 137.188 219.734 137.155C224.275 137.121 224.834 137.075 224.834 137.075C224.834 137.075 227.471 140.143 231.063 140.666" fill="white"/>
</mask>
<g mask="url(#mask10_305_11313)">
<path d="M186.679 160.566C186.679 160.566 193.131 157.522 197.822 150.051C202.514 142.58 199.983 142.788 199.983 142.788C199.983 142.788 202.97 140.064 204.74 138.243C206.51 136.422 208.452 132.876 208.452 132.876C208.452 132.876 219.717 134.463 224.51 134.174C229.303 133.885 231.406 133.404 231.406 133.404L240.508 138.129C240.508 138.129 236.825 142.167 235.883 148.527C234.94 154.888 233.951 163.241 232.45 164.935C230.949 166.63 232.135 167.056 222.281 167.761C212.425 168.467 188.423 165.658 186.679 160.566Z" fill="#C6FF00"/>
</g>
<mask id="mask11_305_11313" style="mask-type:luminance" maskUnits="userSpaceOnUse" x="183" y="117" width="74" height="43">
<path d="M256.682 134.412C256.682 134.412 256.682 134.412 256.254 131.375C255.827 128.338 253.362 124.736 250.063 123.583C246.764 122.431 236.929 122.301 233.605 121.367C230.281 120.433 206.859 116.202 204.059 118.427C201.259 120.651 199.66 126.887 197.655 130.864C195.65 134.84 188.655 149.534 188.655 149.534C188.655 149.534 182.292 156.773 183.452 158.235C184.613 159.696 187.232 160.991 192.17 158.458C197.108 155.925 203.113 146.983 204.04 145.651C204.968 144.318 210.414 135.423 210.414 135.423C210.414 135.423 215.192 137.188 219.734 137.155C224.275 137.121 224.834 137.075 224.834 137.075C224.834 137.075 227.471 140.143 231.063 140.666" fill="white"/>
</mask>
<g mask="url(#mask11_305_11313)">
<path opacity="0.5" d="M186.679 160.566C186.679 160.566 193.131 157.522 197.822 150.051C202.514 142.58 199.983 142.788 199.983 142.788C199.983 142.788 202.97 140.064 204.74 138.243C206.51 136.422 208.452 132.876 208.452 132.876C208.452 132.876 219.717 134.463 224.51 134.174C229.303 133.885 231.406 133.404 231.406 133.404L240.508 138.129C240.508 138.129 236.825 142.167 235.883 148.527C234.94 154.888 233.951 163.241 232.45 164.935C230.949 166.63 232.135 167.056 222.281 167.761C212.425 168.467 188.423 165.658 186.679 160.566Z" fill="white"/>
</g>
<path d="M256.682 134.412C256.682 134.412 256.682 134.412 256.254 131.375C255.827 128.338 253.362 124.736 250.063 123.583C246.764 122.431 236.929 122.301 233.605 121.367C230.281 120.433 206.859 116.202 204.059 118.427C201.259 120.651 199.66 126.887 197.655 130.864C195.65 134.84 188.655 149.534 188.655 149.534C188.655 149.534 182.292 156.773 183.452 158.235C184.613 159.696 187.232 160.991 192.17 158.458C197.108 155.925 203.113 146.983 204.04 145.651C204.968 144.318 210.414 135.423 210.414 135.423C210.414 135.423 215.192 137.188 219.734 137.155C224.275 137.121 224.834 137.075 224.834 137.075C224.834 137.075 227.471 140.143 231.063 140.666" stroke="#263238" stroke-width="0.667688" stroke-miterlimit="10" stroke-linecap="round"/>
<path d="M183.453 158.235C183.453 158.235 184.449 158.239 185.838 156.737C187.228 155.236 188.824 149.996 188.655 149.534C188.486 149.072 182.539 155.585 183.453 158.235Z" fill="white" stroke="#263238" stroke-width="0.667688" stroke-miterlimit="10" stroke-linecap="round"/>
<path d="M207.328 129.717C207.236 129.331 207.161 128.93 207.11 128.516" stroke="#263238" stroke-width="0.667688" stroke-miterlimit="10" stroke-linecap="round"/>
<path d="M210.414 135.424C210.414 135.424 208.776 133.804 207.779 131.174" stroke="#263238" stroke-width="0.667688" stroke-miterlimit="10" stroke-linecap="round"/>
<g clip-path="url(#clip0_305_11313)">
<path d="M229.309 247.828C229.194 247.811 229.081 247.808 228.96 247.8C228.839 247.792 228.942 247.698 228.897 247.654C228.519 246.908 228.007 246.238 227.385 245.679C227.337 245.633 227.283 245.595 227.223 245.566C226.812 245.343 226.297 245.496 226.075 245.908C226.075 245.909 226.074 245.911 226.073 245.913C225.683 246.651 225.436 247.457 225.344 248.287C225.326 248.395 225.321 248.493 225.309 248.593C225.297 248.692 225.122 248.678 225.035 248.732C224.286 249.102 223.615 249.612 223.059 250.236C223.013 250.284 222.975 250.338 222.946 250.398C222.722 250.804 222.87 251.315 223.275 251.539C223.281 251.542 223.287 251.545 223.293 251.548C224.031 251.941 224.837 252.19 225.668 252.285C225.721 252.287 225.775 252.292 225.828 252.301C225.847 252.41 225.917 252.51 225.973 252.612C226.383 253.399 226.992 254.064 227.738 254.542C228.089 254.764 228.551 254.681 228.804 254.352C229.339 253.645 229.68 252.811 229.794 251.931C229.782 251.866 229.772 251.808 229.811 251.734L229.99 251.649C230.776 251.239 231.441 250.63 231.919 249.884C232.141 249.533 232.059 249.07 231.729 248.818C231.021 248.285 230.188 247.944 229.309 247.828Z" fill="black" fill-opacity="0.05"/>
</g>
<defs>
<clipPath id="clip0_305_11313">
<rect width="9.32159" height="9.32159" fill="white" transform="translate(222.026 246.305) rotate(-10.1058)"/>
</clipPath>
</defs>
</svg>
